G04 #@! TF.GenerationSoftware,KiCad,Pcbnew,(6.0.7)*
G04 #@! TF.CreationDate,2023-02-20T19:56:01+09:00*
G04 #@! TF.ProjectId,led,6c65642e-6b69-4636-9164-5f7063625858,rev?*
G04 #@! TF.SameCoordinates,Original*
G04 #@! TF.FileFunction,Copper,L1,Top*
G04 #@! TF.FilePolarity,Positive*
%FSLAX46Y46*%
G04 Gerber Fmt 4.6, Leading zero omitted, Abs format (unit mm)*
G04 Created by KiCad (PCBNEW (6.0.7)) date 2023-02-20 19:56:01*
%MOMM*%
%LPD*%
G01*
G04 APERTURE LIST*
G04 Aperture macros list*
%AMRoundRect*
0 Rectangle with rounded corners*
0 $1 Rounding radius*
0 $2 $3 $4 $5 $6 $7 $8 $9 X,Y pos of 4 corners*
0 Add a 4 corners polygon primitive as box body*
4,1,4,$2,$3,$4,$5,$6,$7,$8,$9,$2,$3,0*
0 Add four circle primitives for the rounded corners*
1,1,$1+$1,$2,$3*
1,1,$1+$1,$4,$5*
1,1,$1+$1,$6,$7*
1,1,$1+$1,$8,$9*
0 Add four rect primitives between the rounded corners*
20,1,$1+$1,$2,$3,$4,$5,0*
20,1,$1+$1,$4,$5,$6,$7,0*
20,1,$1+$1,$6,$7,$8,$9,0*
20,1,$1+$1,$8,$9,$2,$3,0*%
G04 Aperture macros list end*
G04 #@! TA.AperFunction,SMDPad,CuDef*
%ADD10RoundRect,0.375000X0.187740X1.075176X-0.837260X-0.700176X-0.187740X-1.075176X0.837260X0.700176X0*%
G04 #@! TD*
G04 #@! TA.AperFunction,SMDPad,CuDef*
%ADD11RoundRect,0.375000X-0.544150X-0.946124X1.026241X0.371591X0.544150X0.946124X-1.026241X-0.371591X0*%
G04 #@! TD*
G04 #@! TA.AperFunction,SMDPad,CuDef*
%ADD12RoundRect,0.375000X-0.547292X0.944310X-0.191314X-1.074546X0.547292X-0.944310X0.191314X1.074546X0*%
G04 #@! TD*
G04 #@! TA.AperFunction,SMDPad,CuDef*
%ADD13RoundRect,0.375000X-0.837260X0.700176X0.187740X-1.075176X0.837260X-0.700176X-0.187740X1.075176X0*%
G04 #@! TD*
G04 #@! TA.AperFunction,SMDPad,CuDef*
%ADD14RoundRect,0.375000X-0.834927X-0.702955X1.091442X-0.001814X0.834927X0.702955X-1.091442X0.001814X0*%
G04 #@! TD*
G04 #@! TA.AperFunction,SMDPad,CuDef*
%ADD15RoundRect,0.250000X0.450000X-0.350000X0.450000X0.350000X-0.450000X0.350000X-0.450000X-0.350000X0*%
G04 #@! TD*
G04 #@! TA.AperFunction,SMDPad,CuDef*
%ADD16RoundRect,0.375000X-1.026241X0.371591X0.544150X-0.946124X1.026241X-0.371591X-0.544150X0.946124X0*%
G04 #@! TD*
G04 #@! TA.AperFunction,ComponentPad*
%ADD17R,1.700000X1.700000*%
G04 #@! TD*
G04 #@! TA.AperFunction,ComponentPad*
%ADD18O,1.700000X1.700000*%
G04 #@! TD*
G04 #@! TA.AperFunction,SMDPad,CuDef*
%ADD19RoundRect,0.375000X0.191314X-1.074546X0.547292X0.944310X-0.191314X1.074546X-0.547292X-0.944310X0*%
G04 #@! TD*
G04 #@! TA.AperFunction,SMDPad,CuDef*
%ADD20RoundRect,0.375000X-1.025000X-0.375000X1.025000X-0.375000X1.025000X0.375000X-1.025000X0.375000X0*%
G04 #@! TD*
G04 #@! TA.AperFunction,SMDPad,CuDef*
%ADD21RoundRect,0.375000X-1.091442X-0.001814X0.834927X-0.702955X1.091442X0.001814X-0.834927X0.702955X0*%
G04 #@! TD*
G04 #@! TA.AperFunction,ViaPad*
%ADD22C,0.800000*%
G04 #@! TD*
G04 #@! TA.AperFunction,Conductor*
%ADD23C,0.250000*%
G04 #@! TD*
G04 APERTURE END LIST*
D10*
X192532100Y-87900000D03*
X189067998Y-85900000D03*
D11*
X210725000Y-60675000D03*
X213296150Y-63739178D03*
D12*
X204169600Y-88727700D03*
X200230369Y-89422293D03*
D13*
X192832100Y-57525000D03*
X189367998Y-59525000D03*
D14*
X183141000Y-76620600D03*
X184509081Y-80379370D03*
D15*
X215875000Y-79850000D03*
X215875000Y-77850000D03*
D16*
X213260600Y-81892900D03*
X210689450Y-84957078D03*
D17*
X194450000Y-91625000D03*
D18*
X196990000Y-91625000D03*
D15*
X181475000Y-84475000D03*
X181475000Y-82475000D03*
D19*
X200275000Y-56200000D03*
X204214231Y-56894593D03*
D20*
X215825000Y-70850000D03*
X215825000Y-74850000D03*
D21*
X184534000Y-65270600D03*
X183165919Y-69029370D03*
D15*
X188175000Y-92175000D03*
X188175000Y-90175000D03*
D22*
X190900000Y-89875000D03*
X206475000Y-90400000D03*
X216425000Y-82550000D03*
X215975000Y-66625000D03*
X209650000Y-57025000D03*
X196350000Y-54725000D03*
X185600000Y-61425000D03*
X181300000Y-72700000D03*
X185700000Y-82900000D03*
D23*
X181475000Y-91300000D02*
X181475000Y-84475000D01*
X182350000Y-92175000D02*
X181475000Y-91300000D01*
X188175000Y-92175000D02*
X182350000Y-92175000D01*
X194450000Y-91625000D02*
X192835100Y-91625000D01*
X188725000Y-91625000D02*
X188175000Y-92175000D01*
X192835100Y-91625000D02*
X188725000Y-91625000D01*
X210547600Y-79850000D02*
X215875000Y-79850000D01*
X201961100Y-88436500D02*
X210547600Y-79850000D01*
X201961100Y-90201600D02*
X201961100Y-88436500D01*
X200959000Y-91203700D02*
X201961100Y-90201600D01*
X198975700Y-91203700D02*
X200959000Y-91203700D01*
X198221600Y-90449600D02*
X198975700Y-91203700D01*
X193422700Y-90449600D02*
X198221600Y-90449600D01*
X192835100Y-91037200D02*
X193422700Y-90449600D01*
X192835100Y-91625000D02*
X192835100Y-91037200D01*
X206918800Y-88727700D02*
X204169600Y-88727700D01*
X210689400Y-84957100D02*
X206918800Y-88727700D01*
X189068000Y-89282000D02*
X189068000Y-85900000D01*
X188175000Y-90175000D02*
X189068000Y-89282000D01*
X198708100Y-87900000D02*
X192532100Y-87900000D01*
X200230400Y-89422300D02*
X198708100Y-87900000D01*
X189368000Y-60436600D02*
X189368000Y-59525000D01*
X184534000Y-65270600D02*
X189368000Y-60436600D01*
X182413500Y-82475000D02*
X184509100Y-80379400D01*
X181475000Y-82475000D02*
X182413500Y-82475000D01*
X183141000Y-69054300D02*
X183141000Y-76620600D01*
X183165900Y-69029400D02*
X183141000Y-69054300D01*
X194157100Y-56200000D02*
X192832100Y-57525000D01*
X200275000Y-56200000D02*
X194157100Y-56200000D01*
X201035600Y-56200000D02*
X200275000Y-56200000D01*
X207195500Y-62359900D02*
X201035600Y-56200000D01*
X211534900Y-62359900D02*
X207195500Y-62359900D01*
X211802500Y-62092300D02*
X211534900Y-62359900D01*
X214146800Y-62092300D02*
X211802500Y-62092300D01*
X217572300Y-65517800D02*
X214146800Y-62092300D01*
X217572300Y-79841500D02*
X217572300Y-65517800D01*
X215520900Y-81892900D02*
X217572300Y-79841500D01*
X213260600Y-81892900D02*
X215520900Y-81892900D01*
X213260600Y-84904100D02*
X213260600Y-81892900D01*
X206487600Y-91677100D02*
X213260600Y-84904100D01*
X198217400Y-91677100D02*
X206487600Y-91677100D01*
X198165300Y-91625000D02*
X198217400Y-91677100D01*
X196990000Y-91625000D02*
X198165300Y-91625000D01*
X206944600Y-56894600D02*
X210725000Y-60675000D01*
X204214200Y-56894600D02*
X206944600Y-56894600D01*
X215825000Y-77800000D02*
X215825000Y-74850000D01*
X215875000Y-77850000D02*
X215825000Y-77800000D01*
X213296200Y-68321200D02*
X213296200Y-63739200D01*
X215825000Y-70850000D02*
X213296200Y-68321200D01*
G04 #@! TA.AperFunction,Conductor*
G36*
X218485562Y-52161856D02*
G01*
X218499683Y-52164055D01*
X218509257Y-52165546D01*
X218518161Y-52164382D01*
X218518167Y-52164382D01*
X218524517Y-52163552D01*
X218549838Y-52162810D01*
X218680263Y-52172140D01*
X218718811Y-52174898D01*
X218736600Y-52177457D01*
X218926934Y-52218864D01*
X218944178Y-52223927D01*
X218945134Y-52224284D01*
X219126681Y-52292000D01*
X219143033Y-52299468D01*
X219313987Y-52392818D01*
X219329110Y-52402537D01*
X219485045Y-52519269D01*
X219498631Y-52531042D01*
X219636357Y-52668768D01*
X219648130Y-52682354D01*
X219764860Y-52838286D01*
X219774579Y-52853409D01*
X219867933Y-53024370D01*
X219875401Y-53040722D01*
X219943472Y-53223220D01*
X219948537Y-53240469D01*
X219989943Y-53430796D01*
X219992502Y-53448590D01*
X220004083Y-53610464D01*
X220003335Y-53628476D01*
X220003235Y-53636717D01*
X220001853Y-53645591D01*
X220005648Y-53674612D01*
X220005980Y-53677147D01*
X220007044Y-53693487D01*
X220007044Y-91902500D01*
X220005544Y-91921883D01*
X220003234Y-91936717D01*
X220003234Y-91936721D01*
X220001853Y-91945591D01*
X220003690Y-91959640D01*
X220003848Y-91960845D01*
X220004591Y-91986169D01*
X219992510Y-92155145D01*
X219989953Y-92172934D01*
X219971287Y-92258749D01*
X219948551Y-92363276D01*
X219943487Y-92380525D01*
X219875418Y-92563037D01*
X219867950Y-92579389D01*
X219774601Y-92750356D01*
X219764887Y-92765473D01*
X219648147Y-92921425D01*
X219636390Y-92934993D01*
X219573084Y-92998303D01*
X219498651Y-93072739D01*
X219485065Y-93084511D01*
X219329129Y-93201249D01*
X219314007Y-93210969D01*
X219143046Y-93304325D01*
X219126704Y-93311789D01*
X218971458Y-93369697D01*
X218944190Y-93379868D01*
X218926940Y-93384933D01*
X218750347Y-93423353D01*
X218736608Y-93426342D01*
X218718813Y-93428901D01*
X218557322Y-93440454D01*
X218537428Y-93439628D01*
X218530685Y-93439546D01*
X218521809Y-93438164D01*
X218493931Y-93441810D01*
X218490253Y-93442291D01*
X218473913Y-93443355D01*
X189025493Y-93443355D01*
X188957372Y-93423353D01*
X188910879Y-93369697D01*
X188900775Y-93299423D01*
X188930269Y-93234843D01*
X188959190Y-93210211D01*
X189093120Y-93127332D01*
X189099348Y-93123478D01*
X189224305Y-92998303D01*
X189248819Y-92958534D01*
X189313275Y-92853968D01*
X189313276Y-92853966D01*
X189317115Y-92847738D01*
X189372797Y-92679861D01*
X189383500Y-92575400D01*
X189383500Y-92384500D01*
X189403502Y-92316379D01*
X189457158Y-92269886D01*
X189509500Y-92258500D01*
X192763307Y-92258500D01*
X192786916Y-92260732D01*
X192787219Y-92260790D01*
X192787223Y-92260790D01*
X192795006Y-92262275D01*
X192851051Y-92258749D01*
X192858962Y-92258500D01*
X192965500Y-92258500D01*
X193033621Y-92278502D01*
X193080114Y-92332158D01*
X193091500Y-92384500D01*
X193091500Y-92523134D01*
X193098255Y-92585316D01*
X193149385Y-92721705D01*
X193236739Y-92838261D01*
X193353295Y-92925615D01*
X193489684Y-92976745D01*
X193551866Y-92983500D01*
X195348134Y-92983500D01*
X195410316Y-92976745D01*
X195546705Y-92925615D01*
X195663261Y-92838261D01*
X195750615Y-92721705D01*
X195766302Y-92679861D01*
X195794798Y-92603848D01*
X195837440Y-92547084D01*
X195904001Y-92522384D01*
X195973350Y-92537592D01*
X196008017Y-92565580D01*
X196033218Y-92594673D01*
X196040580Y-92601883D01*
X196204434Y-92737916D01*
X196212881Y-92743831D01*
X196396756Y-92851279D01*
X196406042Y-92855729D01*
X196605001Y-92931703D01*
X196614899Y-92934579D01*
X196718250Y-92955606D01*
X196732299Y-92954410D01*
X196736000Y-92944065D01*
X196736000Y-91497000D01*
X196756002Y-91428879D01*
X196809658Y-91382386D01*
X196862000Y-91371000D01*
X197118000Y-91371000D01*
X197186121Y-91391002D01*
X197232614Y-91444658D01*
X197244000Y-91497000D01*
X197244000Y-92943517D01*
X197248064Y-92957359D01*
X197261478Y-92959393D01*
X197268184Y-92958534D01*
X197278262Y-92956392D01*
X197482255Y-92895191D01*
X197491842Y-92891433D01*
X197683095Y-92797739D01*
X197691945Y-92792464D01*
X197865328Y-92668792D01*
X197873200Y-92662139D01*
X198024052Y-92511812D01*
X198030730Y-92503965D01*
X198155003Y-92331020D01*
X198160313Y-92322183D01*
X198254670Y-92131267D01*
X198258469Y-92121672D01*
X198320376Y-91917915D01*
X198322555Y-91907834D01*
X198342893Y-91753347D01*
X198371615Y-91688420D01*
X198430880Y-91649328D01*
X198501872Y-91648483D01*
X198551142Y-91675281D01*
X198553128Y-91677032D01*
X198555930Y-91679834D01*
X198559125Y-91682312D01*
X198568147Y-91690018D01*
X198600379Y-91720286D01*
X198607328Y-91724106D01*
X198618132Y-91730046D01*
X198634656Y-91740899D01*
X198650659Y-91753313D01*
X198691243Y-91770876D01*
X198701873Y-91776083D01*
X198740640Y-91797395D01*
X198748317Y-91799366D01*
X198748322Y-91799368D01*
X198760258Y-91802432D01*
X198778966Y-91808837D01*
X198797555Y-91816881D01*
X198805380Y-91818120D01*
X198805382Y-91818121D01*
X198841219Y-91823797D01*
X198852840Y-91826204D01*
X198884659Y-91834373D01*
X198895670Y-91837200D01*
X198915931Y-91837200D01*
X198935640Y-91838751D01*
X198955643Y-91841919D01*
X198963535Y-91841173D01*
X198968762Y-91840679D01*
X198999654Y-91837759D01*
X199011511Y-91837200D01*
X200880233Y-91837200D01*
X200891416Y-91837727D01*
X200898909Y-91839402D01*
X200906835Y-91839153D01*
X200906836Y-91839153D01*
X200966986Y-91837262D01*
X200970945Y-91837200D01*
X200998856Y-91837200D01*
X201002791Y-91836703D01*
X201002856Y-91836695D01*
X201014693Y-91835762D01*
X201046951Y-91834748D01*
X201050970Y-91834622D01*
X201058889Y-91834373D01*
X201078343Y-91828721D01*
X201097700Y-91824713D01*
X201109930Y-91823168D01*
X201109931Y-91823168D01*
X201117797Y-91822174D01*
X201125168Y-91819255D01*
X201125170Y-91819255D01*
X201158912Y-91805896D01*
X201170142Y-91802051D01*
X201204983Y-91791929D01*
X201204984Y-91791929D01*
X201212593Y-91789718D01*
X201219412Y-91785685D01*
X201219417Y-91785683D01*
X201230028Y-91779407D01*
X201247776Y-91770712D01*
X201266617Y-91763252D01*
X201286987Y-91748453D01*
X201302387Y-91737264D01*
X201312307Y-91730748D01*
X201343535Y-91712280D01*
X201343538Y-91712278D01*
X201350362Y-91708242D01*
X201364683Y-91693921D01*
X201379717Y-91681080D01*
X201381432Y-91679834D01*
X201396107Y-91669172D01*
X201424298Y-91635095D01*
X201432288Y-91626316D01*
X202353347Y-90705257D01*
X202361637Y-90697713D01*
X202368118Y-90693600D01*
X202414759Y-90643932D01*
X202417513Y-90641091D01*
X202437234Y-90621370D01*
X202439712Y-90618175D01*
X202447418Y-90609153D01*
X202458180Y-90597693D01*
X202477686Y-90576921D01*
X202487446Y-90559168D01*
X202498299Y-90542645D01*
X202505351Y-90533553D01*
X202510713Y-90526641D01*
X202528276Y-90486057D01*
X202533483Y-90475427D01*
X202554795Y-90436660D01*
X202556766Y-90428983D01*
X202556768Y-90428978D01*
X202559832Y-90417042D01*
X202566238Y-90398330D01*
X202571134Y-90387017D01*
X202574281Y-90379745D01*
X202581197Y-90336081D01*
X202583604Y-90324460D01*
X202592628Y-90289311D01*
X202592628Y-90289310D01*
X202594600Y-90281630D01*
X202594600Y-90261369D01*
X202596151Y-90241658D01*
X202596191Y-90241409D01*
X202599319Y-90221657D01*
X202595159Y-90177646D01*
X202594600Y-90165789D01*
X202594600Y-88751094D01*
X202614602Y-88682973D01*
X202631505Y-88661999D01*
X202671687Y-88621817D01*
X202733999Y-88587791D01*
X202804814Y-88592856D01*
X202861650Y-88635403D01*
X202884867Y-88689030D01*
X203118949Y-90016566D01*
X203119565Y-90018946D01*
X203119566Y-90018953D01*
X203121640Y-90026974D01*
X203138319Y-90091470D01*
X203216807Y-90259789D01*
X203220778Y-90265059D01*
X203220780Y-90265062D01*
X203287410Y-90353481D01*
X203328576Y-90408110D01*
X203333557Y-90412440D01*
X203418262Y-90486073D01*
X203468740Y-90529953D01*
X203631174Y-90619992D01*
X203637490Y-90621923D01*
X203802464Y-90672361D01*
X203802467Y-90672362D01*
X203808778Y-90674291D01*
X203848287Y-90677748D01*
X203988038Y-90689975D01*
X203988042Y-90689975D01*
X203993791Y-90690478D01*
X204070801Y-90683063D01*
X204931213Y-90531348D01*
X204933593Y-90530732D01*
X204933600Y-90530731D01*
X205000524Y-90513424D01*
X205000523Y-90513424D01*
X205006116Y-90511978D01*
X205073370Y-90480617D01*
X205168452Y-90436279D01*
X205174435Y-90433489D01*
X205179705Y-90429518D01*
X205179708Y-90429516D01*
X205317486Y-90325692D01*
X205322757Y-90321720D01*
X205375220Y-90261369D01*
X205440271Y-90186536D01*
X205444600Y-90181556D01*
X205534638Y-90019122D01*
X205545337Y-89984128D01*
X205587007Y-89847832D01*
X205587008Y-89847829D01*
X205588937Y-89841518D01*
X205601164Y-89701769D01*
X205604621Y-89662258D01*
X205604621Y-89662254D01*
X205605124Y-89656505D01*
X205597709Y-89579495D01*
X205585293Y-89509080D01*
X205593162Y-89438520D01*
X205637930Y-89383417D01*
X205709379Y-89361200D01*
X206840033Y-89361200D01*
X206851216Y-89361727D01*
X206858709Y-89363402D01*
X206866635Y-89363153D01*
X206866636Y-89363153D01*
X206926786Y-89361262D01*
X206930745Y-89361200D01*
X206958656Y-89361200D01*
X206962591Y-89360703D01*
X206962656Y-89360695D01*
X206974493Y-89359762D01*
X207006751Y-89358748D01*
X207010770Y-89358622D01*
X207018689Y-89358373D01*
X207038143Y-89352721D01*
X207057500Y-89348713D01*
X207069730Y-89347168D01*
X207069731Y-89347168D01*
X207077597Y-89346174D01*
X207084968Y-89343255D01*
X207084970Y-89343255D01*
X207118712Y-89329896D01*
X207129942Y-89326051D01*
X207164783Y-89315929D01*
X207164784Y-89315929D01*
X207172393Y-89313718D01*
X207179212Y-89309685D01*
X207179217Y-89309683D01*
X207189828Y-89303407D01*
X207207576Y-89294712D01*
X207226417Y-89287252D01*
X207262187Y-89261264D01*
X207272107Y-89254748D01*
X207303335Y-89236280D01*
X207303338Y-89236278D01*
X207310162Y-89232242D01*
X207324483Y-89217921D01*
X207339517Y-89205080D01*
X207343072Y-89202497D01*
X207355907Y-89193172D01*
X207384098Y-89159095D01*
X207392088Y-89150316D01*
X208263205Y-88279199D01*
X212702119Y-88279199D01*
X212702366Y-88283483D01*
X212702366Y-88283484D01*
X212703773Y-88307889D01*
X212719060Y-88573019D01*
X212719885Y-88577226D01*
X212719886Y-88577231D01*
X212734788Y-88653186D01*
X212775721Y-88861821D01*
X212777108Y-88865871D01*
X212777109Y-88865876D01*
X212869664Y-89136206D01*
X212871053Y-89140262D01*
X212872980Y-89144093D01*
X212981544Y-89359949D01*
X213003291Y-89403189D01*
X213005717Y-89406718D01*
X213005720Y-89406724D01*
X213076277Y-89509384D01*
X213169989Y-89645736D01*
X213172876Y-89648909D01*
X213172877Y-89648910D01*
X213185023Y-89662258D01*
X213368062Y-89863415D01*
X213371351Y-89866165D01*
X213590553Y-90049447D01*
X213590558Y-90049451D01*
X213593845Y-90052199D01*
X213659595Y-90093444D01*
X213839520Y-90206311D01*
X213839524Y-90206313D01*
X213843160Y-90208594D01*
X213956544Y-90259789D01*
X214107481Y-90327940D01*
X214107485Y-90327942D01*
X214111393Y-90329706D01*
X214115512Y-90330926D01*
X214389468Y-90412076D01*
X214389473Y-90412077D01*
X214393581Y-90413294D01*
X214397815Y-90413942D01*
X214397820Y-90413943D01*
X214680261Y-90457162D01*
X214680263Y-90457162D01*
X214684503Y-90457811D01*
X214834316Y-90460165D01*
X214974484Y-90462367D01*
X214974490Y-90462367D01*
X214978775Y-90462434D01*
X215270952Y-90427077D01*
X215423651Y-90387017D01*
X215551483Y-90353481D01*
X215551484Y-90353481D01*
X215555626Y-90352394D01*
X215827532Y-90239767D01*
X216081636Y-90091280D01*
X216313238Y-89909682D01*
X216317929Y-89904842D01*
X216494236Y-89722905D01*
X216518050Y-89698331D01*
X216692285Y-89461140D01*
X216707244Y-89433589D01*
X216830666Y-89206273D01*
X216830667Y-89206271D01*
X216832716Y-89202497D01*
X216936747Y-88927188D01*
X216991292Y-88689032D01*
X217001493Y-88644492D01*
X217001494Y-88644488D01*
X217002451Y-88640308D01*
X217004102Y-88621817D01*
X217028393Y-88349631D01*
X217028393Y-88349629D01*
X217028613Y-88347165D01*
X217029088Y-88301855D01*
X217023113Y-88214210D01*
X217009363Y-88012505D01*
X217009362Y-88012499D01*
X217009071Y-88008228D01*
X216949389Y-87720035D01*
X216851147Y-87442608D01*
X216716162Y-87181081D01*
X216705991Y-87166608D01*
X216549400Y-86943803D01*
X216549399Y-86943802D01*
X216546933Y-86940293D01*
X216346592Y-86724699D01*
X216324480Y-86706600D01*
X216122162Y-86541006D01*
X216118844Y-86538290D01*
X215867905Y-86384515D01*
X215849250Y-86376326D01*
X215602346Y-86267942D01*
X215602342Y-86267941D01*
X215598418Y-86266218D01*
X215315370Y-86185590D01*
X215311128Y-86184986D01*
X215311122Y-86184985D01*
X215028249Y-86144726D01*
X215023998Y-86144121D01*
X214868850Y-86143309D01*
X214733980Y-86142602D01*
X214733974Y-86142602D01*
X214729694Y-86142580D01*
X214725450Y-86143139D01*
X214725446Y-86143139D01*
X214596885Y-86160065D01*
X214437904Y-86180995D01*
X214433764Y-86182128D01*
X214433762Y-86182128D01*
X214416805Y-86186767D01*
X214154027Y-86258655D01*
X214099734Y-86281813D01*
X213887258Y-86372441D01*
X213887251Y-86372445D01*
X213883316Y-86374123D01*
X213748466Y-86454829D01*
X213634462Y-86523059D01*
X213634458Y-86523062D01*
X213630780Y-86525263D01*
X213401093Y-86709277D01*
X213398149Y-86712379D01*
X213398145Y-86712383D01*
X213295117Y-86820952D01*
X213198505Y-86922760D01*
X213026764Y-87161763D01*
X212889048Y-87421862D01*
X212850181Y-87528070D01*
X212817036Y-87618645D01*
X212787906Y-87698245D01*
X212725210Y-87985798D01*
X212724874Y-87990068D01*
X212702688Y-88271974D01*
X212702684Y-88271974D01*
X212702687Y-88271988D01*
X212702119Y-88279199D01*
X208263205Y-88279199D01*
X210201644Y-86340760D01*
X210263956Y-86306734D01*
X210334771Y-86311799D01*
X210371729Y-86333333D01*
X210458971Y-86406537D01*
X210658142Y-86573661D01*
X210713072Y-86619753D01*
X210776057Y-86664681D01*
X210944376Y-86743169D01*
X211125335Y-86784947D01*
X211235178Y-86786864D01*
X211304429Y-86788073D01*
X211304430Y-86788073D01*
X211311026Y-86788188D01*
X211317502Y-86786929D01*
X211317504Y-86786929D01*
X211486852Y-86754011D01*
X211493334Y-86752751D01*
X211499407Y-86750173D01*
X211499411Y-86750172D01*
X211613405Y-86701784D01*
X211664289Y-86680185D01*
X211736861Y-86629370D01*
X211811684Y-86576979D01*
X211811687Y-86576976D01*
X211816422Y-86573661D01*
X211851181Y-86538290D01*
X211868913Y-86520246D01*
X211868918Y-86520240D01*
X211870649Y-86518479D01*
X211878240Y-86509433D01*
X212019773Y-86340760D01*
X212432242Y-85849197D01*
X212477170Y-85786212D01*
X212555658Y-85617893D01*
X212597436Y-85436933D01*
X212600677Y-85251242D01*
X212584557Y-85168309D01*
X212566500Y-85075417D01*
X212565240Y-85068935D01*
X212562662Y-85062862D01*
X212562661Y-85062858D01*
X212495252Y-84904054D01*
X212492674Y-84897980D01*
X212417574Y-84790725D01*
X212389468Y-84750585D01*
X212389465Y-84750582D01*
X212386150Y-84745847D01*
X212330968Y-84691620D01*
X212298903Y-84664714D01*
X210667721Y-83295991D01*
X210667715Y-83295986D01*
X210665828Y-83294403D01*
X210602843Y-83249475D01*
X210434524Y-83170987D01*
X210253565Y-83129209D01*
X210140008Y-83127227D01*
X210074471Y-83126083D01*
X210074470Y-83126083D01*
X210067874Y-83125968D01*
X210061398Y-83127227D01*
X210061396Y-83127227D01*
X209892048Y-83160145D01*
X209885566Y-83161405D01*
X209879493Y-83163983D01*
X209879489Y-83163984D01*
X209825741Y-83186799D01*
X209714611Y-83233971D01*
X209651279Y-83278316D01*
X209567216Y-83337177D01*
X209567213Y-83337180D01*
X209562478Y-83340495D01*
X209558427Y-83344617D01*
X209558425Y-83344619D01*
X209517973Y-83385784D01*
X209508251Y-83395677D01*
X209506661Y-83397572D01*
X209506660Y-83397573D01*
X209460944Y-83452055D01*
X208946658Y-84064959D01*
X208901730Y-84127944D01*
X208823242Y-84296263D01*
X208781464Y-84477223D01*
X208778223Y-84662914D01*
X208779482Y-84669390D01*
X208779482Y-84669392D01*
X208796708Y-84758013D01*
X208813660Y-84845221D01*
X208816238Y-84851294D01*
X208816239Y-84851298D01*
X208844309Y-84917425D01*
X208886226Y-85016176D01*
X208890013Y-85021584D01*
X208973482Y-85140791D01*
X208992750Y-85168309D01*
X209047932Y-85222536D01*
X209049823Y-85224123D01*
X209049842Y-85224140D01*
X209203664Y-85353212D01*
X209242991Y-85412321D01*
X209244117Y-85483309D01*
X209211768Y-85538828D01*
X207947913Y-86802682D01*
X206693300Y-88057295D01*
X206630988Y-88091321D01*
X206604205Y-88094200D01*
X205441537Y-88094200D01*
X205373416Y-88074198D01*
X205326923Y-88020542D01*
X205317451Y-87990080D01*
X205252966Y-87624369D01*
X205220251Y-87438834D01*
X205216905Y-87425893D01*
X205202327Y-87369522D01*
X205200881Y-87363930D01*
X205122393Y-87195611D01*
X205118422Y-87190341D01*
X205118420Y-87190338D01*
X205014596Y-87052561D01*
X205010624Y-87047290D01*
X204929097Y-86976419D01*
X204875440Y-86929776D01*
X204870460Y-86925447D01*
X204708026Y-86835408D01*
X204703471Y-86834015D01*
X204649110Y-86789423D01*
X204627276Y-86721867D01*
X204645432Y-86653231D01*
X204664135Y-86629370D01*
X208272979Y-83020526D01*
X212651824Y-83020526D01*
X212652115Y-83022342D01*
X212656924Y-83028558D01*
X213282619Y-83553579D01*
X213286527Y-83556604D01*
X213342765Y-83596718D01*
X213352701Y-83602512D01*
X213509703Y-83675724D01*
X213522127Y-83680002D01*
X213690113Y-83718784D01*
X213703149Y-83720384D01*
X213875527Y-83723395D01*
X213888619Y-83722249D01*
X214057859Y-83689351D01*
X214070409Y-83685514D01*
X214229121Y-83618145D01*
X214240603Y-83611780D01*
X214382503Y-83512421D01*
X214391293Y-83504980D01*
X214439705Y-83455716D01*
X214443031Y-83452055D01*
X214547300Y-83327792D01*
X214553669Y-83313240D01*
X214553378Y-83311424D01*
X214548569Y-83305208D01*
X213305785Y-82262388D01*
X213291233Y-82256019D01*
X213289417Y-82256310D01*
X213283201Y-82261119D01*
X212658193Y-83005974D01*
X212651824Y-83020526D01*
X208272979Y-83020526D01*
X209701419Y-81592086D01*
X211349988Y-81592086D01*
X211351134Y-81605178D01*
X211384032Y-81774420D01*
X211387869Y-81786969D01*
X211455238Y-81945680D01*
X211461603Y-81957162D01*
X211560962Y-82099062D01*
X211568403Y-82107852D01*
X211617667Y-82156264D01*
X211621328Y-82159590D01*
X212243520Y-82681671D01*
X212258072Y-82688040D01*
X212259888Y-82687749D01*
X212266104Y-82682940D01*
X212891112Y-81938085D01*
X212897481Y-81923533D01*
X212897190Y-81921717D01*
X212892381Y-81915501D01*
X212828939Y-81862267D01*
X213623719Y-81862267D01*
X213624010Y-81864083D01*
X213628819Y-81870299D01*
X214871603Y-82913118D01*
X214886155Y-82919487D01*
X214887971Y-82919196D01*
X214894187Y-82914387D01*
X215001403Y-82786612D01*
X215004411Y-82782728D01*
X215044539Y-82726471D01*
X215050328Y-82716543D01*
X215123543Y-82559532D01*
X215127816Y-82547122D01*
X215166601Y-82379126D01*
X215168201Y-82366093D01*
X215171212Y-82193714D01*
X215170066Y-82180622D01*
X215137168Y-82011380D01*
X215133331Y-81998831D01*
X215065962Y-81840120D01*
X215059597Y-81828638D01*
X214960238Y-81686738D01*
X214952797Y-81677948D01*
X214903533Y-81629536D01*
X214899872Y-81626210D01*
X214277680Y-81104129D01*
X214263128Y-81097760D01*
X214261312Y-81098051D01*
X214255096Y-81102860D01*
X213630088Y-81847715D01*
X213623719Y-81862267D01*
X212828939Y-81862267D01*
X211649597Y-80872682D01*
X211635045Y-80866313D01*
X211633229Y-80866604D01*
X211627013Y-80871413D01*
X211519797Y-80999188D01*
X211516789Y-81003072D01*
X211476661Y-81059329D01*
X211470872Y-81069257D01*
X211397657Y-81226268D01*
X211393384Y-81238678D01*
X211354599Y-81406674D01*
X211352999Y-81419707D01*
X211349988Y-81592086D01*
X209701419Y-81592086D01*
X210773100Y-80520405D01*
X210835412Y-80486379D01*
X210862195Y-80483500D01*
X211930236Y-80483500D01*
X211998357Y-80503502D01*
X212011227Y-80512978D01*
X213215415Y-81523412D01*
X213229967Y-81529781D01*
X213231783Y-81529490D01*
X213237999Y-81524681D01*
X213863007Y-80779826D01*
X213869376Y-80765274D01*
X213869085Y-80763458D01*
X213864276Y-80757242D01*
X213803235Y-80706022D01*
X213763908Y-80646912D01*
X213762782Y-80575924D01*
X213800213Y-80515597D01*
X213864318Y-80485083D01*
X213884226Y-80483500D01*
X214638219Y-80483500D01*
X214706340Y-80503502D01*
X214745363Y-80543197D01*
X214826522Y-80674348D01*
X214951697Y-80799305D01*
X214957927Y-80803145D01*
X214957928Y-80803146D01*
X215095090Y-80887694D01*
X215102262Y-80892115D01*
X215156636Y-80910150D01*
X215263611Y-80945632D01*
X215263613Y-80945632D01*
X215270139Y-80947797D01*
X215276975Y-80948497D01*
X215276978Y-80948498D01*
X215320031Y-80952909D01*
X215374600Y-80958500D01*
X216375400Y-80958500D01*
X216378646Y-80958163D01*
X216378650Y-80958163D01*
X216474308Y-80948238D01*
X216474312Y-80948237D01*
X216481166Y-80947526D01*
X216487702Y-80945345D01*
X216487704Y-80945345D01*
X216619806Y-80901272D01*
X216648946Y-80891550D01*
X216799348Y-80798478D01*
X216924305Y-80673303D01*
X216948816Y-80633539D01*
X217013275Y-80528968D01*
X217013276Y-80528966D01*
X217017115Y-80522738D01*
X217061105Y-80390111D01*
X217070632Y-80361389D01*
X217070632Y-80361387D01*
X217072797Y-80354861D01*
X217083500Y-80250400D01*
X217083500Y-79449600D01*
X217072526Y-79343834D01*
X217039795Y-79245726D01*
X217018868Y-79183002D01*
X217016550Y-79176054D01*
X216923478Y-79025652D01*
X216836891Y-78939216D01*
X216802812Y-78876934D01*
X216807815Y-78806114D01*
X216836736Y-78761025D01*
X216919134Y-78678483D01*
X216924305Y-78673303D01*
X217017115Y-78522738D01*
X217043564Y-78442995D01*
X217070632Y-78361389D01*
X217070632Y-78361387D01*
X217072797Y-78354861D01*
X217083500Y-78250400D01*
X217083500Y-77449600D01*
X217081620Y-77431480D01*
X217073238Y-77350692D01*
X217073237Y-77350688D01*
X217072526Y-77343834D01*
X217056788Y-77296660D01*
X217018868Y-77183002D01*
X217016550Y-77176054D01*
X216923478Y-77025652D01*
X216798303Y-76900695D01*
X216740686Y-76865179D01*
X216653968Y-76811725D01*
X216653966Y-76811724D01*
X216647738Y-76807885D01*
X216544833Y-76773753D01*
X216486473Y-76733322D01*
X216459236Y-76667758D01*
X216458500Y-76654160D01*
X216458500Y-76234499D01*
X216478502Y-76166378D01*
X216532158Y-76119885D01*
X216584500Y-76108499D01*
X216911842Y-76108499D01*
X216958674Y-76104814D01*
X216983217Y-76102883D01*
X216983220Y-76102883D01*
X216988971Y-76102430D01*
X217168362Y-76054362D01*
X217333839Y-75970047D01*
X217338968Y-75965894D01*
X217338972Y-75965891D01*
X217473039Y-75857325D01*
X217478170Y-75853170D01*
X217534167Y-75784020D01*
X217590891Y-75713972D01*
X217590894Y-75713968D01*
X217595047Y-75708839D01*
X217679362Y-75543362D01*
X217727430Y-75363971D01*
X217732856Y-75295028D01*
X217733307Y-75289300D01*
X217733307Y-75289291D01*
X217733500Y-75286843D01*
X217733499Y-74413158D01*
X217727430Y-74336029D01*
X217679362Y-74156638D01*
X217595047Y-73991161D01*
X217590894Y-73986032D01*
X217590891Y-73986028D01*
X217482325Y-73851961D01*
X217478170Y-73846830D01*
X217426858Y-73805278D01*
X217338972Y-73734109D01*
X217338968Y-73734106D01*
X217333839Y-73729953D01*
X217168362Y-73645638D01*
X217161988Y-73643930D01*
X216994548Y-73599064D01*
X216994544Y-73599063D01*
X216988971Y-73597570D01*
X216972923Y-73596307D01*
X216914300Y-73591693D01*
X216914291Y-73591693D01*
X216911843Y-73591500D01*
X215825441Y-73591500D01*
X214738158Y-73591501D01*
X214691326Y-73595186D01*
X214666783Y-73597117D01*
X214666780Y-73597117D01*
X214661029Y-73597570D01*
X214481638Y-73645638D01*
X214316161Y-73729953D01*
X214311032Y-73734106D01*
X214311028Y-73734109D01*
X214223142Y-73805278D01*
X214171830Y-73846830D01*
X214167675Y-73851961D01*
X214059109Y-73986028D01*
X214059106Y-73986032D01*
X214054953Y-73991161D01*
X213970638Y-74156638D01*
X213968930Y-74163011D01*
X213968930Y-74163012D01*
X213932415Y-74299289D01*
X213922570Y-74336029D01*
X213922117Y-74341783D01*
X213922117Y-74341785D01*
X213916694Y-74410698D01*
X213916500Y-74413157D01*
X213916501Y-75286842D01*
X213922570Y-75363971D01*
X213970638Y-75543362D01*
X214054953Y-75708839D01*
X214059106Y-75713968D01*
X214059109Y-75713972D01*
X214115833Y-75784020D01*
X214171830Y-75853170D01*
X214176961Y-75857325D01*
X214311028Y-75965891D01*
X214311032Y-75965894D01*
X214316161Y-75970047D01*
X214481638Y-76054362D01*
X214488011Y-76056070D01*
X214488012Y-76056070D01*
X214655452Y-76100936D01*
X214655456Y-76100937D01*
X214661029Y-76102430D01*
X214666785Y-76102883D01*
X214735700Y-76108307D01*
X214735709Y-76108307D01*
X214738157Y-76108500D01*
X215065500Y-76108500D01*
X215133621Y-76128502D01*
X215180114Y-76182158D01*
X215191500Y-76234500D01*
X215191500Y-76687484D01*
X215171498Y-76755605D01*
X215117842Y-76802098D01*
X215110126Y-76805137D01*
X215108003Y-76806132D01*
X215101054Y-76808450D01*
X214950652Y-76901522D01*
X214825695Y-77026697D01*
X214732885Y-77177262D01*
X214677203Y-77345139D01*
X214666500Y-77449600D01*
X214666500Y-78250400D01*
X214666837Y-78253646D01*
X214666837Y-78253650D01*
X214676078Y-78342709D01*
X214677474Y-78356166D01*
X214733450Y-78523946D01*
X214826522Y-78674348D01*
X214831704Y-78679521D01*
X214913109Y-78760784D01*
X214947188Y-78823066D01*
X214942185Y-78893886D01*
X214913264Y-78938975D01*
X214888747Y-78963535D01*
X214825695Y-79026697D01*
X214821855Y-79032927D01*
X214821854Y-79032928D01*
X214745611Y-79156616D01*
X214692838Y-79204110D01*
X214638351Y-79216500D01*
X210900495Y-79216500D01*
X210832374Y-79196498D01*
X210785881Y-79142842D01*
X210775777Y-79072568D01*
X210791211Y-79027786D01*
X210822738Y-78972849D01*
X210822745Y-78972836D01*
X210823584Y-78971374D01*
X210839915Y-78938975D01*
X211052608Y-78516998D01*
X211140457Y-78342709D01*
X211179482Y-78253598D01*
X211422187Y-77699386D01*
X211422870Y-77697827D01*
X211669994Y-77038617D01*
X211881108Y-76367007D01*
X211988218Y-75948327D01*
X212055176Y-75686593D01*
X212055593Y-75684963D01*
X212082389Y-75550253D01*
X212125240Y-75334824D01*
X212192938Y-74994482D01*
X212204910Y-74910887D01*
X212292498Y-74299289D01*
X212292499Y-74299277D01*
X212292742Y-74297583D01*
X212305197Y-74156638D01*
X212354563Y-73597998D01*
X212354564Y-73597982D01*
X212354712Y-73596307D01*
X212378668Y-72892705D01*
X212378985Y-72801855D01*
X212360072Y-72102883D01*
X212359988Y-72099797D01*
X212359988Y-72099790D01*
X212359942Y-72098104D01*
X212302869Y-71396412D01*
X212296725Y-71351261D01*
X212208165Y-70700535D01*
X212208163Y-70700522D01*
X212207933Y-70698833D01*
X212196113Y-70637160D01*
X212138396Y-70336029D01*
X212075411Y-70007409D01*
X211905692Y-69324164D01*
X211765618Y-68867430D01*
X211699773Y-68652729D01*
X211699768Y-68652713D01*
X211699272Y-68651097D01*
X211488945Y-68077901D01*
X211457347Y-67991787D01*
X211457344Y-67991780D01*
X211456756Y-67990177D01*
X211445455Y-67963872D01*
X211179522Y-67344897D01*
X211179521Y-67344895D01*
X211178853Y-67343340D01*
X211158445Y-67302137D01*
X210867126Y-66713992D01*
X210867125Y-66713989D01*
X210866376Y-66712478D01*
X210865550Y-66711014D01*
X210865542Y-66711000D01*
X210521078Y-66100921D01*
X210521076Y-66100918D01*
X210520240Y-66099437D01*
X210519330Y-66098012D01*
X210519322Y-66097998D01*
X210142372Y-65507444D01*
X210142362Y-65507429D01*
X210141458Y-65506013D01*
X209731139Y-64933940D01*
X209290483Y-64384894D01*
X208975607Y-64033342D01*
X211384923Y-64033342D01*
X211388164Y-64219033D01*
X211429942Y-64399993D01*
X211508430Y-64568312D01*
X211511786Y-64573017D01*
X211551919Y-64629282D01*
X211551928Y-64629294D01*
X211553357Y-64631297D01*
X212114952Y-65300578D01*
X212116684Y-65302340D01*
X212116688Y-65302345D01*
X212165126Y-65351638D01*
X212165129Y-65351641D01*
X212169178Y-65355761D01*
X212321311Y-65462285D01*
X212359511Y-65478500D01*
X212486189Y-65532272D01*
X212486193Y-65532273D01*
X212492266Y-65534851D01*
X212560742Y-65548161D01*
X212623794Y-65580793D01*
X212659195Y-65642334D01*
X212662700Y-65671846D01*
X212662700Y-68242433D01*
X212662173Y-68253616D01*
X212660498Y-68261109D01*
X212660747Y-68269035D01*
X212660747Y-68269036D01*
X212662638Y-68329186D01*
X212662700Y-68333145D01*
X212662700Y-68361056D01*
X212663197Y-68364990D01*
X212663197Y-68364991D01*
X212663205Y-68365056D01*
X212664138Y-68376893D01*
X212665527Y-68421089D01*
X212671178Y-68440539D01*
X212675187Y-68459900D01*
X212677726Y-68479997D01*
X212680645Y-68487368D01*
X212680645Y-68487370D01*
X212694004Y-68521112D01*
X212697849Y-68532342D01*
X212710182Y-68574793D01*
X212714215Y-68581612D01*
X212714217Y-68581617D01*
X212720493Y-68592228D01*
X212729188Y-68609976D01*
X212736648Y-68628817D01*
X212741310Y-68635233D01*
X212741310Y-68635234D01*
X212762636Y-68664587D01*
X212769152Y-68674507D01*
X212791658Y-68712562D01*
X212805979Y-68726883D01*
X212818819Y-68741916D01*
X212830728Y-68758307D01*
X212864805Y-68786498D01*
X212873584Y-68794488D01*
X213995387Y-69916291D01*
X214029413Y-69978603D01*
X214024348Y-70049418D01*
X214018562Y-70062582D01*
X213970638Y-70156638D01*
X213968930Y-70163011D01*
X213968930Y-70163012D01*
X213928166Y-70315146D01*
X213922570Y-70336029D01*
X213922117Y-70341783D01*
X213922117Y-70341785D01*
X213916694Y-70410698D01*
X213916500Y-70413157D01*
X213916501Y-71286842D01*
X213922570Y-71363971D01*
X213970638Y-71543362D01*
X214054953Y-71708839D01*
X214059106Y-71713968D01*
X214059109Y-71713972D01*
X214166977Y-71847178D01*
X214171830Y-71853170D01*
X214176961Y-71857325D01*
X214311028Y-71965891D01*
X214311032Y-71965894D01*
X214316161Y-71970047D01*
X214481638Y-72054362D01*
X214488011Y-72056070D01*
X214488012Y-72056070D01*
X214655452Y-72100936D01*
X214655456Y-72100937D01*
X214661029Y-72102430D01*
X214666785Y-72102883D01*
X214735700Y-72108307D01*
X214735709Y-72108307D01*
X214738157Y-72108500D01*
X215824559Y-72108500D01*
X216911842Y-72108499D01*
X216958674Y-72104814D01*
X216983217Y-72102883D01*
X216983220Y-72102883D01*
X216988971Y-72102430D01*
X217168362Y-72054362D01*
X217333839Y-71970047D01*
X217338968Y-71965894D01*
X217338972Y-71965891D01*
X217473039Y-71857325D01*
X217478170Y-71853170D01*
X217483023Y-71847178D01*
X217590891Y-71713972D01*
X217590894Y-71713968D01*
X217595047Y-71708839D01*
X217679362Y-71543362D01*
X217700312Y-71465175D01*
X217725936Y-71369548D01*
X217725937Y-71369544D01*
X217727430Y-71363971D01*
X217728562Y-71349589D01*
X217733307Y-71289300D01*
X217733307Y-71289291D01*
X217733500Y-71286843D01*
X217733499Y-70413158D01*
X217727430Y-70336029D01*
X217682339Y-70167748D01*
X217681070Y-70163012D01*
X217681070Y-70163011D01*
X217679362Y-70156638D01*
X217595047Y-69991161D01*
X217590894Y-69986032D01*
X217590891Y-69986028D01*
X217482325Y-69851961D01*
X217478170Y-69846830D01*
X217468777Y-69839224D01*
X217338972Y-69734109D01*
X217338968Y-69734106D01*
X217333839Y-69729953D01*
X217168362Y-69645638D01*
X217161988Y-69643930D01*
X216994548Y-69599064D01*
X216994544Y-69599063D01*
X216988971Y-69597570D01*
X216983215Y-69597117D01*
X216914300Y-69591693D01*
X216914291Y-69591693D01*
X216911843Y-69591500D01*
X216846371Y-69591500D01*
X215514596Y-69591501D01*
X215446475Y-69571499D01*
X215425501Y-69554596D01*
X213966605Y-68095700D01*
X213932579Y-68033388D01*
X213929700Y-68006605D01*
X213929700Y-64909176D01*
X213949702Y-64841055D01*
X213974709Y-64812654D01*
X214272144Y-64563076D01*
X214937667Y-64004636D01*
X214992850Y-63950409D01*
X215099374Y-63798276D01*
X215140221Y-63702047D01*
X215169361Y-63633398D01*
X215169362Y-63633394D01*
X215171940Y-63627321D01*
X215173200Y-63620839D01*
X215206118Y-63451492D01*
X215206118Y-63451490D01*
X215207377Y-63445014D01*
X215204136Y-63259323D01*
X215162358Y-63078363D01*
X215083870Y-62910044D01*
X215069974Y-62890563D01*
X215040381Y-62849074D01*
X215040372Y-62849062D01*
X215038943Y-62847059D01*
X214750133Y-62502869D01*
X214478944Y-62179680D01*
X214477348Y-62177778D01*
X214475612Y-62176011D01*
X214427174Y-62126718D01*
X214427171Y-62126715D01*
X214423122Y-62122595D01*
X214270989Y-62016071D01*
X214213101Y-61991499D01*
X214106111Y-61946084D01*
X214106107Y-61946083D01*
X214100034Y-61943505D01*
X214093552Y-61942245D01*
X213924204Y-61909327D01*
X213924202Y-61909327D01*
X213917726Y-61908068D01*
X213911130Y-61908183D01*
X213911129Y-61908183D01*
X213845592Y-61909327D01*
X213732035Y-61911309D01*
X213551076Y-61953087D01*
X213382757Y-62031575D01*
X213319772Y-62076502D01*
X211654633Y-63473720D01*
X211599450Y-63527947D01*
X211492926Y-63680080D01*
X211490348Y-63686154D01*
X211422939Y-63844958D01*
X211422938Y-63844962D01*
X211420360Y-63851035D01*
X211419100Y-63857517D01*
X211390838Y-64002914D01*
X211384923Y-64033342D01*
X208975607Y-64033342D01*
X208820781Y-63860482D01*
X208323406Y-63362238D01*
X208312488Y-63352424D01*
X207801070Y-62892750D01*
X207799814Y-62891621D01*
X207251538Y-62450008D01*
X206680183Y-62038691D01*
X206669078Y-62031575D01*
X206088834Y-61659780D01*
X206088833Y-61659780D01*
X206087420Y-61658874D01*
X205733578Y-61458272D01*
X205476455Y-61312503D01*
X205474984Y-61311669D01*
X205146508Y-61148254D01*
X204846187Y-60998846D01*
X204846181Y-60998843D01*
X204844669Y-60998091D01*
X204843124Y-60997424D01*
X204843111Y-60997418D01*
X204336486Y-60778707D01*
X204198317Y-60719059D01*
X204196721Y-60718470D01*
X204196713Y-60718467D01*
X203539412Y-60475976D01*
X203539393Y-60475970D01*
X203537822Y-60475390D01*
X203197095Y-60370243D01*
X202866715Y-60268289D01*
X202866700Y-60268285D01*
X202865116Y-60267796D01*
X202549106Y-60188713D01*
X202183820Y-60097298D01*
X202183805Y-60097295D01*
X202182168Y-60096885D01*
X202180494Y-60096561D01*
X202180489Y-60096560D01*
X201492648Y-59963479D01*
X201492637Y-59963477D01*
X201490977Y-59963156D01*
X200793565Y-59867003D01*
X200791868Y-59866862D01*
X200791859Y-59866861D01*
X200093675Y-59808846D01*
X200093662Y-59808845D01*
X200091974Y-59808705D01*
X200090281Y-59808656D01*
X200090277Y-59808656D01*
X199389958Y-59788483D01*
X199388257Y-59788434D01*
X199386558Y-59788477D01*
X198686162Y-59806205D01*
X198686153Y-59806205D01*
X198684473Y-59806248D01*
X198682797Y-59806381D01*
X198682785Y-59806382D01*
X198401039Y-59828804D01*
X197982683Y-59862097D01*
X197981011Y-59862322D01*
X197981007Y-59862322D01*
X197286628Y-59955588D01*
X197286618Y-59955590D01*
X197284940Y-59955815D01*
X197283271Y-59956132D01*
X197283264Y-59956133D01*
X197009000Y-60008204D01*
X196593286Y-60087130D01*
X196555038Y-60096560D01*
X195911378Y-60255253D01*
X195911365Y-60255257D01*
X195909745Y-60255656D01*
X195908135Y-60256147D01*
X195908123Y-60256150D01*
X195526347Y-60372507D01*
X195236319Y-60460901D01*
X194973934Y-60556661D01*
X194576560Y-60701686D01*
X194576551Y-60701689D01*
X194574977Y-60702264D01*
X194573416Y-60702931D01*
X194573412Y-60702933D01*
X194021912Y-60938736D01*
X193927655Y-60979037D01*
X193296249Y-61290413D01*
X192682605Y-61635478D01*
X192088520Y-62013223D01*
X191860721Y-62176011D01*
X191555228Y-62394320D01*
X191515732Y-62422544D01*
X191514416Y-62423597D01*
X191514406Y-62423604D01*
X191308375Y-62588371D01*
X190965918Y-62862240D01*
X190917630Y-62905339D01*
X190513629Y-63265924D01*
X190440687Y-63331027D01*
X190326102Y-63445014D01*
X189970986Y-63798276D01*
X189941576Y-63827532D01*
X189470046Y-64350301D01*
X189027476Y-64897805D01*
X188740866Y-65294471D01*
X188632923Y-65443863D01*
X188615163Y-65468442D01*
X188496119Y-65653517D01*
X188239938Y-66051795D01*
X188234312Y-66060541D01*
X188233472Y-66062017D01*
X188233470Y-66062020D01*
X187886881Y-66670888D01*
X187886872Y-66670905D01*
X187886038Y-66672370D01*
X187571361Y-67302137D01*
X187495988Y-67475898D01*
X187315931Y-67890992D01*
X187291202Y-67948000D01*
X187046380Y-68608069D01*
X187045876Y-68609692D01*
X187045874Y-68609698D01*
X187037945Y-68635234D01*
X186837612Y-69280412D01*
X186837194Y-69282069D01*
X186837192Y-69282077D01*
X186695860Y-69842675D01*
X186665509Y-69963061D01*
X186530575Y-70654018D01*
X186530340Y-70655701D01*
X186441857Y-71289302D01*
X186433204Y-71351261D01*
X186373682Y-72052749D01*
X186373631Y-72054428D01*
X186373630Y-72054440D01*
X186371246Y-72132471D01*
X186355910Y-72634428D01*
X186352182Y-72756430D01*
X186352222Y-72758127D01*
X186352222Y-72758129D01*
X186353253Y-72801855D01*
X186368769Y-73460243D01*
X186368899Y-73461919D01*
X186368900Y-73461930D01*
X186379572Y-73599064D01*
X186423392Y-74162130D01*
X186423616Y-74163816D01*
X186423616Y-74163821D01*
X186456991Y-74415629D01*
X186515893Y-74860036D01*
X186646000Y-75551918D01*
X186646401Y-75553559D01*
X186646405Y-75553575D01*
X186800219Y-76182158D01*
X186813333Y-76235751D01*
X186852587Y-76365358D01*
X187016545Y-76906704D01*
X187017402Y-76909535D01*
X187107245Y-77157047D01*
X187257028Y-77569695D01*
X187257034Y-77569711D01*
X187257610Y-77571297D01*
X187258272Y-77572852D01*
X187258276Y-77572863D01*
X187522597Y-78194056D01*
X187533254Y-78219101D01*
X187533996Y-78220612D01*
X187830433Y-78824382D01*
X187843526Y-78851050D01*
X188187520Y-79465295D01*
X188564228Y-80060038D01*
X188972548Y-80633539D01*
X189411284Y-81184120D01*
X189412412Y-81185389D01*
X189412416Y-81185393D01*
X189636469Y-81437306D01*
X189879154Y-81710168D01*
X189996595Y-81828638D01*
X190373580Y-82208928D01*
X190373591Y-82208938D01*
X190374787Y-82210145D01*
X190376061Y-82211298D01*
X190895451Y-82681428D01*
X190895462Y-82681437D01*
X190896732Y-82682587D01*
X190898064Y-82683667D01*
X190898068Y-82683671D01*
X191437655Y-83121400D01*
X191443463Y-83126112D01*
X191444822Y-83127098D01*
X191444833Y-83127106D01*
X191801527Y-83385784D01*
X192013379Y-83539421D01*
X192399115Y-83788488D01*
X192603386Y-83920384D01*
X192603397Y-83920390D01*
X192604813Y-83921305D01*
X192606285Y-83922146D01*
X192606296Y-83922153D01*
X192958134Y-84123244D01*
X193216033Y-84270645D01*
X193217558Y-84271410D01*
X193217563Y-84271413D01*
X193843723Y-84585655D01*
X193843733Y-84585660D01*
X193845250Y-84586421D01*
X194490623Y-84867707D01*
X194492210Y-84868299D01*
X194492218Y-84868302D01*
X194623954Y-84917425D01*
X195150264Y-85113681D01*
X195822241Y-85323622D01*
X196504588Y-85496916D01*
X196506235Y-85497241D01*
X196506250Y-85497244D01*
X197193638Y-85632727D01*
X197193650Y-85632729D01*
X197195309Y-85633056D01*
X197892381Y-85731644D01*
X198593764Y-85792390D01*
X198595450Y-85792444D01*
X198595459Y-85792445D01*
X199295702Y-85815063D01*
X199295703Y-85815063D01*
X199297406Y-85815118D01*
X199299102Y-85815081D01*
X199299104Y-85815081D01*
X199999526Y-85799798D01*
X199999542Y-85799797D01*
X200001248Y-85799760D01*
X200475220Y-85763705D01*
X200701522Y-85746491D01*
X200701527Y-85746490D01*
X200703229Y-85746361D01*
X200905121Y-85719961D01*
X201399593Y-85655302D01*
X201399609Y-85655299D01*
X201401295Y-85655079D01*
X201478727Y-85640658D01*
X202091728Y-85526491D01*
X202091730Y-85526491D01*
X202093403Y-85526179D01*
X202777527Y-85360040D01*
X203451666Y-85157147D01*
X203453257Y-85156573D01*
X203453265Y-85156570D01*
X204112241Y-84918675D01*
X204112248Y-84918672D01*
X204113847Y-84918095D01*
X204115420Y-84917429D01*
X204115430Y-84917425D01*
X204333093Y-84825256D01*
X204403621Y-84817112D01*
X204467356Y-84848392D01*
X204504062Y-84909163D01*
X204502085Y-84980132D01*
X204471319Y-85030377D01*
X202995536Y-86506159D01*
X201568847Y-87932848D01*
X201560561Y-87940388D01*
X201554082Y-87944500D01*
X201548657Y-87950277D01*
X201507457Y-87994151D01*
X201504702Y-87996993D01*
X201484965Y-88016730D01*
X201482485Y-88019927D01*
X201474783Y-88028945D01*
X201450548Y-88054754D01*
X201389337Y-88090719D01*
X201318397Y-88087882D01*
X201260252Y-88047142D01*
X201244503Y-88021751D01*
X201185952Y-87896187D01*
X201185952Y-87896186D01*
X201183162Y-87890204D01*
X201179191Y-87884934D01*
X201179189Y-87884931D01*
X201075365Y-87747154D01*
X201071393Y-87741883D01*
X201000378Y-87680150D01*
X200936209Y-87624369D01*
X200931229Y-87620040D01*
X200768795Y-87530001D01*
X200762479Y-87528070D01*
X200597505Y-87477632D01*
X200597502Y-87477631D01*
X200591191Y-87475702D01*
X200551682Y-87472245D01*
X200411931Y-87460018D01*
X200411927Y-87460018D01*
X200406178Y-87459515D01*
X200329168Y-87466930D01*
X199468756Y-87618645D01*
X199466364Y-87619264D01*
X199466362Y-87619264D01*
X199422388Y-87630635D01*
X199351429Y-87628325D01*
X199301748Y-87597743D01*
X199211752Y-87507747D01*
X199204212Y-87499461D01*
X199200100Y-87492982D01*
X199150448Y-87446356D01*
X199147607Y-87443602D01*
X199127870Y-87423865D01*
X199124673Y-87421385D01*
X199115651Y-87413680D01*
X199083421Y-87383414D01*
X199076475Y-87379595D01*
X199076472Y-87379593D01*
X199065666Y-87373652D01*
X199049147Y-87362801D01*
X199048683Y-87362441D01*
X199033141Y-87350386D01*
X199025872Y-87347241D01*
X199025868Y-87347238D01*
X198992563Y-87332826D01*
X198981913Y-87327609D01*
X198943160Y-87306305D01*
X198923537Y-87301267D01*
X198904834Y-87294863D01*
X198893520Y-87289967D01*
X198893519Y-87289967D01*
X198886245Y-87286819D01*
X198878422Y-87285580D01*
X198878412Y-87285577D01*
X198842576Y-87279901D01*
X198830956Y-87277495D01*
X198795811Y-87268472D01*
X198795810Y-87268472D01*
X198788130Y-87266500D01*
X198767876Y-87266500D01*
X198748165Y-87264949D01*
X198735986Y-87263020D01*
X198728157Y-87261780D01*
X198720265Y-87262526D01*
X198684139Y-87265941D01*
X198672281Y-87266500D01*
X194381318Y-87266500D01*
X194313197Y-87246498D01*
X194266704Y-87192842D01*
X194257002Y-87153253D01*
X194256509Y-87153331D01*
X194255574Y-87147425D01*
X194255573Y-87147420D01*
X194227456Y-86969898D01*
X194175830Y-86835408D01*
X194163268Y-86802682D01*
X194163267Y-86802679D01*
X194160900Y-86796514D01*
X194155418Y-86788073D01*
X194063346Y-86646293D01*
X194063345Y-86646291D01*
X194059750Y-86640756D01*
X193928427Y-86509433D01*
X193864667Y-86465612D01*
X193122082Y-86036881D01*
X193110186Y-86030013D01*
X193110185Y-86030013D01*
X193108033Y-86028770D01*
X193105786Y-86027698D01*
X193043424Y-85997952D01*
X193043421Y-85997951D01*
X193038203Y-85995462D01*
X192927112Y-85965695D01*
X192865187Y-85949102D01*
X192865185Y-85949102D01*
X192858812Y-85947394D01*
X192852222Y-85947049D01*
X192852218Y-85947048D01*
X192679939Y-85938020D01*
X192679935Y-85938020D01*
X192673347Y-85937675D01*
X192666832Y-85938707D01*
X192666830Y-85938707D01*
X192496435Y-85965695D01*
X192496433Y-85965695D01*
X192489914Y-85966728D01*
X192483747Y-85969095D01*
X192483748Y-85969095D01*
X192322698Y-86030916D01*
X192322695Y-86030917D01*
X192316530Y-86033284D01*
X192160773Y-86134433D01*
X192029449Y-86265757D01*
X192026178Y-86270516D01*
X192026175Y-86270520D01*
X191997805Y-86311799D01*
X191985629Y-86329516D01*
X190898787Y-88211983D01*
X190865478Y-88281813D01*
X190847967Y-88347165D01*
X190820235Y-88450667D01*
X190817411Y-88461205D01*
X190817066Y-88467797D01*
X190817065Y-88467800D01*
X190810777Y-88587791D01*
X190807691Y-88646669D01*
X190808723Y-88653184D01*
X190808723Y-88653186D01*
X190815964Y-88698904D01*
X190836744Y-88830102D01*
X190903300Y-89003486D01*
X190906897Y-89009025D01*
X190952765Y-89079655D01*
X191004450Y-89159244D01*
X191135773Y-89290567D01*
X191199533Y-89334388D01*
X191233677Y-89354101D01*
X191948349Y-89766716D01*
X191956167Y-89771230D01*
X191958410Y-89772300D01*
X191958414Y-89772302D01*
X192020776Y-89802048D01*
X192020779Y-89802049D01*
X192025997Y-89804538D01*
X192100783Y-89824577D01*
X192199013Y-89850898D01*
X192199015Y-89850898D01*
X192205388Y-89852606D01*
X192211978Y-89852951D01*
X192211982Y-89852952D01*
X192384261Y-89861980D01*
X192384265Y-89861980D01*
X192390853Y-89862325D01*
X192397368Y-89861293D01*
X192397370Y-89861293D01*
X192567765Y-89834305D01*
X192567767Y-89834305D01*
X192574286Y-89833272D01*
X192645243Y-89806034D01*
X192741502Y-89769084D01*
X192741505Y-89769083D01*
X192747670Y-89766716D01*
X192843352Y-89704580D01*
X192897890Y-89669163D01*
X192897892Y-89669162D01*
X192903427Y-89665567D01*
X193034751Y-89534243D01*
X193038022Y-89529484D01*
X193038025Y-89529480D01*
X193077164Y-89472531D01*
X193078571Y-89470484D01*
X193338891Y-89019596D01*
X193583166Y-88596500D01*
X193634548Y-88547507D01*
X193692285Y-88533500D01*
X198393506Y-88533500D01*
X198461627Y-88553502D01*
X198482601Y-88570405D01*
X198842578Y-88930382D01*
X198877569Y-88997597D01*
X199067649Y-90075588D01*
X199059780Y-90146147D01*
X199015013Y-90201251D01*
X198947561Y-90223405D01*
X198878840Y-90205574D01*
X198854468Y-90186563D01*
X198725252Y-90057347D01*
X198717712Y-90049061D01*
X198713600Y-90042582D01*
X198688438Y-90018953D01*
X198663949Y-89995957D01*
X198661107Y-89993202D01*
X198641370Y-89973465D01*
X198638173Y-89970985D01*
X198629151Y-89963280D01*
X198615722Y-89950669D01*
X198596921Y-89933014D01*
X198589975Y-89929195D01*
X198589972Y-89929193D01*
X198579166Y-89923252D01*
X198562647Y-89912401D01*
X198562183Y-89912041D01*
X198546641Y-89899986D01*
X198539372Y-89896841D01*
X198539368Y-89896838D01*
X198506063Y-89882426D01*
X198495413Y-89877209D01*
X198456660Y-89855905D01*
X198437037Y-89850867D01*
X198418334Y-89844463D01*
X198407020Y-89839567D01*
X198407019Y-89839567D01*
X198399745Y-89836419D01*
X198391922Y-89835180D01*
X198391912Y-89835177D01*
X198356076Y-89829501D01*
X198344456Y-89827095D01*
X198309311Y-89818072D01*
X198309310Y-89818072D01*
X198301630Y-89816100D01*
X198281376Y-89816100D01*
X198261665Y-89814549D01*
X198249486Y-89812620D01*
X198241657Y-89811380D01*
X198212386Y-89814147D01*
X198197639Y-89815541D01*
X198185781Y-89816100D01*
X193501467Y-89816100D01*
X193490284Y-89815573D01*
X193482791Y-89813898D01*
X193474865Y-89814147D01*
X193474864Y-89814147D01*
X193414701Y-89816038D01*
X193410743Y-89816100D01*
X193382844Y-89816100D01*
X193378854Y-89816604D01*
X193367020Y-89817536D01*
X193322811Y-89818926D01*
X193315197Y-89821138D01*
X193315192Y-89821139D01*
X193303359Y-89824577D01*
X193283996Y-89828588D01*
X193263903Y-89831126D01*
X193256536Y-89834043D01*
X193256531Y-89834044D01*
X193222792Y-89847402D01*
X193211565Y-89851246D01*
X193205694Y-89852952D01*
X193169107Y-89863582D01*
X193162281Y-89867619D01*
X193151672Y-89873893D01*
X193133924Y-89882588D01*
X193115083Y-89890048D01*
X193108667Y-89894710D01*
X193108666Y-89894710D01*
X193079313Y-89916036D01*
X193069393Y-89922552D01*
X193038165Y-89941020D01*
X193038162Y-89941022D01*
X193031338Y-89945058D01*
X193017017Y-89959379D01*
X193001984Y-89972219D01*
X192985593Y-89984128D01*
X192961869Y-90012806D01*
X192957412Y-90018193D01*
X192949422Y-90026974D01*
X192442842Y-90533553D01*
X192434563Y-90541087D01*
X192428082Y-90545200D01*
X192381457Y-90594851D01*
X192378702Y-90597693D01*
X192358965Y-90617430D01*
X192356485Y-90620627D01*
X192348782Y-90629647D01*
X192318514Y-90661879D01*
X192314695Y-90668825D01*
X192314693Y-90668828D01*
X192308752Y-90679634D01*
X192297901Y-90696153D01*
X192285486Y-90712159D01*
X192282341Y-90719428D01*
X192282338Y-90719432D01*
X192267926Y-90752737D01*
X192262709Y-90763387D01*
X192241405Y-90802140D01*
X192239434Y-90809815D01*
X192239434Y-90809816D01*
X192236367Y-90821762D01*
X192229963Y-90840466D01*
X192226294Y-90848946D01*
X192221919Y-90859055D01*
X192220680Y-90866880D01*
X192220679Y-90866882D01*
X192217776Y-90885211D01*
X192187363Y-90949364D01*
X192127095Y-90986891D01*
X192093327Y-90991500D01*
X189443974Y-90991500D01*
X189375853Y-90971498D01*
X189329360Y-90917842D01*
X189319256Y-90847568D01*
X189324381Y-90825833D01*
X189370632Y-90686389D01*
X189370632Y-90686387D01*
X189372797Y-90679861D01*
X189373566Y-90672361D01*
X189383172Y-90578598D01*
X189383500Y-90575400D01*
X189383500Y-89914594D01*
X189403502Y-89846473D01*
X189420405Y-89825499D01*
X189460247Y-89785657D01*
X189468537Y-89778113D01*
X189475018Y-89774000D01*
X189521659Y-89724332D01*
X189524413Y-89721491D01*
X189544135Y-89701769D01*
X189546619Y-89698567D01*
X189554317Y-89689555D01*
X189579161Y-89663098D01*
X189584586Y-89657321D01*
X189594347Y-89639566D01*
X189605198Y-89623047D01*
X189617614Y-89607041D01*
X189629534Y-89579495D01*
X189635174Y-89566463D01*
X189640391Y-89555813D01*
X189661695Y-89517060D01*
X189666733Y-89497437D01*
X189673137Y-89478734D01*
X189678033Y-89467420D01*
X189678033Y-89467419D01*
X189681181Y-89460145D01*
X189682420Y-89452322D01*
X189682423Y-89452312D01*
X189688099Y-89416476D01*
X189690505Y-89404856D01*
X189699528Y-89369711D01*
X189699528Y-89369710D01*
X189701500Y-89362030D01*
X189701500Y-89341776D01*
X189703051Y-89322065D01*
X189704980Y-89309886D01*
X189706220Y-89302057D01*
X189702059Y-89258038D01*
X189701500Y-89246181D01*
X189701500Y-87353503D01*
X189718381Y-87290503D01*
X190701311Y-85588017D01*
X190734620Y-85518187D01*
X190782687Y-85338795D01*
X190783460Y-85324047D01*
X190792062Y-85159923D01*
X190792062Y-85159918D01*
X190792407Y-85153331D01*
X190786209Y-85114195D01*
X190764387Y-84976419D01*
X190764387Y-84976417D01*
X190763354Y-84969898D01*
X190724355Y-84868302D01*
X190699166Y-84802682D01*
X190699165Y-84802679D01*
X190696798Y-84796514D01*
X190671795Y-84758013D01*
X190599244Y-84646293D01*
X190599243Y-84646291D01*
X190595648Y-84640756D01*
X190464325Y-84509433D01*
X190400565Y-84465612D01*
X189657980Y-84036881D01*
X189646084Y-84030013D01*
X189646083Y-84030013D01*
X189643931Y-84028770D01*
X189641684Y-84027698D01*
X189579322Y-83997952D01*
X189579319Y-83997951D01*
X189574101Y-83995462D01*
X189450325Y-83962296D01*
X189401085Y-83949102D01*
X189401083Y-83949102D01*
X189394710Y-83947394D01*
X189388120Y-83947049D01*
X189388116Y-83947048D01*
X189215837Y-83938020D01*
X189215833Y-83938020D01*
X189209245Y-83937675D01*
X189202730Y-83938707D01*
X189202728Y-83938707D01*
X189032333Y-83965695D01*
X189032331Y-83965695D01*
X189025812Y-83966728D01*
X189019645Y-83969095D01*
X189019646Y-83969095D01*
X188858596Y-84030916D01*
X188858593Y-84030917D01*
X188852428Y-84033284D01*
X188846889Y-84036881D01*
X188713901Y-84123244D01*
X188696671Y-84134433D01*
X188565347Y-84265757D01*
X188562076Y-84270516D01*
X188562073Y-84270520D01*
X188544381Y-84296263D01*
X188521527Y-84329516D01*
X187434685Y-86211983D01*
X187401376Y-86281813D01*
X187353309Y-86461205D01*
X187352964Y-86467797D01*
X187352963Y-86467800D01*
X187344144Y-86636085D01*
X187343589Y-86646669D01*
X187344621Y-86653184D01*
X187344621Y-86653186D01*
X187366199Y-86789423D01*
X187372642Y-86830102D01*
X187375009Y-86836268D01*
X187426305Y-86969898D01*
X187439198Y-87003486D01*
X187442795Y-87009025D01*
X187532673Y-87147425D01*
X187540348Y-87159244D01*
X187671671Y-87290567D01*
X187735431Y-87334388D01*
X188070899Y-87528070D01*
X188371500Y-87701622D01*
X188420493Y-87753004D01*
X188434500Y-87810741D01*
X188434500Y-88940500D01*
X188414498Y-89008621D01*
X188360842Y-89055114D01*
X188308500Y-89066500D01*
X187674600Y-89066500D01*
X187671354Y-89066837D01*
X187671350Y-89066837D01*
X187575692Y-89076762D01*
X187575688Y-89076763D01*
X187568834Y-89077474D01*
X187562298Y-89079655D01*
X187562296Y-89079655D01*
X187474288Y-89109017D01*
X187401054Y-89133450D01*
X187250652Y-89226522D01*
X187245479Y-89231704D01*
X187194682Y-89282590D01*
X187125695Y-89351697D01*
X187121855Y-89357927D01*
X187121854Y-89357928D01*
X187041779Y-89487834D01*
X187032885Y-89502262D01*
X187020921Y-89538333D01*
X186981455Y-89657321D01*
X186977203Y-89670139D01*
X186976503Y-89676975D01*
X186976502Y-89676978D01*
X186974770Y-89693884D01*
X186966500Y-89774600D01*
X186966500Y-90575400D01*
X186966837Y-90578646D01*
X186966837Y-90578650D01*
X186976761Y-90674291D01*
X186977474Y-90681166D01*
X186979655Y-90687702D01*
X186979655Y-90687704D01*
X187017834Y-90802140D01*
X187033450Y-90848946D01*
X187126522Y-90999348D01*
X187131704Y-91004521D01*
X187213109Y-91085784D01*
X187247188Y-91148066D01*
X187242185Y-91218886D01*
X187213264Y-91263975D01*
X187125695Y-91351697D01*
X187121855Y-91357927D01*
X187121854Y-91357928D01*
X187045611Y-91481616D01*
X186992838Y-91529110D01*
X186938351Y-91541500D01*
X182664595Y-91541500D01*
X182596474Y-91521498D01*
X182575499Y-91504595D01*
X182145404Y-91074499D01*
X182111379Y-91012187D01*
X182108500Y-90985404D01*
X182108500Y-89903850D01*
X182128502Y-89835729D01*
X182182158Y-89789236D01*
X182252432Y-89779132D01*
X182317012Y-89808626D01*
X182327684Y-89819040D01*
X182368062Y-89863415D01*
X182371351Y-89866165D01*
X182590553Y-90049447D01*
X182590558Y-90049451D01*
X182593845Y-90052199D01*
X182659595Y-90093444D01*
X182839520Y-90206311D01*
X182839524Y-90206313D01*
X182843160Y-90208594D01*
X182956544Y-90259789D01*
X183107481Y-90327940D01*
X183107485Y-90327942D01*
X183111393Y-90329706D01*
X183115512Y-90330926D01*
X183389468Y-90412076D01*
X183389473Y-90412077D01*
X183393581Y-90413294D01*
X183397815Y-90413942D01*
X183397820Y-90413943D01*
X183680261Y-90457162D01*
X183680263Y-90457162D01*
X183684503Y-90457811D01*
X183834316Y-90460165D01*
X183974484Y-90462367D01*
X183974490Y-90462367D01*
X183978775Y-90462434D01*
X184270952Y-90427077D01*
X184423651Y-90387017D01*
X184551483Y-90353481D01*
X184551484Y-90353481D01*
X184555626Y-90352394D01*
X184827532Y-90239767D01*
X185081636Y-90091280D01*
X185313238Y-89909682D01*
X185317929Y-89904842D01*
X185494236Y-89722905D01*
X185518050Y-89698331D01*
X185692285Y-89461140D01*
X185707244Y-89433589D01*
X185830666Y-89206273D01*
X185830667Y-89206271D01*
X185832716Y-89202497D01*
X185936747Y-88927188D01*
X185991292Y-88689032D01*
X186001493Y-88644492D01*
X186001494Y-88644488D01*
X186002451Y-88640308D01*
X186004102Y-88621817D01*
X186028393Y-88349631D01*
X186028393Y-88349629D01*
X186028613Y-88347165D01*
X186029088Y-88301855D01*
X186023113Y-88214210D01*
X186009363Y-88012505D01*
X186009362Y-88012499D01*
X186009071Y-88008228D01*
X185949389Y-87720035D01*
X185851147Y-87442608D01*
X185716162Y-87181081D01*
X185705991Y-87166608D01*
X185549400Y-86943803D01*
X185549399Y-86943802D01*
X185546933Y-86940293D01*
X185346592Y-86724699D01*
X185324480Y-86706600D01*
X185122162Y-86541006D01*
X185118844Y-86538290D01*
X184867905Y-86384515D01*
X184849250Y-86376326D01*
X184602346Y-86267942D01*
X184602342Y-86267941D01*
X184598418Y-86266218D01*
X184315370Y-86185590D01*
X184311128Y-86184986D01*
X184311122Y-86184985D01*
X184028249Y-86144726D01*
X184023998Y-86144121D01*
X183868850Y-86143309D01*
X183733980Y-86142602D01*
X183733974Y-86142602D01*
X183729694Y-86142580D01*
X183725450Y-86143139D01*
X183725446Y-86143139D01*
X183596885Y-86160065D01*
X183437904Y-86180995D01*
X183433764Y-86182128D01*
X183433762Y-86182128D01*
X183416805Y-86186767D01*
X183154027Y-86258655D01*
X183099734Y-86281813D01*
X182887258Y-86372441D01*
X182887251Y-86372445D01*
X182883316Y-86374123D01*
X182748466Y-86454829D01*
X182634462Y-86523059D01*
X182634458Y-86523062D01*
X182630780Y-86525263D01*
X182401093Y-86709277D01*
X182362285Y-86750172D01*
X182325897Y-86788517D01*
X182264497Y-86824161D01*
X182193573Y-86820952D01*
X182135643Y-86779908D01*
X182109099Y-86714060D01*
X182108500Y-86701784D01*
X182108500Y-85654197D01*
X182128502Y-85586076D01*
X182182158Y-85539583D01*
X182194623Y-85534674D01*
X182242002Y-85518867D01*
X182242004Y-85518866D01*
X182248946Y-85516550D01*
X182399348Y-85423478D01*
X182524305Y-85298303D01*
X182528146Y-85292072D01*
X182613275Y-85153968D01*
X182613276Y-85153966D01*
X182617115Y-85147738D01*
X182672797Y-84979861D01*
X182683500Y-84875400D01*
X182683500Y-84074600D01*
X182680042Y-84041272D01*
X182673238Y-83975692D01*
X182673237Y-83975688D01*
X182672526Y-83968834D01*
X182616550Y-83801054D01*
X182523478Y-83650652D01*
X182436891Y-83564216D01*
X182402812Y-83501934D01*
X182407815Y-83431114D01*
X182436736Y-83386025D01*
X182519134Y-83303483D01*
X182524305Y-83298303D01*
X182565549Y-83231393D01*
X182613275Y-83153968D01*
X182613276Y-83153966D01*
X182617115Y-83147738D01*
X182625851Y-83121400D01*
X182666281Y-83063040D01*
X182681311Y-83052609D01*
X182684536Y-83050702D01*
X182702276Y-83042012D01*
X182721117Y-83034552D01*
X182740423Y-83020526D01*
X182756887Y-83008564D01*
X182766807Y-83002048D01*
X182798035Y-82983580D01*
X182798038Y-82983578D01*
X182804862Y-82979542D01*
X182819183Y-82965221D01*
X182834217Y-82952380D01*
X182844194Y-82945131D01*
X182850607Y-82940472D01*
X182855657Y-82934368D01*
X182855662Y-82934363D01*
X182878793Y-82906402D01*
X182886783Y-82897621D01*
X183801348Y-81983057D01*
X183856770Y-81950736D01*
X183881796Y-81943795D01*
X183918215Y-81933695D01*
X185960810Y-81190250D01*
X185998559Y-81173048D01*
X186025957Y-81160563D01*
X186025960Y-81160561D01*
X186031212Y-81158168D01*
X186183344Y-81051643D01*
X186310005Y-80915817D01*
X186323193Y-80893868D01*
X186402255Y-80762287D01*
X186402257Y-80762282D01*
X186405657Y-80756624D01*
X186466121Y-80581023D01*
X186469607Y-80552637D01*
X186487950Y-80403241D01*
X186488755Y-80396688D01*
X186486301Y-80368629D01*
X186473073Y-80217432D01*
X186473072Y-80217428D01*
X186472569Y-80211675D01*
X186451893Y-80137123D01*
X186247900Y-79576657D01*
X186153921Y-79318452D01*
X186153920Y-79318449D01*
X186153075Y-79316128D01*
X186120992Y-79245726D01*
X186014468Y-79093594D01*
X186009647Y-79089099D01*
X186009645Y-79089096D01*
X185883466Y-78971433D01*
X185883464Y-78971431D01*
X185878641Y-78966934D01*
X185719448Y-78871281D01*
X185713205Y-78869131D01*
X185713202Y-78869130D01*
X185550094Y-78812968D01*
X185543847Y-78810817D01*
X185537295Y-78810013D01*
X185537293Y-78810012D01*
X185450091Y-78799305D01*
X185359512Y-78788183D01*
X185352939Y-78788758D01*
X185352935Y-78788758D01*
X185180257Y-78803865D01*
X185180253Y-78803866D01*
X185174500Y-78804369D01*
X185168931Y-78805913D01*
X185168928Y-78805914D01*
X185151250Y-78810817D01*
X185099947Y-78825045D01*
X183057352Y-79568490D01*
X183019603Y-79585692D01*
X182992205Y-79598177D01*
X182992202Y-79598179D01*
X182986950Y-79600572D01*
X182834818Y-79707097D01*
X182708157Y-79842923D01*
X182704752Y-79848590D01*
X182615907Y-79996453D01*
X182615905Y-79996458D01*
X182612505Y-80002116D01*
X182552041Y-80177717D01*
X182551237Y-80184269D01*
X182551236Y-80184271D01*
X182543511Y-80247183D01*
X182529407Y-80362052D01*
X182529982Y-80368625D01*
X182529982Y-80368629D01*
X182545089Y-80541308D01*
X182545593Y-80547065D01*
X182566269Y-80621617D01*
X182751980Y-81131851D01*
X182753549Y-81136163D01*
X182758052Y-81207017D01*
X182724243Y-81268353D01*
X182511168Y-81481428D01*
X182448856Y-81515454D01*
X182378041Y-81510389D01*
X182355965Y-81499598D01*
X182247738Y-81432885D01*
X182087254Y-81379655D01*
X182086389Y-81379368D01*
X182086387Y-81379368D01*
X182079861Y-81377203D01*
X182073025Y-81376503D01*
X182073022Y-81376502D01*
X182029969Y-81372091D01*
X181975400Y-81366500D01*
X180974600Y-81366500D01*
X180971354Y-81366837D01*
X180971350Y-81366837D01*
X180875692Y-81376762D01*
X180875688Y-81376763D01*
X180868834Y-81377474D01*
X180862298Y-81379655D01*
X180862296Y-81379655D01*
X180781311Y-81406674D01*
X180701054Y-81433450D01*
X180550652Y-81526522D01*
X180425695Y-81651697D01*
X180421855Y-81657927D01*
X180421854Y-81657928D01*
X180409514Y-81677948D01*
X180332885Y-81802262D01*
X180330581Y-81809209D01*
X180283639Y-81950736D01*
X180277203Y-81970139D01*
X180266500Y-82074600D01*
X180266500Y-82875400D01*
X180266837Y-82878646D01*
X180266837Y-82878650D01*
X180275820Y-82965221D01*
X180277474Y-82981166D01*
X180279655Y-82987702D01*
X180279655Y-82987704D01*
X180300673Y-83050702D01*
X180333450Y-83148946D01*
X180426522Y-83299348D01*
X180431704Y-83304521D01*
X180513109Y-83385784D01*
X180547188Y-83448066D01*
X180542185Y-83518886D01*
X180513264Y-83563975D01*
X180480578Y-83596718D01*
X180425695Y-83651697D01*
X180421855Y-83657927D01*
X180421854Y-83657928D01*
X180381500Y-83723395D01*
X180332885Y-83802262D01*
X180330581Y-83809209D01*
X180284181Y-83949102D01*
X180277203Y-83970139D01*
X180276503Y-83976975D01*
X180276502Y-83976978D01*
X180274762Y-83993966D01*
X180266500Y-84074600D01*
X180266500Y-84875400D01*
X180266837Y-84878646D01*
X180266837Y-84878650D01*
X180276305Y-84969898D01*
X180277474Y-84981166D01*
X180279655Y-84987702D01*
X180279655Y-84987704D01*
X180293892Y-85030377D01*
X180333450Y-85148946D01*
X180426522Y-85299348D01*
X180551697Y-85424305D01*
X180557927Y-85428145D01*
X180557928Y-85428146D01*
X180694954Y-85512610D01*
X180702262Y-85517115D01*
X180755168Y-85534663D01*
X180813527Y-85575094D01*
X180840764Y-85640658D01*
X180841500Y-85654256D01*
X180841500Y-91221233D01*
X180840973Y-91232416D01*
X180839298Y-91239909D01*
X180839547Y-91247835D01*
X180839547Y-91247836D01*
X180841438Y-91307986D01*
X180841500Y-91311945D01*
X180841500Y-91339856D01*
X180841997Y-91343790D01*
X180841997Y-91343791D01*
X180842005Y-91343856D01*
X180842938Y-91355693D01*
X180844327Y-91399889D01*
X180849978Y-91419339D01*
X180853987Y-91438700D01*
X180856526Y-91458797D01*
X180859445Y-91466168D01*
X180859445Y-91466170D01*
X180872804Y-91499912D01*
X180876649Y-91511142D01*
X180888982Y-91553593D01*
X180893015Y-91560412D01*
X180893017Y-91560417D01*
X180899293Y-91571028D01*
X180907988Y-91588776D01*
X180915448Y-91607617D01*
X180920110Y-91614033D01*
X180920110Y-91614034D01*
X180941436Y-91643387D01*
X180947952Y-91653307D01*
X180965103Y-91682307D01*
X180970458Y-91691362D01*
X180984779Y-91705683D01*
X180997619Y-91720716D01*
X181009528Y-91737107D01*
X181015633Y-91742158D01*
X181015638Y-91742163D01*
X181043604Y-91765299D01*
X181052382Y-91773287D01*
X181846348Y-92567253D01*
X181853888Y-92575539D01*
X181858000Y-92582018D01*
X181863777Y-92587443D01*
X181907651Y-92628643D01*
X181910493Y-92631398D01*
X181930230Y-92651135D01*
X181933427Y-92653615D01*
X181942447Y-92661318D01*
X181974679Y-92691586D01*
X181981625Y-92695405D01*
X181981628Y-92695407D01*
X181992434Y-92701348D01*
X182008953Y-92712199D01*
X182024959Y-92724614D01*
X182032228Y-92727759D01*
X182032232Y-92727762D01*
X182065537Y-92742174D01*
X182076187Y-92747391D01*
X182114940Y-92768695D01*
X182122615Y-92770666D01*
X182122616Y-92770666D01*
X182134562Y-92773733D01*
X182153267Y-92780137D01*
X182171855Y-92788181D01*
X182179678Y-92789420D01*
X182179688Y-92789423D01*
X182215524Y-92795099D01*
X182227144Y-92797505D01*
X182262289Y-92806528D01*
X182269970Y-92808500D01*
X182290224Y-92808500D01*
X182309934Y-92810051D01*
X182329943Y-92813220D01*
X182337835Y-92812474D01*
X182373961Y-92809059D01*
X182385819Y-92808500D01*
X186938219Y-92808500D01*
X187006340Y-92828502D01*
X187045363Y-92868197D01*
X187126522Y-92999348D01*
X187251697Y-93124305D01*
X187385284Y-93206649D01*
X187390874Y-93210095D01*
X187438367Y-93262867D01*
X187449791Y-93332939D01*
X187421517Y-93398063D01*
X187362523Y-93437562D01*
X187324758Y-93443355D01*
X180264900Y-93443355D01*
X180245517Y-93441855D01*
X180230683Y-93439545D01*
X180230679Y-93439545D01*
X180221809Y-93438164D01*
X180206553Y-93440159D01*
X180181230Y-93440902D01*
X180163412Y-93439628D01*
X180134516Y-93437562D01*
X180012261Y-93428821D01*
X179994467Y-93426263D01*
X179804132Y-93384861D01*
X179786882Y-93379796D01*
X179604388Y-93311731D01*
X179588035Y-93304263D01*
X179417079Y-93210916D01*
X179401955Y-93201197D01*
X179246019Y-93084466D01*
X179232432Y-93072693D01*
X179094707Y-92934969D01*
X179082933Y-92921381D01*
X178966202Y-92765445D01*
X178956483Y-92750321D01*
X178863136Y-92579365D01*
X178855668Y-92563012D01*
X178787603Y-92380516D01*
X178782538Y-92363266D01*
X178741137Y-92172934D01*
X178738579Y-92155139D01*
X178727005Y-91993264D01*
X178727753Y-91975285D01*
X178727854Y-91967012D01*
X178729235Y-91958143D01*
X178725107Y-91926568D01*
X178724044Y-91910234D01*
X178724044Y-76603282D01*
X181161326Y-76603282D01*
X181161901Y-76609855D01*
X181161901Y-76609859D01*
X181176635Y-76778275D01*
X181177512Y-76788295D01*
X181198188Y-76862847D01*
X181261574Y-77036999D01*
X181404780Y-77430452D01*
X181497006Y-77683842D01*
X181529089Y-77754244D01*
X181635613Y-77906376D01*
X181640434Y-77910871D01*
X181640436Y-77910874D01*
X181766615Y-78028537D01*
X181771440Y-78033036D01*
X181930633Y-78128689D01*
X181936876Y-78130839D01*
X181936879Y-78130840D01*
X182066838Y-78175588D01*
X182106234Y-78189153D01*
X182112786Y-78189957D01*
X182112788Y-78189958D01*
X182162852Y-78196105D01*
X182290569Y-78211787D01*
X182297142Y-78211212D01*
X182297146Y-78211212D01*
X182469824Y-78196105D01*
X182469828Y-78196104D01*
X182475581Y-78195601D01*
X182481150Y-78194057D01*
X182481153Y-78194056D01*
X182510459Y-78185928D01*
X182550134Y-78174925D01*
X184592729Y-77431480D01*
X184630478Y-77414278D01*
X184657876Y-77401793D01*
X184657879Y-77401791D01*
X184663131Y-77399398D01*
X184815263Y-77292873D01*
X184941924Y-77157047D01*
X184951540Y-77141042D01*
X185034174Y-77003517D01*
X185034176Y-77003512D01*
X185037576Y-76997854D01*
X185098040Y-76822253D01*
X185099262Y-76812306D01*
X185117010Y-76667758D01*
X185120674Y-76637918D01*
X185118220Y-76609859D01*
X185104992Y-76458662D01*
X185104991Y-76458658D01*
X185104488Y-76452905D01*
X185083812Y-76378353D01*
X184887652Y-75839407D01*
X184785840Y-75559682D01*
X184785839Y-75559679D01*
X184784994Y-75557358D01*
X184752911Y-75486956D01*
X184646387Y-75334824D01*
X184641566Y-75330329D01*
X184641564Y-75330326D01*
X184515385Y-75212663D01*
X184515383Y-75212661D01*
X184510560Y-75208164D01*
X184351367Y-75112511D01*
X184345124Y-75110361D01*
X184345121Y-75110360D01*
X184182013Y-75054198D01*
X184175766Y-75052047D01*
X184169214Y-75051243D01*
X184169212Y-75051242D01*
X184100374Y-75042790D01*
X183991431Y-75029413D01*
X183984856Y-75029988D01*
X183984846Y-75029988D01*
X183911482Y-75036407D01*
X183841877Y-75022419D01*
X183790885Y-74973020D01*
X183774500Y-74910887D01*
X183774500Y-70736903D01*
X183794502Y-70668782D01*
X183848158Y-70622289D01*
X183911480Y-70611382D01*
X183979369Y-70617322D01*
X184009775Y-70619982D01*
X184009777Y-70619982D01*
X184016350Y-70620557D01*
X184125293Y-70607180D01*
X184194131Y-70598728D01*
X184194133Y-70598727D01*
X184200685Y-70597923D01*
X184227741Y-70588607D01*
X184370040Y-70539610D01*
X184370043Y-70539609D01*
X184376286Y-70537459D01*
X184535479Y-70441806D01*
X184563554Y-70415626D01*
X184666483Y-70319644D01*
X184666485Y-70319641D01*
X184671306Y-70315146D01*
X184777830Y-70163014D01*
X184809913Y-70092614D01*
X184990094Y-69597570D01*
X185107878Y-69273959D01*
X185107878Y-69273958D01*
X185108730Y-69271618D01*
X185129407Y-69197065D01*
X185142563Y-69046688D01*
X185145018Y-69018629D01*
X185145018Y-69018625D01*
X185145593Y-69012052D01*
X185122959Y-68827717D01*
X185062495Y-68652116D01*
X185059095Y-68646458D01*
X185059093Y-68646453D01*
X184970248Y-68498590D01*
X184966843Y-68492923D01*
X184840182Y-68357097D01*
X184688050Y-68250572D01*
X184617650Y-68218489D01*
X182977250Y-67621433D01*
X182577395Y-67475898D01*
X182577394Y-67475898D01*
X182575054Y-67475046D01*
X182556903Y-67470012D01*
X182506068Y-67455913D01*
X182506065Y-67455913D01*
X182500500Y-67454369D01*
X182399935Y-67445571D01*
X182322065Y-67438758D01*
X182322061Y-67438758D01*
X182315488Y-67438183D01*
X182206545Y-67451560D01*
X182137707Y-67460012D01*
X182137705Y-67460013D01*
X182131153Y-67460817D01*
X182124906Y-67462968D01*
X181961798Y-67519130D01*
X181961795Y-67519131D01*
X181955552Y-67521281D01*
X181796359Y-67616934D01*
X181791536Y-67621431D01*
X181791534Y-67621433D01*
X181665355Y-67739096D01*
X181665353Y-67739099D01*
X181660532Y-67743594D01*
X181554008Y-67895726D01*
X181521925Y-67966126D01*
X181521077Y-67968456D01*
X181250246Y-68712562D01*
X181223108Y-68787122D01*
X181202431Y-68861675D01*
X181201928Y-68867430D01*
X181188700Y-69018629D01*
X181186245Y-69046688D01*
X181208879Y-69231023D01*
X181269343Y-69406624D01*
X181272743Y-69412282D01*
X181272745Y-69412287D01*
X181355379Y-69549812D01*
X181364995Y-69565817D01*
X181491656Y-69701643D01*
X181643788Y-69808168D01*
X181714188Y-69840251D01*
X181716509Y-69841096D01*
X181716512Y-69841097D01*
X182424595Y-70098818D01*
X182481766Y-70140912D01*
X182507104Y-70207234D01*
X182507500Y-70217219D01*
X182507500Y-75423683D01*
X182487498Y-75491804D01*
X182433842Y-75538297D01*
X182424596Y-75542084D01*
X181689271Y-75809720D01*
X181651522Y-75826922D01*
X181624124Y-75839407D01*
X181624121Y-75839409D01*
X181618869Y-75841802D01*
X181466737Y-75948327D01*
X181340076Y-76084153D01*
X181336671Y-76089820D01*
X181247826Y-76237683D01*
X181247824Y-76237688D01*
X181244424Y-76243346D01*
X181183960Y-76418947D01*
X181183156Y-76425499D01*
X181183155Y-76425501D01*
X181174703Y-76494339D01*
X181161326Y-76603282D01*
X178724044Y-76603282D01*
X178724044Y-65287918D01*
X182554326Y-65287918D01*
X182562150Y-65351638D01*
X182576053Y-65464863D01*
X182576960Y-65472253D01*
X182637424Y-65647854D01*
X182640824Y-65653512D01*
X182640826Y-65653517D01*
X182700859Y-65753428D01*
X182733076Y-65807047D01*
X182859737Y-65942873D01*
X183011869Y-66049398D01*
X183082269Y-66081481D01*
X185124865Y-66824924D01*
X185127258Y-66825588D01*
X185127259Y-66825588D01*
X185193851Y-66844057D01*
X185193854Y-66844057D01*
X185199419Y-66845601D01*
X185299984Y-66854399D01*
X185377854Y-66861212D01*
X185377858Y-66861212D01*
X185384431Y-66861787D01*
X185512156Y-66846104D01*
X185562212Y-66839958D01*
X185562214Y-66839957D01*
X185568766Y-66839153D01*
X185612565Y-66824072D01*
X185738121Y-66780840D01*
X185738124Y-66780839D01*
X185744367Y-66778689D01*
X185903560Y-66683036D01*
X185914998Y-66672370D01*
X186034564Y-66560874D01*
X186034566Y-66560871D01*
X186039387Y-66556376D01*
X186145911Y-66404244D01*
X186177994Y-66333844D01*
X186476811Y-65512848D01*
X186489888Y-65465699D01*
X186495944Y-65443863D01*
X186495944Y-65443860D01*
X186497488Y-65438295D01*
X186510644Y-65287918D01*
X186513099Y-65259859D01*
X186513099Y-65259855D01*
X186513674Y-65253282D01*
X186491040Y-65068947D01*
X186430576Y-64893346D01*
X186427176Y-64887688D01*
X186427174Y-64887683D01*
X186338329Y-64739820D01*
X186334924Y-64734153D01*
X186240056Y-64632420D01*
X186208226Y-64568958D01*
X186215759Y-64498363D01*
X186243111Y-64457393D01*
X189209018Y-61491486D01*
X189271330Y-61457460D01*
X189325736Y-61458754D01*
X189325812Y-61458272D01*
X189329410Y-61458842D01*
X189329411Y-61458842D01*
X189332328Y-61459304D01*
X189502728Y-61486293D01*
X189502730Y-61486293D01*
X189509245Y-61487325D01*
X189515833Y-61486980D01*
X189515837Y-61486980D01*
X189688116Y-61477952D01*
X189688120Y-61477951D01*
X189694710Y-61477606D01*
X189701083Y-61475898D01*
X189701085Y-61475898D01*
X189751588Y-61462366D01*
X189874101Y-61429538D01*
X189943931Y-61396231D01*
X190700564Y-60959388D01*
X190725805Y-60942041D01*
X190759561Y-60918841D01*
X190764325Y-60915567D01*
X190895648Y-60784244D01*
X190937980Y-60719059D01*
X190993201Y-60634025D01*
X190996798Y-60628486D01*
X191003705Y-60610494D01*
X191060987Y-60461268D01*
X191063354Y-60455102D01*
X191075117Y-60380836D01*
X191091375Y-60278186D01*
X191091375Y-60278184D01*
X191092407Y-60271669D01*
X191088743Y-60201746D01*
X191083033Y-60092800D01*
X191083032Y-60092797D01*
X191082687Y-60086205D01*
X191065113Y-60020614D01*
X191036114Y-59912388D01*
X191036113Y-59912386D01*
X191034620Y-59906813D01*
X191016538Y-59868904D01*
X191002377Y-59839216D01*
X191002373Y-59839209D01*
X191001312Y-59836984D01*
X190159090Y-58378214D01*
X191874020Y-58378214D01*
X191876413Y-58385702D01*
X192284799Y-59093047D01*
X192287451Y-59097250D01*
X192326570Y-59154168D01*
X192333926Y-59163012D01*
X192456419Y-59285505D01*
X192466627Y-59293772D01*
X192611220Y-59387671D01*
X192622925Y-59393635D01*
X192783877Y-59455420D01*
X192796568Y-59458820D01*
X192966856Y-59485791D01*
X192979965Y-59486478D01*
X193152138Y-59477455D01*
X193165109Y-59475401D01*
X193332438Y-59430565D01*
X193343243Y-59426579D01*
X193405570Y-59396850D01*
X193409970Y-59394535D01*
X193550442Y-59313434D01*
X193561402Y-59301939D01*
X193561750Y-59300132D01*
X193559357Y-59292644D01*
X192748188Y-57887658D01*
X192736693Y-57876698D01*
X192734886Y-57876350D01*
X192727398Y-57878743D01*
X191885328Y-58364912D01*
X191874368Y-58376407D01*
X191874020Y-58378214D01*
X190159090Y-58378214D01*
X189914469Y-57954518D01*
X189897379Y-57929650D01*
X189873926Y-57895525D01*
X189873925Y-57895524D01*
X189870649Y-57890757D01*
X189739325Y-57759433D01*
X189715499Y-57743960D01*
X189589107Y-57661881D01*
X189583568Y-57658284D01*
X189577403Y-57655917D01*
X189577400Y-57655916D01*
X189416350Y-57594095D01*
X189416351Y-57594095D01*
X189410184Y-57591728D01*
X189403665Y-57590695D01*
X189403663Y-57590695D01*
X189233268Y-57563707D01*
X189233266Y-57563707D01*
X189226751Y-57562675D01*
X189220163Y-57563020D01*
X189220159Y-57563020D01*
X189047880Y-57572048D01*
X189047876Y-57572049D01*
X189041286Y-57572394D01*
X189034913Y-57574102D01*
X189034911Y-57574102D01*
X188984408Y-57587634D01*
X188861895Y-57620462D01*
X188792065Y-57653769D01*
X188035432Y-58090612D01*
X188033385Y-58092019D01*
X188033380Y-58092022D01*
X188014091Y-58105279D01*
X187971671Y-58134433D01*
X187840348Y-58265756D01*
X187836753Y-58271291D01*
X187836752Y-58271293D01*
X187768491Y-58376407D01*
X187739198Y-58421514D01*
X187672642Y-58594898D01*
X187671609Y-58601417D01*
X187671609Y-58601419D01*
X187656372Y-58697625D01*
X187643589Y-58778331D01*
X187643934Y-58784918D01*
X187643934Y-58784923D01*
X187652963Y-58957200D01*
X187653309Y-58963795D01*
X187655016Y-58970167D01*
X187655017Y-58970171D01*
X187678662Y-59058417D01*
X187701376Y-59143187D01*
X187734684Y-59213016D01*
X188404117Y-60372509D01*
X188420855Y-60441502D01*
X188397635Y-60508594D01*
X188384093Y-60524602D01*
X184915813Y-63992882D01*
X184853501Y-64026908D01*
X184783624Y-64022188D01*
X183945476Y-63717128D01*
X183945475Y-63717128D01*
X183943135Y-63716276D01*
X183940741Y-63715612D01*
X183874149Y-63697143D01*
X183874146Y-63697143D01*
X183868581Y-63695599D01*
X183768016Y-63686801D01*
X183690146Y-63679988D01*
X183690142Y-63679988D01*
X183683569Y-63679413D01*
X183574626Y-63692790D01*
X183505788Y-63701242D01*
X183505786Y-63701243D01*
X183499234Y-63702047D01*
X183492987Y-63704198D01*
X183329879Y-63760360D01*
X183329876Y-63760361D01*
X183323633Y-63762511D01*
X183164440Y-63858164D01*
X183159617Y-63862661D01*
X183159615Y-63862663D01*
X183033436Y-63980326D01*
X183033434Y-63980329D01*
X183028613Y-63984824D01*
X182922089Y-64136956D01*
X182890006Y-64207356D01*
X182885756Y-64219033D01*
X182659604Y-64840384D01*
X182591189Y-65028352D01*
X182570512Y-65102905D01*
X182570009Y-65108660D01*
X182556781Y-65259859D01*
X182554326Y-65287918D01*
X178724044Y-65287918D01*
X178724044Y-56784949D01*
X191108539Y-56784949D01*
X191117562Y-56957121D01*
X191119616Y-56970092D01*
X191164453Y-57137425D01*
X191168436Y-57148222D01*
X191198173Y-57210568D01*
X191200476Y-57214944D01*
X191606582Y-57918342D01*
X191618077Y-57929302D01*
X191619884Y-57929650D01*
X191627372Y-57927257D01*
X192155717Y-57622216D01*
X193183450Y-57622216D01*
X193185843Y-57629703D01*
X193997012Y-59034688D01*
X194008507Y-59045648D01*
X194010314Y-59045996D01*
X194017802Y-59043603D01*
X194162241Y-58960210D01*
X194166417Y-58957576D01*
X194223348Y-58918449D01*
X194232198Y-58911089D01*
X194354688Y-58788598D01*
X194362957Y-58778387D01*
X194456856Y-58633795D01*
X194462818Y-58622095D01*
X194524604Y-58461139D01*
X194528004Y-58448448D01*
X194554974Y-58278160D01*
X194555661Y-58265051D01*
X194547288Y-58105279D01*
X200196967Y-58105279D01*
X200198727Y-58121065D01*
X200199888Y-58122493D01*
X200207161Y-58125472D01*
X200371417Y-58154434D01*
X200376304Y-58155100D01*
X200445066Y-58161721D01*
X200456580Y-58161771D01*
X200629144Y-58146673D01*
X200642044Y-58144165D01*
X200806913Y-58093760D01*
X200819007Y-58088627D01*
X200969793Y-58005045D01*
X200980556Y-57997509D01*
X201110675Y-57884397D01*
X201119628Y-57874796D01*
X201158360Y-57823398D01*
X202778707Y-57823398D01*
X202779210Y-57829147D01*
X202779210Y-57829151D01*
X202786122Y-57908150D01*
X202794894Y-58008411D01*
X202796823Y-58014722D01*
X202796824Y-58014725D01*
X202829336Y-58121065D01*
X202849193Y-58186015D01*
X202939231Y-58348449D01*
X203061074Y-58488613D01*
X203066345Y-58492585D01*
X203204123Y-58596409D01*
X203204126Y-58596411D01*
X203209396Y-58600382D01*
X203377715Y-58678871D01*
X203452617Y-58698242D01*
X203455039Y-58698669D01*
X203455048Y-58698671D01*
X203849208Y-58768171D01*
X204313029Y-58849954D01*
X204315483Y-58850190D01*
X204315495Y-58850192D01*
X204357950Y-58854280D01*
X204390040Y-58857371D01*
X204395789Y-58856868D01*
X204395793Y-58856868D01*
X204544124Y-58843890D01*
X204575053Y-58841184D01*
X204581364Y-58839255D01*
X204581367Y-58839254D01*
X204746341Y-58788816D01*
X204752657Y-58786885D01*
X204915091Y-58696846D01*
X205030630Y-58596409D01*
X205050274Y-58579333D01*
X205055255Y-58575003D01*
X205150622Y-58448448D01*
X205163051Y-58431955D01*
X205163053Y-58431952D01*
X205167024Y-58426682D01*
X205189625Y-58378214D01*
X205243072Y-58263596D01*
X205243073Y-58263594D01*
X205245512Y-58258363D01*
X205262729Y-58191791D01*
X205264269Y-58185837D01*
X205264271Y-58185826D01*
X205264883Y-58183461D01*
X205356852Y-57661881D01*
X205362082Y-57632220D01*
X205393609Y-57568608D01*
X205454523Y-57532138D01*
X205486168Y-57528100D01*
X206630006Y-57528100D01*
X206698127Y-57548102D01*
X206719101Y-57565005D01*
X209247333Y-60093238D01*
X209281359Y-60155550D01*
X209276294Y-60226366D01*
X209239229Y-60278854D01*
X209085384Y-60407945D01*
X209085357Y-60407969D01*
X209083483Y-60409542D01*
X209028300Y-60463769D01*
X208921776Y-60615902D01*
X208914083Y-60634025D01*
X208851789Y-60780780D01*
X208851788Y-60780784D01*
X208849210Y-60786857D01*
X208847950Y-60793339D01*
X208819688Y-60938736D01*
X208813773Y-60969164D01*
X208817014Y-61154855D01*
X208858792Y-61335815D01*
X208937280Y-61504134D01*
X208940636Y-61508839D01*
X208980769Y-61565104D01*
X208980778Y-61565116D01*
X208982207Y-61567119D01*
X208983800Y-61569018D01*
X208983802Y-61569020D01*
X209377904Y-62038691D01*
X209543802Y-62236400D01*
X209545534Y-62238162D01*
X209545538Y-62238167D01*
X209593976Y-62287460D01*
X209593979Y-62287463D01*
X209598028Y-62291583D01*
X209750161Y-62398107D01*
X209805406Y-62421557D01*
X209915039Y-62468094D01*
X209915043Y-62468095D01*
X209921116Y-62470673D01*
X209927598Y-62471933D01*
X210096946Y-62504851D01*
X210096948Y-62504851D01*
X210103424Y-62506110D01*
X210110020Y-62505995D01*
X210110021Y-62505995D01*
X210179272Y-62504786D01*
X210289115Y-62502869D01*
X210470074Y-62461091D01*
X210638393Y-62382603D01*
X210701378Y-62337676D01*
X212366517Y-60940458D01*
X212421700Y-60886231D01*
X212528224Y-60734098D01*
X212552796Y-60676210D01*
X212598211Y-60569220D01*
X212598212Y-60569216D01*
X212600790Y-60563143D01*
X212617944Y-60474893D01*
X212634968Y-60387314D01*
X212634968Y-60387312D01*
X212636227Y-60380836D01*
X212632986Y-60195145D01*
X212591208Y-60014185D01*
X212512720Y-59845866D01*
X212507977Y-59839216D01*
X212469231Y-59784896D01*
X212469222Y-59784884D01*
X212467793Y-59782881D01*
X212211510Y-59477455D01*
X211907794Y-59115502D01*
X211906198Y-59113600D01*
X211890132Y-59097250D01*
X211856024Y-59062540D01*
X211856021Y-59062537D01*
X211851972Y-59058417D01*
X211699839Y-58951893D01*
X211603711Y-58911089D01*
X211534961Y-58881906D01*
X211534957Y-58881905D01*
X211528884Y-58879327D01*
X211522402Y-58878067D01*
X211353054Y-58845149D01*
X211353052Y-58845149D01*
X211346576Y-58843890D01*
X211339980Y-58844005D01*
X211339979Y-58844005D01*
X211274442Y-58845149D01*
X211160885Y-58847131D01*
X210979926Y-58888909D01*
X210811607Y-58967397D01*
X210748622Y-59012324D01*
X210512107Y-59210784D01*
X210407295Y-59298732D01*
X210342255Y-59327196D01*
X210272150Y-59315979D01*
X210237209Y-59291305D01*
X208875555Y-57929650D01*
X207448252Y-56502347D01*
X207440712Y-56494061D01*
X207436600Y-56487582D01*
X207386948Y-56440956D01*
X207384107Y-56438202D01*
X207364370Y-56418465D01*
X207361173Y-56415985D01*
X207352151Y-56408280D01*
X207325700Y-56383441D01*
X207319921Y-56378014D01*
X207312975Y-56374195D01*
X207312972Y-56374193D01*
X207302166Y-56368252D01*
X207285647Y-56357401D01*
X207285183Y-56357041D01*
X207269641Y-56344986D01*
X207262372Y-56341841D01*
X207262368Y-56341838D01*
X207229063Y-56327426D01*
X207218413Y-56322209D01*
X207179660Y-56300905D01*
X207160037Y-56295867D01*
X207141334Y-56289463D01*
X207130020Y-56284567D01*
X207130019Y-56284567D01*
X207122745Y-56281419D01*
X207114922Y-56280180D01*
X207114912Y-56280177D01*
X207079076Y-56274501D01*
X207067456Y-56272095D01*
X207032311Y-56263072D01*
X207032310Y-56263072D01*
X207024630Y-56261100D01*
X207004376Y-56261100D01*
X206984665Y-56259549D01*
X206972486Y-56257620D01*
X206964657Y-56256380D01*
X206956765Y-56257126D01*
X206920639Y-56260541D01*
X206908781Y-56261100D01*
X205754008Y-56261100D01*
X205685887Y-56241098D01*
X205639394Y-56187442D01*
X205629922Y-56113221D01*
X205641909Y-56045235D01*
X205642339Y-56042799D01*
X205649755Y-55965788D01*
X205648615Y-55952750D01*
X205634143Y-55787348D01*
X205633568Y-55780775D01*
X205626064Y-55756228D01*
X205581200Y-55609487D01*
X205579269Y-55603171D01*
X205489231Y-55440737D01*
X205410875Y-55350599D01*
X205371718Y-55305554D01*
X205367388Y-55300573D01*
X205362117Y-55296601D01*
X205224339Y-55192777D01*
X205224336Y-55192775D01*
X205219066Y-55188804D01*
X205050747Y-55110315D01*
X204975845Y-55090944D01*
X204973423Y-55090517D01*
X204973414Y-55090515D01*
X204473119Y-55002301D01*
X204115433Y-54939232D01*
X204112979Y-54938996D01*
X204112967Y-54938994D01*
X204070512Y-54934906D01*
X204038422Y-54931815D01*
X204032673Y-54932318D01*
X204032669Y-54932318D01*
X203892918Y-54944545D01*
X203853409Y-54948002D01*
X203847098Y-54949931D01*
X203847095Y-54949932D01*
X203682121Y-55000370D01*
X203675805Y-55002301D01*
X203513371Y-55092340D01*
X203373207Y-55214183D01*
X203369235Y-55219454D01*
X203265411Y-55357231D01*
X203265409Y-55357234D01*
X203261438Y-55362504D01*
X203258648Y-55368486D01*
X203258648Y-55368487D01*
X203224958Y-55440737D01*
X203182950Y-55530823D01*
X203174316Y-55564209D01*
X203164240Y-55603171D01*
X203163579Y-55605725D01*
X202786123Y-57746387D01*
X202778707Y-57823398D01*
X201158360Y-57823398D01*
X201223388Y-57737103D01*
X201230151Y-57725847D01*
X201303365Y-57568840D01*
X201307252Y-57558014D01*
X201324549Y-57491131D01*
X201325594Y-57486320D01*
X201466636Y-56686432D01*
X201464876Y-56670646D01*
X201463716Y-56669218D01*
X201456441Y-56666239D01*
X200498876Y-56497394D01*
X200483090Y-56499154D01*
X200481662Y-56500314D01*
X200478683Y-56507589D01*
X200196967Y-58105279D01*
X194547288Y-58105279D01*
X194546638Y-58092879D01*
X194544584Y-58079908D01*
X194499747Y-57912575D01*
X194495764Y-57901778D01*
X194466027Y-57839432D01*
X194463724Y-57835056D01*
X194059303Y-57134576D01*
X198840483Y-57134576D01*
X198855581Y-57307140D01*
X198858089Y-57320040D01*
X198908494Y-57484910D01*
X198913627Y-57497002D01*
X198997213Y-57647796D01*
X199004741Y-57658548D01*
X199117856Y-57788671D01*
X199127456Y-57797624D01*
X199265148Y-57901381D01*
X199276413Y-57908150D01*
X199433406Y-57981358D01*
X199444242Y-57985249D01*
X199511135Y-58002549D01*
X199515930Y-58003589D01*
X199675697Y-58031761D01*
X199691483Y-58030001D01*
X199692911Y-58028841D01*
X199695890Y-58021566D01*
X199977606Y-56423876D01*
X199975846Y-56408090D01*
X199974686Y-56406662D01*
X199967411Y-56403683D01*
X199009846Y-56234838D01*
X198994060Y-56236598D01*
X198992632Y-56237758D01*
X198989653Y-56245033D01*
X198847821Y-57049401D01*
X198847152Y-57054316D01*
X198840533Y-57123062D01*
X198840483Y-57134576D01*
X194059303Y-57134576D01*
X194057618Y-57131658D01*
X194046123Y-57120698D01*
X194044316Y-57120350D01*
X194036828Y-57122743D01*
X193194759Y-57608913D01*
X193183799Y-57620408D01*
X193183450Y-57622216D01*
X192155717Y-57622216D01*
X192469441Y-57441087D01*
X192480401Y-57429592D01*
X192480750Y-57427784D01*
X192478357Y-57420297D01*
X191667188Y-56015312D01*
X191655693Y-56004352D01*
X191653886Y-56004004D01*
X191646398Y-56006397D01*
X191501959Y-56089790D01*
X191497783Y-56092424D01*
X191440852Y-56131551D01*
X191432002Y-56138911D01*
X191309512Y-56261402D01*
X191301243Y-56271613D01*
X191207344Y-56416205D01*
X191201382Y-56427905D01*
X191139596Y-56588861D01*
X191136196Y-56601552D01*
X191109226Y-56771840D01*
X191108539Y-56784949D01*
X178724044Y-56784949D01*
X178724044Y-55749868D01*
X192102450Y-55749868D01*
X192104843Y-55757356D01*
X192916012Y-57162342D01*
X192927507Y-57173302D01*
X192929314Y-57173650D01*
X192936802Y-57171257D01*
X193778872Y-56685088D01*
X193789832Y-56673593D01*
X193790180Y-56671786D01*
X193787787Y-56664298D01*
X193390469Y-55976124D01*
X200572394Y-55976124D01*
X200574154Y-55991910D01*
X200575314Y-55993338D01*
X200582589Y-55996317D01*
X201540154Y-56165162D01*
X201555940Y-56163402D01*
X201557368Y-56162242D01*
X201560347Y-56154967D01*
X201702179Y-55350599D01*
X201702848Y-55345684D01*
X201709467Y-55276938D01*
X201709517Y-55265424D01*
X201694419Y-55092860D01*
X201691911Y-55079960D01*
X201641506Y-54915090D01*
X201636373Y-54902998D01*
X201552787Y-54752204D01*
X201545259Y-54741452D01*
X201432144Y-54611329D01*
X201422544Y-54602376D01*
X201284852Y-54498619D01*
X201273587Y-54491850D01*
X201116594Y-54418642D01*
X201105758Y-54414751D01*
X201038865Y-54397451D01*
X201034070Y-54396411D01*
X200874303Y-54368239D01*
X200858517Y-54369999D01*
X200857089Y-54371159D01*
X200854110Y-54378434D01*
X200572394Y-55976124D01*
X193390469Y-55976124D01*
X193379401Y-55956953D01*
X193376749Y-55952750D01*
X193337630Y-55895832D01*
X193330274Y-55886988D01*
X193207781Y-55764495D01*
X193197573Y-55756228D01*
X193131882Y-55713568D01*
X199083364Y-55713568D01*
X199085124Y-55729354D01*
X199086284Y-55730782D01*
X199093559Y-55733761D01*
X200051124Y-55902606D01*
X200066910Y-55900846D01*
X200068338Y-55899686D01*
X200071317Y-55892411D01*
X200353033Y-54294721D01*
X200351273Y-54278935D01*
X200350112Y-54277507D01*
X200342839Y-54274528D01*
X200178583Y-54245566D01*
X200173696Y-54244900D01*
X200104934Y-54238279D01*
X200093420Y-54238229D01*
X199920856Y-54253327D01*
X199907956Y-54255835D01*
X199743087Y-54306240D01*
X199730993Y-54311373D01*
X199580207Y-54394955D01*
X199569444Y-54402491D01*
X199439325Y-54515603D01*
X199430372Y-54525204D01*
X199326612Y-54662897D01*
X199319849Y-54674153D01*
X199246635Y-54831160D01*
X199242748Y-54841986D01*
X199225451Y-54908869D01*
X199224406Y-54913680D01*
X199083364Y-55713568D01*
X193131882Y-55713568D01*
X193052980Y-55662329D01*
X193041275Y-55656365D01*
X192880323Y-55594580D01*
X192867632Y-55591180D01*
X192697344Y-55564209D01*
X192684235Y-55563522D01*
X192512062Y-55572545D01*
X192499091Y-55574599D01*
X192331762Y-55619435D01*
X192320957Y-55623421D01*
X192258630Y-55653150D01*
X192254230Y-55655465D01*
X192113758Y-55736566D01*
X192102798Y-55748061D01*
X192102450Y-55749868D01*
X178724044Y-55749868D01*
X178724044Y-53701226D01*
X178725545Y-53681838D01*
X178727853Y-53667018D01*
X178727853Y-53667017D01*
X178729235Y-53658143D01*
X178728071Y-53649239D01*
X178728071Y-53649235D01*
X178727241Y-53642885D01*
X178726499Y-53617563D01*
X178738587Y-53448599D01*
X178741146Y-53430804D01*
X178782552Y-53240483D01*
X178787617Y-53223234D01*
X178852072Y-53050435D01*
X178855691Y-53040732D01*
X178863158Y-53024384D01*
X178956506Y-52853440D01*
X178966226Y-52838316D01*
X179082955Y-52682393D01*
X179094727Y-52668808D01*
X179163595Y-52599942D01*
X179232461Y-52531079D01*
X179246036Y-52519316D01*
X179401973Y-52402588D01*
X179417096Y-52392870D01*
X179588046Y-52299530D01*
X179604399Y-52292062D01*
X179751545Y-52237183D01*
X179786900Y-52223997D01*
X179804146Y-52218934D01*
X179994474Y-52177535D01*
X180012263Y-52174977D01*
X180174524Y-52163376D01*
X180191411Y-52164078D01*
X180191411Y-52164055D01*
X180200387Y-52164165D01*
X180209257Y-52165546D01*
X180230184Y-52162810D01*
X180240832Y-52161418D01*
X180257166Y-52160355D01*
X218466174Y-52160355D01*
X218485562Y-52161856D01*
G37*
G04 #@! TD.AperFunction*
M02*
