G04 #@! TF.GenerationSoftware,KiCad,Pcbnew,(6.0.7)*
G04 #@! TF.CreationDate,2023-02-20T19:56:01+09:00*
G04 #@! TF.ProjectId,led,6c65642e-6b69-4636-9164-5f7063625858,rev?*
G04 #@! TF.SameCoordinates,Original*
G04 #@! TF.FileFunction,Copper,L2,Bot*
G04 #@! TF.FilePolarity,Positive*
%FSLAX46Y46*%
G04 Gerber Fmt 4.6, Leading zero omitted, Abs format (unit mm)*
G04 Created by KiCad (PCBNEW (6.0.7)) date 2023-02-20 19:56:01*
%MOMM*%
%LPD*%
G01*
G04 APERTURE LIST*
G04 #@! TA.AperFunction,ComponentPad*
%ADD10R,1.700000X1.700000*%
G04 #@! TD*
G04 #@! TA.AperFunction,ComponentPad*
%ADD11O,1.700000X1.700000*%
G04 #@! TD*
G04 #@! TA.AperFunction,ViaPad*
%ADD12C,0.800000*%
G04 #@! TD*
G04 APERTURE END LIST*
D10*
X194450000Y-91625000D03*
D11*
X196990000Y-91625000D03*
D12*
X190900000Y-89875000D03*
X206475000Y-90400000D03*
X216425000Y-82550000D03*
X215975000Y-66625000D03*
X209650000Y-57025000D03*
X196350000Y-54725000D03*
X185600000Y-61425000D03*
X181300000Y-72700000D03*
X185700000Y-82900000D03*
G04 #@! TA.AperFunction,Conductor*
G36*
X218485562Y-52161856D02*
G01*
X218499683Y-52164055D01*
X218509257Y-52165546D01*
X218518161Y-52164382D01*
X218518167Y-52164382D01*
X218524517Y-52163552D01*
X218549838Y-52162810D01*
X218680263Y-52172140D01*
X218718811Y-52174898D01*
X218736600Y-52177457D01*
X218926934Y-52218864D01*
X218944178Y-52223927D01*
X218945134Y-52224284D01*
X219126681Y-52292000D01*
X219143033Y-52299468D01*
X219313987Y-52392818D01*
X219329110Y-52402537D01*
X219485045Y-52519269D01*
X219498631Y-52531042D01*
X219636357Y-52668768D01*
X219648130Y-52682354D01*
X219764860Y-52838286D01*
X219774579Y-52853409D01*
X219867933Y-53024370D01*
X219875401Y-53040722D01*
X219943472Y-53223220D01*
X219948537Y-53240469D01*
X219989943Y-53430796D01*
X219992502Y-53448590D01*
X220004083Y-53610464D01*
X220003335Y-53628476D01*
X220003235Y-53636717D01*
X220001853Y-53645591D01*
X220005648Y-53674612D01*
X220005980Y-53677147D01*
X220007044Y-53693487D01*
X220007044Y-91902500D01*
X220005544Y-91921883D01*
X220003234Y-91936717D01*
X220003234Y-91936721D01*
X220001853Y-91945591D01*
X220003690Y-91959640D01*
X220003848Y-91960845D01*
X220004591Y-91986169D01*
X219992510Y-92155145D01*
X219989952Y-92172941D01*
X219948551Y-92363276D01*
X219943487Y-92380525D01*
X219875418Y-92563037D01*
X219867950Y-92579389D01*
X219774601Y-92750356D01*
X219764887Y-92765473D01*
X219648147Y-92921425D01*
X219636390Y-92934993D01*
X219594641Y-92976745D01*
X219498651Y-93072739D01*
X219485065Y-93084511D01*
X219329129Y-93201249D01*
X219314007Y-93210969D01*
X219143046Y-93304325D01*
X219126704Y-93311789D01*
X218965970Y-93371744D01*
X218944190Y-93379868D01*
X218926941Y-93384933D01*
X218736608Y-93426342D01*
X218718813Y-93428901D01*
X218557322Y-93440454D01*
X218537428Y-93439628D01*
X218530685Y-93439546D01*
X218521809Y-93438164D01*
X218493931Y-93441810D01*
X218490253Y-93442291D01*
X218473913Y-93443355D01*
X180264900Y-93443355D01*
X180245517Y-93441855D01*
X180230683Y-93439545D01*
X180230679Y-93439545D01*
X180221809Y-93438164D01*
X180206553Y-93440159D01*
X180181230Y-93440902D01*
X180163412Y-93439628D01*
X180134807Y-93437583D01*
X180012261Y-93428821D01*
X179994467Y-93426263D01*
X179804132Y-93384861D01*
X179786882Y-93379796D01*
X179604388Y-93311731D01*
X179588035Y-93304263D01*
X179417079Y-93210916D01*
X179401955Y-93201197D01*
X179246019Y-93084466D01*
X179232432Y-93072693D01*
X179094707Y-92934969D01*
X179082933Y-92921381D01*
X178966202Y-92765445D01*
X178956483Y-92750321D01*
X178863136Y-92579365D01*
X178855668Y-92563012D01*
X178840795Y-92523134D01*
X193091500Y-92523134D01*
X193098255Y-92585316D01*
X193149385Y-92721705D01*
X193236739Y-92838261D01*
X193353295Y-92925615D01*
X193489684Y-92976745D01*
X193551866Y-92983500D01*
X195348134Y-92983500D01*
X195410316Y-92976745D01*
X195546705Y-92925615D01*
X195663261Y-92838261D01*
X195750615Y-92721705D01*
X195794798Y-92603848D01*
X195837440Y-92547084D01*
X195904001Y-92522384D01*
X195973350Y-92537592D01*
X196008017Y-92565580D01*
X196033218Y-92594673D01*
X196040580Y-92601883D01*
X196204434Y-92737916D01*
X196212881Y-92743831D01*
X196396756Y-92851279D01*
X196406042Y-92855729D01*
X196605001Y-92931703D01*
X196614899Y-92934579D01*
X196718250Y-92955606D01*
X196732299Y-92954410D01*
X196736000Y-92944065D01*
X196736000Y-92943517D01*
X197244000Y-92943517D01*
X197248064Y-92957359D01*
X197261478Y-92959393D01*
X197268184Y-92958534D01*
X197278262Y-92956392D01*
X197482255Y-92895191D01*
X197491842Y-92891433D01*
X197683095Y-92797739D01*
X197691945Y-92792464D01*
X197865328Y-92668792D01*
X197873200Y-92662139D01*
X198024052Y-92511812D01*
X198030730Y-92503965D01*
X198155003Y-92331020D01*
X198160313Y-92322183D01*
X198254670Y-92131267D01*
X198258469Y-92121672D01*
X198320377Y-91917910D01*
X198322555Y-91907837D01*
X198323986Y-91896962D01*
X198321775Y-91882778D01*
X198308617Y-91879000D01*
X197262115Y-91879000D01*
X197246876Y-91883475D01*
X197245671Y-91884865D01*
X197244000Y-91892548D01*
X197244000Y-92943517D01*
X196736000Y-92943517D01*
X196736000Y-91352885D01*
X197244000Y-91352885D01*
X197248475Y-91368124D01*
X197249865Y-91369329D01*
X197257548Y-91371000D01*
X198308344Y-91371000D01*
X198321875Y-91367027D01*
X198323180Y-91357947D01*
X198281214Y-91190875D01*
X198277894Y-91181124D01*
X198192972Y-90985814D01*
X198188105Y-90976739D01*
X198072426Y-90797926D01*
X198066136Y-90789757D01*
X197922806Y-90632240D01*
X197915273Y-90625215D01*
X197748139Y-90493222D01*
X197739552Y-90487517D01*
X197553117Y-90384599D01*
X197543705Y-90380369D01*
X197342959Y-90309280D01*
X197332988Y-90306646D01*
X197261837Y-90293972D01*
X197248540Y-90295432D01*
X197244000Y-90309989D01*
X197244000Y-91352885D01*
X196736000Y-91352885D01*
X196736000Y-90308102D01*
X196732082Y-90294758D01*
X196717806Y-90292771D01*
X196679324Y-90298660D01*
X196669288Y-90301051D01*
X196466868Y-90367212D01*
X196457359Y-90371209D01*
X196268463Y-90469542D01*
X196259738Y-90475036D01*
X196089433Y-90602905D01*
X196081726Y-90609748D01*
X196004478Y-90690584D01*
X195942954Y-90726014D01*
X195872042Y-90722557D01*
X195814255Y-90681311D01*
X195795402Y-90647763D01*
X195753767Y-90536703D01*
X195750615Y-90528295D01*
X195663261Y-90411739D01*
X195546705Y-90324385D01*
X195410316Y-90273255D01*
X195348134Y-90266500D01*
X193551866Y-90266500D01*
X193489684Y-90273255D01*
X193353295Y-90324385D01*
X193236739Y-90411739D01*
X193149385Y-90528295D01*
X193098255Y-90664684D01*
X193091500Y-90726866D01*
X193091500Y-92523134D01*
X178840795Y-92523134D01*
X178787603Y-92380516D01*
X178782538Y-92363266D01*
X178741137Y-92172934D01*
X178738579Y-92155139D01*
X178727005Y-91993264D01*
X178727753Y-91975285D01*
X178727854Y-91967012D01*
X178729235Y-91958143D01*
X178725107Y-91926568D01*
X178724044Y-91910234D01*
X178724044Y-88279199D01*
X181702119Y-88279199D01*
X181702366Y-88283483D01*
X181702366Y-88283484D01*
X181705895Y-88344690D01*
X181719060Y-88573019D01*
X181719885Y-88577226D01*
X181719886Y-88577231D01*
X181740617Y-88682896D01*
X181775721Y-88861821D01*
X181871053Y-89140262D01*
X181872980Y-89144093D01*
X181973858Y-89344667D01*
X182003291Y-89403189D01*
X182005717Y-89406718D01*
X182005720Y-89406724D01*
X182045494Y-89464595D01*
X182169989Y-89645736D01*
X182368062Y-89863415D01*
X182371351Y-89866165D01*
X182590553Y-90049447D01*
X182590558Y-90049451D01*
X182593845Y-90052199D01*
X182659595Y-90093444D01*
X182839520Y-90206311D01*
X182839524Y-90206313D01*
X182843160Y-90208594D01*
X182915837Y-90241409D01*
X183107481Y-90327940D01*
X183107485Y-90327942D01*
X183111393Y-90329706D01*
X183115512Y-90330926D01*
X183389468Y-90412076D01*
X183389473Y-90412077D01*
X183393581Y-90413294D01*
X183397815Y-90413942D01*
X183397820Y-90413943D01*
X183680261Y-90457162D01*
X183680263Y-90457162D01*
X183684503Y-90457811D01*
X183834316Y-90460165D01*
X183974484Y-90462367D01*
X183974490Y-90462367D01*
X183978775Y-90462434D01*
X184270952Y-90427077D01*
X184483908Y-90371209D01*
X184551483Y-90353481D01*
X184551484Y-90353481D01*
X184555626Y-90352394D01*
X184827532Y-90239767D01*
X185081636Y-90091280D01*
X185313238Y-89909682D01*
X185361149Y-89860242D01*
X185515067Y-89701409D01*
X185518050Y-89698331D01*
X185692285Y-89461140D01*
X185732276Y-89387486D01*
X185830666Y-89206273D01*
X185830667Y-89206271D01*
X185832716Y-89202497D01*
X185936747Y-88927188D01*
X186002451Y-88640308D01*
X186008081Y-88577231D01*
X186028393Y-88349631D01*
X186028393Y-88349629D01*
X186028613Y-88347165D01*
X186029088Y-88301855D01*
X186027544Y-88279199D01*
X212702119Y-88279199D01*
X212702366Y-88283483D01*
X212702366Y-88283484D01*
X212705895Y-88344690D01*
X212719060Y-88573019D01*
X212719885Y-88577226D01*
X212719886Y-88577231D01*
X212740617Y-88682896D01*
X212775721Y-88861821D01*
X212871053Y-89140262D01*
X212872980Y-89144093D01*
X212973858Y-89344667D01*
X213003291Y-89403189D01*
X213005717Y-89406718D01*
X213005720Y-89406724D01*
X213045494Y-89464595D01*
X213169989Y-89645736D01*
X213368062Y-89863415D01*
X213371351Y-89866165D01*
X213590553Y-90049447D01*
X213590558Y-90049451D01*
X213593845Y-90052199D01*
X213659595Y-90093444D01*
X213839520Y-90206311D01*
X213839524Y-90206313D01*
X213843160Y-90208594D01*
X213915837Y-90241409D01*
X214107481Y-90327940D01*
X214107485Y-90327942D01*
X214111393Y-90329706D01*
X214115512Y-90330926D01*
X214389468Y-90412076D01*
X214389473Y-90412077D01*
X214393581Y-90413294D01*
X214397815Y-90413942D01*
X214397820Y-90413943D01*
X214680261Y-90457162D01*
X214680263Y-90457162D01*
X214684503Y-90457811D01*
X214834316Y-90460165D01*
X214974484Y-90462367D01*
X214974490Y-90462367D01*
X214978775Y-90462434D01*
X215270952Y-90427077D01*
X215483908Y-90371209D01*
X215551483Y-90353481D01*
X215551484Y-90353481D01*
X215555626Y-90352394D01*
X215827532Y-90239767D01*
X216081636Y-90091280D01*
X216313238Y-89909682D01*
X216361149Y-89860242D01*
X216515067Y-89701409D01*
X216518050Y-89698331D01*
X216692285Y-89461140D01*
X216732276Y-89387486D01*
X216830666Y-89206273D01*
X216830667Y-89206271D01*
X216832716Y-89202497D01*
X216936747Y-88927188D01*
X217002451Y-88640308D01*
X217008081Y-88577231D01*
X217028393Y-88349631D01*
X217028393Y-88349629D01*
X217028613Y-88347165D01*
X217029088Y-88301855D01*
X217009071Y-88008228D01*
X216949389Y-87720035D01*
X216851147Y-87442608D01*
X216716162Y-87181081D01*
X216705991Y-87166608D01*
X216549400Y-86943803D01*
X216549399Y-86943802D01*
X216546933Y-86940293D01*
X216346592Y-86724699D01*
X216324480Y-86706600D01*
X216122162Y-86541006D01*
X216118844Y-86538290D01*
X215867905Y-86384515D01*
X215849250Y-86376326D01*
X215602346Y-86267942D01*
X215602342Y-86267941D01*
X215598418Y-86266218D01*
X215315370Y-86185590D01*
X215311128Y-86184986D01*
X215311122Y-86184985D01*
X215028249Y-86144726D01*
X215023998Y-86144121D01*
X214868850Y-86143309D01*
X214733980Y-86142602D01*
X214733974Y-86142602D01*
X214729694Y-86142580D01*
X214725450Y-86143139D01*
X214725446Y-86143139D01*
X214596885Y-86160065D01*
X214437904Y-86180995D01*
X214433764Y-86182128D01*
X214433762Y-86182128D01*
X214416805Y-86186767D01*
X214154027Y-86258655D01*
X214150077Y-86260340D01*
X213887258Y-86372441D01*
X213887251Y-86372445D01*
X213883316Y-86374123D01*
X213730930Y-86465324D01*
X213634462Y-86523059D01*
X213634458Y-86523062D01*
X213630780Y-86525263D01*
X213401093Y-86709277D01*
X213398149Y-86712379D01*
X213398145Y-86712383D01*
X213389035Y-86721983D01*
X213198505Y-86922760D01*
X213026764Y-87161763D01*
X212889048Y-87421862D01*
X212787906Y-87698245D01*
X212725210Y-87985798D01*
X212724874Y-87990068D01*
X212702688Y-88271974D01*
X212702684Y-88271974D01*
X212702687Y-88271988D01*
X212702119Y-88279199D01*
X186027544Y-88279199D01*
X186009071Y-88008228D01*
X185949389Y-87720035D01*
X185851147Y-87442608D01*
X185716162Y-87181081D01*
X185705991Y-87166608D01*
X185549400Y-86943803D01*
X185549399Y-86943802D01*
X185546933Y-86940293D01*
X185346592Y-86724699D01*
X185324480Y-86706600D01*
X185122162Y-86541006D01*
X185118844Y-86538290D01*
X184867905Y-86384515D01*
X184849250Y-86376326D01*
X184602346Y-86267942D01*
X184602342Y-86267941D01*
X184598418Y-86266218D01*
X184315370Y-86185590D01*
X184311128Y-86184986D01*
X184311122Y-86184985D01*
X184028249Y-86144726D01*
X184023998Y-86144121D01*
X183868850Y-86143309D01*
X183733980Y-86142602D01*
X183733974Y-86142602D01*
X183729694Y-86142580D01*
X183725450Y-86143139D01*
X183725446Y-86143139D01*
X183596885Y-86160065D01*
X183437904Y-86180995D01*
X183433764Y-86182128D01*
X183433762Y-86182128D01*
X183416805Y-86186767D01*
X183154027Y-86258655D01*
X183150077Y-86260340D01*
X182887258Y-86372441D01*
X182887251Y-86372445D01*
X182883316Y-86374123D01*
X182730930Y-86465324D01*
X182634462Y-86523059D01*
X182634458Y-86523062D01*
X182630780Y-86525263D01*
X182401093Y-86709277D01*
X182398149Y-86712379D01*
X182398145Y-86712383D01*
X182389035Y-86721983D01*
X182198505Y-86922760D01*
X182026764Y-87161763D01*
X181889048Y-87421862D01*
X181787906Y-87698245D01*
X181725210Y-87985798D01*
X181724874Y-87990068D01*
X181702688Y-88271974D01*
X181702684Y-88271974D01*
X181702687Y-88271988D01*
X181702119Y-88279199D01*
X178724044Y-88279199D01*
X178724044Y-72756430D01*
X186352182Y-72756430D01*
X186352222Y-72758127D01*
X186352222Y-72758129D01*
X186353253Y-72801855D01*
X186368769Y-73460243D01*
X186368899Y-73461919D01*
X186368900Y-73461930D01*
X186395621Y-73805278D01*
X186423392Y-74162130D01*
X186515893Y-74860036D01*
X186646000Y-75551918D01*
X186646401Y-75553559D01*
X186646405Y-75553575D01*
X186702795Y-75784020D01*
X186813333Y-76235751D01*
X187017402Y-76909535D01*
X187017989Y-76911151D01*
X187257028Y-77569695D01*
X187257034Y-77569711D01*
X187257610Y-77571297D01*
X187258272Y-77572852D01*
X187258276Y-77572863D01*
X187368419Y-77831715D01*
X187533254Y-78219101D01*
X187843526Y-78851050D01*
X188187520Y-79465295D01*
X188188435Y-79466739D01*
X188188440Y-79466748D01*
X188385787Y-79778317D01*
X188564228Y-80060038D01*
X188972548Y-80633539D01*
X189411284Y-81184120D01*
X189412412Y-81185389D01*
X189412416Y-81185393D01*
X189679566Y-81485762D01*
X189879154Y-81710168D01*
X189975895Y-81807757D01*
X190373580Y-82208928D01*
X190373591Y-82208938D01*
X190374787Y-82210145D01*
X190376061Y-82211298D01*
X190895451Y-82681428D01*
X190895462Y-82681437D01*
X190896732Y-82682587D01*
X191443463Y-83126112D01*
X191444822Y-83127098D01*
X191444833Y-83127106D01*
X191860794Y-83428765D01*
X192013379Y-83539421D01*
X192399115Y-83788488D01*
X192603386Y-83920384D01*
X192603397Y-83920390D01*
X192604813Y-83921305D01*
X192606285Y-83922146D01*
X192606296Y-83922153D01*
X192726049Y-83990597D01*
X193216033Y-84270645D01*
X193217558Y-84271410D01*
X193217563Y-84271413D01*
X193843723Y-84585655D01*
X193843733Y-84585660D01*
X193845250Y-84586421D01*
X194490623Y-84867707D01*
X194492210Y-84868299D01*
X194492218Y-84868302D01*
X194623954Y-84917425D01*
X195150264Y-85113681D01*
X195822241Y-85323622D01*
X196504588Y-85496916D01*
X196506235Y-85497241D01*
X196506250Y-85497244D01*
X197193638Y-85632727D01*
X197193650Y-85632729D01*
X197195309Y-85633056D01*
X197892381Y-85731644D01*
X198593764Y-85792390D01*
X198595450Y-85792444D01*
X198595459Y-85792445D01*
X199295702Y-85815063D01*
X199295703Y-85815063D01*
X199297406Y-85815118D01*
X199299102Y-85815081D01*
X199299104Y-85815081D01*
X199999526Y-85799798D01*
X199999542Y-85799797D01*
X200001248Y-85799760D01*
X200475220Y-85763705D01*
X200701522Y-85746491D01*
X200701527Y-85746490D01*
X200703229Y-85746361D01*
X200905121Y-85719961D01*
X201399593Y-85655302D01*
X201399609Y-85655299D01*
X201401295Y-85655079D01*
X201518256Y-85633296D01*
X202091728Y-85526491D01*
X202091730Y-85526491D01*
X202093403Y-85526179D01*
X202777527Y-85360040D01*
X203451666Y-85157147D01*
X203453257Y-85156573D01*
X203453265Y-85156570D01*
X204112241Y-84918675D01*
X204112248Y-84918672D01*
X204113847Y-84918095D01*
X204115420Y-84917429D01*
X204115430Y-84917425D01*
X204425681Y-84786050D01*
X204762130Y-84643582D01*
X204895411Y-84578432D01*
X205393083Y-84335165D01*
X205393103Y-84335154D01*
X205394620Y-84334413D01*
X205533284Y-84257075D01*
X206007991Y-83992314D01*
X206008004Y-83992307D01*
X206009464Y-83991492D01*
X206604864Y-83615822D01*
X206713977Y-83538423D01*
X207177695Y-83209485D01*
X207177711Y-83209473D01*
X207179077Y-83208504D01*
X207351568Y-83071544D01*
X207729091Y-82771787D01*
X207729099Y-82771780D01*
X207730423Y-82770729D01*
X207829875Y-82682587D01*
X208256029Y-82304894D01*
X208256030Y-82304893D01*
X208257287Y-82303779D01*
X208258470Y-82302610D01*
X208258480Y-82302601D01*
X208756925Y-81810207D01*
X208758128Y-81809019D01*
X208759262Y-81807770D01*
X208759275Y-81807757D01*
X209230313Y-81289184D01*
X209230317Y-81289180D01*
X209231480Y-81287899D01*
X209675959Y-80741943D01*
X210090262Y-80172749D01*
X210164267Y-80058574D01*
X210472245Y-79583421D01*
X210472246Y-79583419D01*
X210473177Y-79581983D01*
X210474025Y-79580506D01*
X210822738Y-78972849D01*
X210822745Y-78972836D01*
X210823584Y-78971374D01*
X210874702Y-78869959D01*
X211139682Y-78344246D01*
X211140457Y-78342709D01*
X211422870Y-77697827D01*
X211669994Y-77038617D01*
X211881108Y-76367007D01*
X212055593Y-75684963D01*
X212082389Y-75550253D01*
X212133156Y-75295028D01*
X212192938Y-74994482D01*
X212201729Y-74933099D01*
X212292498Y-74299289D01*
X212292499Y-74299277D01*
X212292742Y-74297583D01*
X212354712Y-73596307D01*
X212378668Y-72892705D01*
X212378985Y-72801855D01*
X212359942Y-72098104D01*
X212302869Y-71396412D01*
X212296725Y-71351261D01*
X212208165Y-70700535D01*
X212208163Y-70700522D01*
X212207933Y-70698833D01*
X212196113Y-70637160D01*
X212075727Y-70009059D01*
X212075411Y-70007409D01*
X211905692Y-69324164D01*
X211762803Y-68858251D01*
X211699773Y-68652729D01*
X211699768Y-68652713D01*
X211699272Y-68651097D01*
X211456756Y-67990177D01*
X211438636Y-67948000D01*
X211179522Y-67344897D01*
X211179521Y-67344895D01*
X211178853Y-67343340D01*
X211158445Y-67302137D01*
X210867126Y-66713992D01*
X210867125Y-66713989D01*
X210866376Y-66712478D01*
X210865550Y-66711014D01*
X210865542Y-66711000D01*
X210521078Y-66100921D01*
X210521076Y-66100918D01*
X210520240Y-66099437D01*
X210519330Y-66098012D01*
X210519322Y-66097998D01*
X210142372Y-65507444D01*
X210142362Y-65507429D01*
X210141458Y-65506013D01*
X209731139Y-64933940D01*
X209290483Y-64384894D01*
X208820781Y-63860482D01*
X208323406Y-63362238D01*
X208312488Y-63352424D01*
X207801070Y-62892750D01*
X207799814Y-62891621D01*
X207251538Y-62450008D01*
X206680183Y-62038691D01*
X206125900Y-61683530D01*
X206088834Y-61659780D01*
X206088833Y-61659780D01*
X206087420Y-61658874D01*
X205474984Y-61311669D01*
X205148247Y-61149119D01*
X204846187Y-60998846D01*
X204846181Y-60998843D01*
X204844669Y-60998091D01*
X204843124Y-60997424D01*
X204843111Y-60997418D01*
X204410472Y-60810647D01*
X204198317Y-60719059D01*
X204196721Y-60718470D01*
X204196713Y-60718467D01*
X203539412Y-60475976D01*
X203539393Y-60475970D01*
X203537822Y-60475390D01*
X203197095Y-60370243D01*
X202866715Y-60268289D01*
X202866700Y-60268285D01*
X202865116Y-60267796D01*
X202673332Y-60219801D01*
X202183820Y-60097298D01*
X202183805Y-60097295D01*
X202182168Y-60096885D01*
X202180494Y-60096561D01*
X202180489Y-60096560D01*
X201492648Y-59963479D01*
X201492637Y-59963477D01*
X201490977Y-59963156D01*
X200793565Y-59867003D01*
X200791868Y-59866862D01*
X200791859Y-59866861D01*
X200093675Y-59808846D01*
X200093662Y-59808845D01*
X200091974Y-59808705D01*
X200090281Y-59808656D01*
X200090277Y-59808656D01*
X199389958Y-59788483D01*
X199388257Y-59788434D01*
X199386558Y-59788477D01*
X198686162Y-59806205D01*
X198686153Y-59806205D01*
X198684473Y-59806248D01*
X198682797Y-59806381D01*
X198682785Y-59806382D01*
X198401039Y-59828804D01*
X197982683Y-59862097D01*
X197981011Y-59862322D01*
X197981007Y-59862322D01*
X197286628Y-59955588D01*
X197286618Y-59955590D01*
X197284940Y-59955815D01*
X197283271Y-59956132D01*
X197283264Y-59956133D01*
X196903185Y-60028294D01*
X196593286Y-60087130D01*
X196555038Y-60096560D01*
X195911378Y-60255253D01*
X195911365Y-60255257D01*
X195909745Y-60255656D01*
X195908135Y-60256147D01*
X195908123Y-60256150D01*
X195463974Y-60391517D01*
X195236319Y-60460901D01*
X194795718Y-60621703D01*
X194576560Y-60701686D01*
X194576551Y-60701689D01*
X194574977Y-60702264D01*
X194573416Y-60702931D01*
X194573412Y-60702933D01*
X194168532Y-60876046D01*
X193927655Y-60979037D01*
X193296249Y-61290413D01*
X192682605Y-61635478D01*
X192088520Y-62013223D01*
X191515732Y-62422544D01*
X191514416Y-62423597D01*
X191514406Y-62423604D01*
X191308375Y-62588371D01*
X190965918Y-62862240D01*
X190440687Y-63331027D01*
X189941576Y-63827532D01*
X189470046Y-64350301D01*
X189027476Y-64897805D01*
X188615163Y-65468442D01*
X188234312Y-66060541D01*
X188233472Y-66062017D01*
X188233470Y-66062020D01*
X187886881Y-66670888D01*
X187886872Y-66670905D01*
X187886038Y-66672370D01*
X187571361Y-67302137D01*
X187291202Y-67948000D01*
X187046380Y-68608069D01*
X186837612Y-69280412D01*
X186837194Y-69282069D01*
X186837192Y-69282077D01*
X186826582Y-69324164D01*
X186665509Y-69963061D01*
X186530575Y-70654018D01*
X186433204Y-71351261D01*
X186373682Y-72052749D01*
X186373631Y-72054428D01*
X186373630Y-72054440D01*
X186371246Y-72132471D01*
X186355910Y-72634428D01*
X186352182Y-72756430D01*
X178724044Y-72756430D01*
X178724044Y-53701226D01*
X178725545Y-53681838D01*
X178727853Y-53667018D01*
X178727853Y-53667017D01*
X178729235Y-53658143D01*
X178728071Y-53649239D01*
X178728071Y-53649235D01*
X178727241Y-53642885D01*
X178726499Y-53617563D01*
X178738587Y-53448599D01*
X178741146Y-53430804D01*
X178782552Y-53240483D01*
X178787617Y-53223234D01*
X178852072Y-53050435D01*
X178855691Y-53040732D01*
X178863158Y-53024384D01*
X178956506Y-52853440D01*
X178966226Y-52838316D01*
X179082955Y-52682393D01*
X179094727Y-52668808D01*
X179163595Y-52599942D01*
X179232461Y-52531079D01*
X179246036Y-52519316D01*
X179401973Y-52402588D01*
X179417096Y-52392870D01*
X179588046Y-52299530D01*
X179604399Y-52292062D01*
X179751545Y-52237183D01*
X179786900Y-52223997D01*
X179804146Y-52218934D01*
X179994474Y-52177535D01*
X180012263Y-52174977D01*
X180174524Y-52163376D01*
X180191411Y-52164078D01*
X180191411Y-52164055D01*
X180200387Y-52164165D01*
X180209257Y-52165546D01*
X180230184Y-52162810D01*
X180240832Y-52161418D01*
X180257166Y-52160355D01*
X218466174Y-52160355D01*
X218485562Y-52161856D01*
G37*
G04 #@! TD.AperFunction*
M02*
