G04 #@! TF.GenerationSoftware,KiCad,Pcbnew,(6.0.7)*
G04 #@! TF.CreationDate,2023-03-01T16:32:28+09:00*
G04 #@! TF.ProjectId,main,6d61696e-2e6b-4696-9361-645f70636258,rev?*
G04 #@! TF.SameCoordinates,Original*
G04 #@! TF.FileFunction,Paste,Top*
G04 #@! TF.FilePolarity,Positive*
%FSLAX46Y46*%
G04 Gerber Fmt 4.6, Leading zero omitted, Abs format (unit mm)*
G04 Created by KiCad (PCBNEW (6.0.7)) date 2023-03-01 16:32:28*
%MOMM*%
%LPD*%
G01*
G04 APERTURE LIST*
G04 Aperture macros list*
%AMRoundRect*
0 Rectangle with rounded corners*
0 $1 Rounding radius*
0 $2 $3 $4 $5 $6 $7 $8 $9 X,Y pos of 4 corners*
0 Add a 4 corners polygon primitive as box body*
4,1,4,$2,$3,$4,$5,$6,$7,$8,$9,$2,$3,0*
0 Add four circle primitives for the rounded corners*
1,1,$1+$1,$2,$3*
1,1,$1+$1,$4,$5*
1,1,$1+$1,$6,$7*
1,1,$1+$1,$8,$9*
0 Add four rect primitives between the rounded corners*
20,1,$1+$1,$2,$3,$4,$5,0*
20,1,$1+$1,$4,$5,$6,$7,0*
20,1,$1+$1,$6,$7,$8,$9,0*
20,1,$1+$1,$8,$9,$2,$3,0*%
G04 Aperture macros list end*
%ADD10RoundRect,0.250000X0.450000X-0.350000X0.450000X0.350000X-0.450000X0.350000X-0.450000X-0.350000X0*%
%ADD11RoundRect,0.237500X0.250000X0.237500X-0.250000X0.237500X-0.250000X-0.237500X0.250000X-0.237500X0*%
%ADD12RoundRect,0.150000X-0.587500X-0.150000X0.587500X-0.150000X0.587500X0.150000X-0.587500X0.150000X0*%
%ADD13RoundRect,0.237500X-0.250000X-0.237500X0.250000X-0.237500X0.250000X0.237500X-0.250000X0.237500X0*%
%ADD14RoundRect,0.250000X-0.450000X0.350000X-0.450000X-0.350000X0.450000X-0.350000X0.450000X0.350000X0*%
G04 APERTURE END LIST*
D10*
X158425000Y-112425000D03*
X158425000Y-110425000D03*
D11*
X106162500Y-108500000D03*
X104337500Y-108500000D03*
D12*
X107987500Y-132300000D03*
X107987500Y-134200000D03*
X109862500Y-133250000D03*
X108362500Y-111175000D03*
X108362500Y-113075000D03*
X110237500Y-112125000D03*
D13*
X112462500Y-113025000D03*
X114287500Y-113025000D03*
X103912500Y-86850000D03*
X105737500Y-86850000D03*
X112250000Y-108500000D03*
X114075000Y-108500000D03*
D11*
X114262500Y-86800000D03*
X112437500Y-86800000D03*
D14*
X141625000Y-86950000D03*
X141625000Y-88950000D03*
D10*
X156775000Y-88875000D03*
X156775000Y-86875000D03*
D11*
X113887500Y-132275000D03*
X112062500Y-132275000D03*
D10*
X181700000Y-89200000D03*
X181700000Y-87200000D03*
D14*
X119825000Y-110450000D03*
X119825000Y-112450000D03*
D10*
X132850000Y-88850000D03*
X132850000Y-86850000D03*
D13*
X103912500Y-132275000D03*
X105737500Y-132275000D03*
D12*
X107837500Y-84925000D03*
X107837500Y-86825000D03*
X109712500Y-85875000D03*
D14*
X166925000Y-110500000D03*
X166925000Y-112500000D03*
D12*
X108312500Y-106450000D03*
X108312500Y-108350000D03*
X110187500Y-107400000D03*
D10*
X135025000Y-112525000D03*
X135025000Y-110525000D03*
D14*
X143125000Y-110525000D03*
X143125000Y-112525000D03*
D10*
X182200000Y-112500000D03*
X182200000Y-110500000D03*
D13*
X104112500Y-113125000D03*
X105937500Y-113125000D03*
D14*
X117625000Y-86875000D03*
X117625000Y-88875000D03*
X166525000Y-87075000D03*
X166525000Y-89075000D03*
M02*
