G04 #@! TF.GenerationSoftware,KiCad,Pcbnew,(6.0.7)*
G04 #@! TF.CreationDate,2023-03-01T16:32:28+09:00*
G04 #@! TF.ProjectId,main,6d61696e-2e6b-4696-9361-645f70636258,rev?*
G04 #@! TF.SameCoordinates,Original*
G04 #@! TF.FileFunction,Soldermask,Top*
G04 #@! TF.FilePolarity,Negative*
%FSLAX46Y46*%
G04 Gerber Fmt 4.6, Leading zero omitted, Abs format (unit mm)*
G04 Created by KiCad (PCBNEW (6.0.7)) date 2023-03-01 16:32:28*
%MOMM*%
%LPD*%
G01*
G04 APERTURE LIST*
G04 Aperture macros list*
%AMRoundRect*
0 Rectangle with rounded corners*
0 $1 Rounding radius*
0 $2 $3 $4 $5 $6 $7 $8 $9 X,Y pos of 4 corners*
0 Add a 4 corners polygon primitive as box body*
4,1,4,$2,$3,$4,$5,$6,$7,$8,$9,$2,$3,0*
0 Add four circle primitives for the rounded corners*
1,1,$1+$1,$2,$3*
1,1,$1+$1,$4,$5*
1,1,$1+$1,$6,$7*
1,1,$1+$1,$8,$9*
0 Add four rect primitives between the rounded corners*
20,1,$1+$1,$2,$3,$4,$5,0*
20,1,$1+$1,$4,$5,$6,$7,0*
20,1,$1+$1,$6,$7,$8,$9,0*
20,1,$1+$1,$8,$9,$2,$3,0*%
G04 Aperture macros list end*
%ADD10R,3.500000X3.500000*%
%ADD11RoundRect,0.750000X-0.750000X-1.000000X0.750000X-1.000000X0.750000X1.000000X-0.750000X1.000000X0*%
%ADD12RoundRect,0.875000X-0.875000X-0.875000X0.875000X-0.875000X0.875000X0.875000X-0.875000X0.875000X0*%
%ADD13RoundRect,0.250000X0.450000X-0.350000X0.450000X0.350000X-0.450000X0.350000X-0.450000X-0.350000X0*%
%ADD14RoundRect,0.237500X0.250000X0.237500X-0.250000X0.237500X-0.250000X-0.237500X0.250000X-0.237500X0*%
%ADD15RoundRect,0.150000X-0.587500X-0.150000X0.587500X-0.150000X0.587500X0.150000X-0.587500X0.150000X0*%
%ADD16RoundRect,0.237500X-0.250000X-0.237500X0.250000X-0.237500X0.250000X0.237500X-0.250000X0.237500X0*%
%ADD17R,1.700000X1.700000*%
%ADD18O,1.700000X1.700000*%
%ADD19RoundRect,0.250000X-0.450000X0.350000X-0.450000X-0.350000X0.450000X-0.350000X0.450000X0.350000X0*%
%ADD20C,1.440000*%
%ADD21R,1.600000X1.600000*%
%ADD22C,1.600000*%
%ADD23C,1.524000*%
G04 APERTURE END LIST*
D10*
X108775000Y-74867500D03*
D11*
X102775000Y-74867500D03*
D12*
X105775000Y-79567500D03*
D13*
X158425000Y-112425000D03*
X158425000Y-110425000D03*
D14*
X106162500Y-108500000D03*
X104337500Y-108500000D03*
D15*
X107987500Y-132300000D03*
X107987500Y-134200000D03*
X109862500Y-133250000D03*
X108362500Y-111175000D03*
X108362500Y-113075000D03*
X110237500Y-112125000D03*
D16*
X112462500Y-113025000D03*
X114287500Y-113025000D03*
X103912500Y-86850000D03*
X105737500Y-86850000D03*
X112250000Y-108500000D03*
X114075000Y-108500000D03*
D14*
X114262500Y-86800000D03*
X112437500Y-86800000D03*
D17*
X102350000Y-90000000D03*
D18*
X102350000Y-92540000D03*
D19*
X141625000Y-86950000D03*
X141625000Y-88950000D03*
D13*
X156775000Y-88875000D03*
X156775000Y-86875000D03*
D14*
X113887500Y-132275000D03*
X112062500Y-132275000D03*
D13*
X181700000Y-89200000D03*
X181700000Y-87200000D03*
D20*
X113575000Y-118350000D03*
X111035000Y-115810000D03*
X108495000Y-118350000D03*
D19*
X119825000Y-110450000D03*
X119825000Y-112450000D03*
D21*
X162675000Y-73725000D03*
D22*
X162675000Y-76225000D03*
D23*
X141560000Y-91275000D03*
X144100000Y-91275000D03*
X146640000Y-91275000D03*
X149180000Y-91275000D03*
X151720000Y-91275000D03*
X154260000Y-91275000D03*
X156800000Y-91275000D03*
X159340000Y-91275000D03*
X141560000Y-78575000D03*
X144100000Y-78575000D03*
X146640000Y-78575000D03*
X149180000Y-78575000D03*
X151720000Y-78575000D03*
X154260000Y-78575000D03*
X156800000Y-78575000D03*
X159340000Y-78575000D03*
D13*
X132850000Y-88850000D03*
X132850000Y-86850000D03*
D21*
X161275000Y-125655100D03*
D22*
X161275000Y-123155100D03*
D16*
X103912500Y-132275000D03*
X105737500Y-132275000D03*
D20*
X113575000Y-127000000D03*
X111035000Y-124460000D03*
X108495000Y-127000000D03*
D23*
X117630000Y-91275000D03*
X120170000Y-91275000D03*
X122710000Y-91275000D03*
X125250000Y-91275000D03*
X127790000Y-91275000D03*
X130330000Y-91275000D03*
X132870000Y-91275000D03*
X135410000Y-91275000D03*
X117630000Y-78575000D03*
X120170000Y-78575000D03*
X122710000Y-78575000D03*
X125250000Y-78575000D03*
X127790000Y-78575000D03*
X130330000Y-78575000D03*
X132870000Y-78575000D03*
X135410000Y-78575000D03*
D15*
X107837500Y-84925000D03*
X107837500Y-86825000D03*
X109712500Y-85875000D03*
D17*
X102450000Y-116300000D03*
D18*
X102450000Y-118840000D03*
D19*
X166925000Y-110500000D03*
X166925000Y-112500000D03*
D23*
X135025000Y-107900000D03*
X132485000Y-107900000D03*
X129945000Y-107900000D03*
X127405000Y-107900000D03*
X124865000Y-107900000D03*
X122325000Y-107900000D03*
X119785000Y-107900000D03*
X117245000Y-107900000D03*
X135025000Y-120600000D03*
X132485000Y-120600000D03*
X129945000Y-120600000D03*
X127405000Y-120600000D03*
X124865000Y-120600000D03*
X122325000Y-120600000D03*
X119785000Y-120600000D03*
X117245000Y-120600000D03*
D15*
X108312500Y-106450000D03*
X108312500Y-108350000D03*
X110187500Y-107400000D03*
D23*
X166475000Y-91275000D03*
X169015000Y-91275000D03*
X171555000Y-91275000D03*
X174095000Y-91275000D03*
X176635000Y-91275000D03*
X179175000Y-91275000D03*
X181715000Y-91275000D03*
X184255000Y-91275000D03*
X166475000Y-78575000D03*
X169015000Y-78575000D03*
X171555000Y-78575000D03*
X174095000Y-78575000D03*
X176635000Y-78575000D03*
X179175000Y-78575000D03*
X181715000Y-78575000D03*
X184255000Y-78575000D03*
D13*
X135025000Y-112525000D03*
X135025000Y-110525000D03*
D21*
X185550000Y-125855100D03*
D22*
X185550000Y-123355100D03*
D19*
X143125000Y-110525000D03*
X143125000Y-112525000D03*
D23*
X158410000Y-107850000D03*
X155870000Y-107850000D03*
X153330000Y-107850000D03*
X150790000Y-107850000D03*
X148250000Y-107850000D03*
X145710000Y-107850000D03*
X143170000Y-107850000D03*
X140630000Y-107850000D03*
X158410000Y-120550000D03*
X155870000Y-120550000D03*
X153330000Y-120550000D03*
X150790000Y-120550000D03*
X148250000Y-120550000D03*
X145710000Y-120550000D03*
X143170000Y-120550000D03*
X140630000Y-120550000D03*
D17*
X102350000Y-99375000D03*
D18*
X102350000Y-101915000D03*
D13*
X182200000Y-112500000D03*
X182200000Y-110500000D03*
D16*
X104112500Y-113125000D03*
X105937500Y-113125000D03*
D20*
X113825000Y-101400000D03*
X111285000Y-98860000D03*
X108745000Y-101400000D03*
D17*
X102550000Y-124975000D03*
D18*
X102550000Y-127515000D03*
D19*
X117625000Y-86875000D03*
X117625000Y-88875000D03*
D20*
X113850000Y-92025000D03*
X111310000Y-89485000D03*
X108770000Y-92025000D03*
D21*
X138425000Y-73544900D03*
D22*
X138425000Y-76044900D03*
D17*
X177700000Y-98025000D03*
D18*
X177700000Y-100565000D03*
X175160000Y-98025000D03*
X175160000Y-100565000D03*
X172620000Y-98025000D03*
X172620000Y-100565000D03*
X170080000Y-98025000D03*
X170080000Y-100565000D03*
X167540000Y-98025000D03*
X167540000Y-100565000D03*
X165000000Y-98025000D03*
X165000000Y-100565000D03*
X162460000Y-98025000D03*
X162460000Y-100565000D03*
X159920000Y-98025000D03*
X159920000Y-100565000D03*
X157380000Y-98025000D03*
X157380000Y-100565000D03*
X154840000Y-98025000D03*
X154840000Y-100565000D03*
X152300000Y-98025000D03*
X152300000Y-100565000D03*
X149760000Y-98025000D03*
X149760000Y-100565000D03*
X147220000Y-98025000D03*
X147220000Y-100565000D03*
X144680000Y-98025000D03*
X144680000Y-100565000D03*
X142140000Y-98025000D03*
X142140000Y-100565000D03*
X139600000Y-98025000D03*
X139600000Y-100565000D03*
X137060000Y-98025000D03*
X137060000Y-100565000D03*
X134520000Y-98025000D03*
X134520000Y-100565000D03*
X131980000Y-98025000D03*
X131980000Y-100565000D03*
X129440000Y-98025000D03*
X129440000Y-100565000D03*
D21*
X114075000Y-73744900D03*
D22*
X114075000Y-76244900D03*
D19*
X166525000Y-87075000D03*
X166525000Y-89075000D03*
D21*
X138050000Y-125755100D03*
D22*
X138050000Y-123255100D03*
D23*
X182165000Y-107975000D03*
X179625000Y-107975000D03*
X177085000Y-107975000D03*
X174545000Y-107975000D03*
X172005000Y-107975000D03*
X169465000Y-107975000D03*
X166925000Y-107975000D03*
X164385000Y-107975000D03*
X182165000Y-120675000D03*
X179625000Y-120675000D03*
X177085000Y-120675000D03*
X174545000Y-120675000D03*
X172005000Y-120675000D03*
X169465000Y-120675000D03*
X166925000Y-120675000D03*
X164385000Y-120675000D03*
D17*
X129900000Y-126000000D03*
D18*
X127360000Y-126000000D03*
X124820000Y-126000000D03*
X122280000Y-126000000D03*
D17*
X122750000Y-72525000D03*
D18*
X125290000Y-72525000D03*
X127830000Y-72525000D03*
X130370000Y-72525000D03*
D17*
X146625000Y-72650000D03*
D18*
X149165000Y-72650000D03*
X151705000Y-72650000D03*
X154245000Y-72650000D03*
D17*
X177100000Y-126300000D03*
D18*
X174560000Y-126300000D03*
X172020000Y-126300000D03*
X169480000Y-126300000D03*
D17*
X153350000Y-126200000D03*
D18*
X150810000Y-126200000D03*
X148270000Y-126200000D03*
X145730000Y-126200000D03*
D17*
X171650000Y-72625000D03*
D18*
X174190000Y-72625000D03*
X176730000Y-72625000D03*
X179270000Y-72625000D03*
M02*
