M48
; DRILL file {KiCad (6.0.7)} date Wed Mar  1 16:32:32 2023
; FORMAT={-:-/ absolute / metric / decimal}
; #@! TF.CreationDate,2023-03-01T16:32:32+09:00
; #@! TF.GenerationSoftware,Kicad,Pcbnew,(6.0.7)
; #@! TF.FileFunction,MixedPlating,1,2
FMAT,2
METRIC
; #@! TA.AperFunction,Plated,PTH,ViaDrill
T1C0.400
; #@! TA.AperFunction,Plated,PTH,ComponentDrill
T2C0.762
; #@! TA.AperFunction,Plated,PTH,ComponentDrill
T3C0.800
; #@! TA.AperFunction,Plated,PTH,ComponentDrill
T4C1.000
%
G90
G05
T1
X95.25Y-83.55
X95.625Y-74.975
X95.625Y-92.125
X95.8Y-101.65
X95.8Y-109.85
X96.375Y-118.25
X96.55Y-126.1
X107.0Y-66.95
X115.6Y-66.575
X126.4Y-66.575
X128.56Y-93.543
X129.05Y-116.5
X133.3Y-116.5
X133.325Y-66.75
X134.65Y-104.175
X137.15Y-116.5
X143.134Y-82.133
X146.75Y-66.75
X148.35Y-116.25
X154.05Y-103.8
X154.425Y-116.375
X154.6Y-66.75
X160.275Y-116.25
X160.447Y-87.133
X162.8Y-66.75
X173.25Y-66.575
X184.825Y-88.4
X185.0Y-71.425
X185.0Y-94.55
X185.2Y-81.675
X185.2Y-99.975
X185.2Y-112.775
X185.2Y-117.75
X185.375Y-106.125
T2
X117.245Y-107.9
X117.245Y-120.6
X117.63Y-78.575
X117.63Y-91.275
X119.785Y-107.9
X119.785Y-120.6
X120.17Y-78.575
X120.17Y-91.275
X122.325Y-107.9
X122.325Y-120.6
X122.71Y-78.575
X122.71Y-91.275
X124.865Y-107.9
X124.865Y-120.6
X125.25Y-78.575
X125.25Y-91.275
X127.405Y-107.9
X127.405Y-120.6
X127.79Y-78.575
X127.79Y-91.275
X129.945Y-107.9
X129.945Y-120.6
X130.33Y-78.575
X130.33Y-91.275
X132.485Y-107.9
X132.485Y-120.6
X132.87Y-78.575
X132.87Y-91.275
X135.025Y-107.9
X135.025Y-120.6
X135.41Y-78.575
X135.41Y-91.275
X140.63Y-107.85
X140.63Y-120.55
X141.56Y-78.575
X141.56Y-91.275
X143.17Y-107.85
X143.17Y-120.55
X144.1Y-78.575
X144.1Y-91.275
X145.71Y-107.85
X145.71Y-120.55
X146.64Y-78.575
X146.64Y-91.275
X148.25Y-107.85
X148.25Y-120.55
X149.18Y-78.575
X149.18Y-91.275
X150.79Y-107.85
X150.79Y-120.55
X151.72Y-78.575
X151.72Y-91.275
X153.33Y-107.85
X153.33Y-120.55
X154.26Y-78.575
X154.26Y-91.275
X155.87Y-107.85
X155.87Y-120.55
X156.8Y-78.575
X156.8Y-91.275
X158.41Y-107.85
X158.41Y-120.55
X159.34Y-78.575
X159.34Y-91.275
X164.385Y-107.975
X164.385Y-120.675
X166.475Y-78.575
X166.475Y-91.275
X166.925Y-107.975
X166.925Y-120.675
X169.015Y-78.575
X169.015Y-91.275
X169.465Y-107.975
X169.465Y-120.675
X171.555Y-78.575
X171.555Y-91.275
X172.005Y-107.975
X172.005Y-120.675
X174.095Y-78.575
X174.095Y-91.275
X174.545Y-107.975
X174.545Y-120.675
X176.635Y-78.575
X176.635Y-91.275
X177.085Y-107.975
X177.085Y-120.675
X179.175Y-78.575
X179.175Y-91.275
X179.625Y-107.975
X179.625Y-120.675
X181.715Y-78.575
X181.715Y-91.275
X182.165Y-107.975
X182.165Y-120.675
X184.255Y-78.575
X184.255Y-91.275
T3
X108.495Y-118.35
X108.495Y-127.0
X108.745Y-101.4
X108.77Y-92.025
X111.035Y-115.81
X111.035Y-124.46
X111.285Y-98.86
X111.31Y-89.485
X113.575Y-118.35
X113.575Y-127.0
X113.825Y-101.4
X113.85Y-92.025
X114.075Y-73.745
X114.075Y-76.245
X138.05Y-123.255
X138.05Y-125.755
X138.425Y-73.545
X138.425Y-76.045
X161.275Y-123.155
X161.275Y-125.655
X162.675Y-73.725
X162.675Y-76.225
X185.55Y-123.355
X185.55Y-125.855
T4
X102.35Y-90.0
X102.35Y-92.54
X102.35Y-99.375
X102.35Y-101.915
X102.45Y-116.3
X102.45Y-118.84
X102.55Y-124.975
X102.55Y-127.515
X122.28Y-126.0
X122.75Y-72.525
X124.82Y-126.0
X125.29Y-72.525
X127.36Y-126.0
X127.83Y-72.525
X129.44Y-98.025
X129.44Y-100.565
X129.9Y-126.0
X130.37Y-72.525
X131.98Y-98.025
X131.98Y-100.565
X134.52Y-98.025
X134.52Y-100.565
X137.06Y-98.025
X137.06Y-100.565
X139.6Y-98.025
X139.6Y-100.565
X142.14Y-98.025
X142.14Y-100.565
X144.68Y-98.025
X144.68Y-100.565
X145.73Y-126.2
X146.625Y-72.65
X147.22Y-98.025
X147.22Y-100.565
X148.27Y-126.2
X149.165Y-72.65
X149.76Y-98.025
X149.76Y-100.565
X150.81Y-126.2
X151.705Y-72.65
X152.3Y-98.025
X152.3Y-100.565
X153.35Y-126.2
X154.245Y-72.65
X154.84Y-98.025
X154.84Y-100.565
X157.38Y-98.025
X157.38Y-100.565
X159.92Y-98.025
X159.92Y-100.565
X162.46Y-98.025
X162.46Y-100.565
X165.0Y-98.025
X165.0Y-100.565
X167.54Y-98.025
X167.54Y-100.565
X169.48Y-126.3
X170.08Y-98.025
X170.08Y-100.565
X171.65Y-72.625
X172.02Y-126.3
X172.62Y-98.025
X172.62Y-100.565
X174.19Y-72.625
X174.56Y-126.3
X175.16Y-98.025
X175.16Y-100.565
X176.73Y-72.625
X177.1Y-126.3
X177.7Y-98.025
X177.7Y-100.565
X179.27Y-72.625
T4
G00X102.775Y-73.867
M15
G01X102.775Y-75.867
M16
G05
G00X104.775Y-79.567
M15
G01X106.775Y-79.567
M16
G05
G00X108.775Y-73.867
M15
G01X108.775Y-75.867
M16
G05
T0
M30
