%TF.GenerationSoftware,KiCad,Pcbnew,8.0.4-8.0.4-0~ubuntu22.04.1*%
%TF.CreationDate,2025-03-22T16:34:59+09:00*%
%TF.ProjectId,main,6d61696e-2e6b-4696-9361-645f70636258,rev?*%
%TF.SameCoordinates,Original*%
%TF.FileFunction,Soldermask,Bot*%
%TF.FilePolarity,Negative*%
%FSLAX46Y46*%
G04 Gerber Fmt 4.6, Leading zero omitted, Abs format (unit mm)*
G04 Created by KiCad (PCBNEW 8.0.4-8.0.4-0~ubuntu22.04.1) date 2025-03-22 16:34:59*
%MOMM*%
%LPD*%
G01*
G04 APERTURE LIST*
G04 Aperture macros list*
%AMRoundRect*
0 Rectangle with rounded corners*
0 $1 Rounding radius*
0 $2 $3 $4 $5 $6 $7 $8 $9 X,Y pos of 4 corners*
0 Add a 4 corners polygon primitive as box body*
4,1,4,$2,$3,$4,$5,$6,$7,$8,$9,$2,$3,0*
0 Add four circle primitives for the rounded corners*
1,1,$1+$1,$2,$3*
1,1,$1+$1,$4,$5*
1,1,$1+$1,$6,$7*
1,1,$1+$1,$8,$9*
0 Add four rect primitives between the rounded corners*
20,1,$1+$1,$2,$3,$4,$5,0*
20,1,$1+$1,$4,$5,$6,$7,0*
20,1,$1+$1,$6,$7,$8,$9,0*
20,1,$1+$1,$8,$9,$2,$3,0*%
G04 Aperture macros list end*
%ADD10R,3.500000X3.500000*%
%ADD11RoundRect,0.750000X-0.750000X-1.000000X0.750000X-1.000000X0.750000X1.000000X-0.750000X1.000000X0*%
%ADD12RoundRect,0.875000X-0.875000X-0.875000X0.875000X-0.875000X0.875000X0.875000X-0.875000X0.875000X0*%
%ADD13RoundRect,0.250000X0.600000X0.725000X-0.600000X0.725000X-0.600000X-0.725000X0.600000X-0.725000X0*%
%ADD14O,1.700000X1.950000*%
%ADD15C,3.200000*%
%ADD16R,2.000000X2.000000*%
%ADD17C,2.000000*%
%ADD18R,0.700000X1.100000*%
%ADD19R,0.800000X1.100000*%
%ADD20RoundRect,0.250000X-0.350000X-0.625000X0.350000X-0.625000X0.350000X0.625000X-0.350000X0.625000X0*%
%ADD21O,1.200000X1.750000*%
%ADD22RoundRect,0.250000X-0.625000X0.350000X-0.625000X-0.350000X0.625000X-0.350000X0.625000X0.350000X0*%
%ADD23O,1.750000X1.200000*%
%ADD24R,1.600000X1.600000*%
%ADD25C,1.600000*%
%ADD26C,1.524000*%
%ADD27C,1.440000*%
%ADD28RoundRect,0.250000X-0.400000X-0.625000X0.400000X-0.625000X0.400000X0.625000X-0.400000X0.625000X0*%
%ADD29R,1.700000X1.700000*%
%ADD30O,1.700000X1.700000*%
%ADD31C,0.800000*%
G04 APERTURE END LIST*
D10*
%TO.C,J3*%
X108075000Y-74850000D03*
D11*
X102075000Y-74850000D03*
D12*
X105075000Y-79550000D03*
%TD*%
D13*
%TO.C,J11*%
X170405000Y-83550000D03*
D14*
X167905000Y-83550000D03*
X165405000Y-83550000D03*
X162905000Y-83550000D03*
%TD*%
D15*
%TO.C,H2*%
X185925000Y-66550000D03*
%TD*%
D13*
%TO.C,J6*%
X146830000Y-83650001D03*
D14*
X144330000Y-83650001D03*
X141830000Y-83650001D03*
X139330000Y-83650001D03*
%TD*%
D15*
%TO.C,H3*%
X185925000Y-132550000D03*
%TD*%
D16*
%TO.C,C10*%
X116675000Y-74775000D03*
D17*
X116675000Y-69775000D03*
%TD*%
D13*
%TO.C,J4*%
X170550000Y-107375000D03*
D14*
X168050000Y-107375000D03*
X165550000Y-107375000D03*
X163050000Y-107375000D03*
%TD*%
D15*
%TO.C,H4*%
X96925000Y-132550000D03*
%TD*%
%TO.C,H1*%
X96925000Y-66550000D03*
%TD*%
D18*
%TO.C,U4*%
X112200000Y-83960000D03*
X113299999Y-83960000D03*
D19*
X114450000Y-83960000D03*
D18*
X115600000Y-83960000D03*
X116700001Y-83960000D03*
X116700000Y-82260000D03*
X116700000Y-80559999D03*
X115600000Y-80560000D03*
D19*
X114450000Y-80560000D03*
D18*
X113300000Y-80559999D03*
X112200000Y-80560000D03*
X112200000Y-82259999D03*
D19*
X114450000Y-82260000D03*
D18*
X115600001Y-82260000D03*
%TD*%
D20*
%TO.C,J10*%
X104250000Y-128750000D03*
D21*
X106250001Y-128750000D03*
%TD*%
D22*
%TO.C,J14*%
X100870000Y-107850000D03*
D23*
X100870000Y-109850000D03*
X100870000Y-111850000D03*
%TD*%
D13*
%TO.C,J8*%
X170625000Y-131800000D03*
D14*
X168125000Y-131800000D03*
X165625000Y-131800000D03*
X163125000Y-131800000D03*
%TD*%
D24*
%TO.C,C18*%
X155005000Y-105300000D03*
D25*
X155005000Y-107800000D03*
%TD*%
D26*
%TO.C,U6*%
X175615000Y-88750000D03*
X173075000Y-88750000D03*
X170535001Y-88750000D03*
X167995000Y-88750000D03*
X165455000Y-88750000D03*
X162915000Y-88750000D03*
X160375000Y-88750000D03*
X157834999Y-88750000D03*
X175615000Y-101450000D03*
X173075000Y-101450000D03*
X170535000Y-101450001D03*
X167995000Y-101450000D03*
X165455000Y-101450000D03*
X162915000Y-101450000D03*
X160375000Y-101450000D03*
X157835000Y-101450001D03*
%TD*%
D24*
%TO.C,C20*%
X155100000Y-129294887D03*
D25*
X155100000Y-131794887D03*
%TD*%
D27*
%TO.C,RV1*%
X108845000Y-94815000D03*
X111385000Y-92275000D03*
X108845000Y-89735000D03*
%TD*%
D13*
%TO.C,J7*%
X146870000Y-131825000D03*
D14*
X144370000Y-131825000D03*
X141870000Y-131825000D03*
X139370000Y-131825000D03*
%TD*%
D26*
%TO.C,U8*%
X151949999Y-65474999D03*
X149409999Y-65474999D03*
X146870000Y-65474999D03*
X144329999Y-65474999D03*
X141789999Y-65474999D03*
X139249999Y-65474999D03*
X136709999Y-65474999D03*
X134169998Y-65474999D03*
X151949999Y-78174999D03*
X149409999Y-78174999D03*
X146869999Y-78175000D03*
X144329999Y-78174999D03*
X141789999Y-78174999D03*
X139249999Y-78174999D03*
X136709999Y-78174999D03*
X134169999Y-78175000D03*
%TD*%
D13*
%TO.C,J5*%
X146720000Y-107400000D03*
D14*
X144220000Y-107400000D03*
X141720000Y-107400000D03*
X139220000Y-107400000D03*
%TD*%
D20*
%TO.C,J9*%
X118450000Y-128800000D03*
D21*
X120450001Y-128800000D03*
%TD*%
D26*
%TO.C,U11*%
X175530000Y-65450000D03*
X172990000Y-65450000D03*
X170450001Y-65450000D03*
X167910000Y-65450000D03*
X165370000Y-65450000D03*
X162830000Y-65450000D03*
X160290000Y-65450000D03*
X157749999Y-65450000D03*
X175530000Y-78150000D03*
X172990000Y-78150000D03*
X170450000Y-78150001D03*
X167910000Y-78150000D03*
X165370000Y-78150000D03*
X162830000Y-78150000D03*
X160290000Y-78150000D03*
X157750000Y-78150001D03*
%TD*%
D22*
%TO.C,J2*%
X100850000Y-116860000D03*
D23*
X100850000Y-118860001D03*
X100850000Y-120860000D03*
%TD*%
D26*
%TO.C,U7*%
X151895000Y-88750000D03*
X149355000Y-88750000D03*
X146815001Y-88750000D03*
X144275000Y-88750000D03*
X141735000Y-88750000D03*
X139195000Y-88750000D03*
X136655000Y-88750000D03*
X134114999Y-88750000D03*
X151895000Y-101450000D03*
X149355000Y-101450000D03*
X146815000Y-101450001D03*
X144275000Y-101450000D03*
X141735000Y-101450000D03*
X139195000Y-101450000D03*
X136655000Y-101450000D03*
X134115000Y-101450001D03*
%TD*%
D24*
%TO.C,C21*%
X179455000Y-129069887D03*
D25*
X179455000Y-131569887D03*
%TD*%
D26*
%TO.C,U9*%
X151930000Y-113475000D03*
X149390000Y-113475000D03*
X146850000Y-113475000D03*
X144310000Y-113475000D03*
X141770000Y-113475000D03*
X139230000Y-113475000D03*
X136690000Y-113475000D03*
X134150000Y-113475000D03*
X151930000Y-126175000D03*
X149390000Y-126175000D03*
X146850000Y-126175000D03*
X144310000Y-126175000D03*
X141770000Y-126175000D03*
X139230000Y-126175000D03*
X136690000Y-126175000D03*
X134150000Y-126175000D03*
%TD*%
D20*
%TO.C,J13*%
X111299999Y-128750001D03*
D21*
X113300000Y-128750001D03*
%TD*%
D20*
%TO.C,J12*%
X125600001Y-128800000D03*
D21*
X127600002Y-128800000D03*
%TD*%
D24*
%TO.C,C17*%
X179480000Y-105300000D03*
D25*
X179480000Y-107800000D03*
%TD*%
D24*
%TO.C,C19*%
X155155000Y-81069887D03*
D25*
X155155000Y-83569887D03*
%TD*%
D24*
%TO.C,C22*%
X179505000Y-81119887D03*
D25*
X179505000Y-83619887D03*
%TD*%
D26*
%TO.C,U10*%
X175690000Y-113475000D03*
X173150000Y-113475000D03*
X170610000Y-113475000D03*
X168070000Y-113475000D03*
X165530000Y-113475000D03*
X162990000Y-113475000D03*
X160450000Y-113475000D03*
X157910000Y-113475000D03*
X175690000Y-126175000D03*
X173150000Y-126175000D03*
X170610000Y-126175000D03*
X168070000Y-126175000D03*
X165530000Y-126175000D03*
X162990000Y-126175000D03*
X160450000Y-126175000D03*
X157910000Y-126175000D03*
%TD*%
D28*
%TO.C,R12*%
X112249999Y-77754646D03*
X115350001Y-77754646D03*
%TD*%
D29*
%TO.C,J1*%
X98145000Y-114100000D03*
D30*
X98145000Y-116640000D03*
X98145000Y-119180000D03*
X98145000Y-121720000D03*
%TD*%
D31*
X157910000Y-124870000D03*
X182920000Y-68950000D03*
X130620000Y-95750000D03*
X174640000Y-66790000D03*
X106890000Y-108230000D03*
X170470000Y-76620000D03*
X99370000Y-72480000D03*
X112880000Y-104190000D03*
X160340000Y-95880000D03*
X102020000Y-121360000D03*
X134670000Y-82310000D03*
X170450000Y-71130000D03*
X163090000Y-116080000D03*
X122580000Y-91340000D03*
X122080000Y-120950000D03*
X149090000Y-111900000D03*
X135390000Y-135100000D03*
X183610000Y-107300000D03*
X126010000Y-112520000D03*
X124000000Y-123000000D03*
X156510000Y-101450000D03*
X160330000Y-70990000D03*
X129530000Y-78260000D03*
X107210000Y-100450000D03*
X119490000Y-121080000D03*
X136610000Y-95740000D03*
X127450000Y-123910000D03*
X139280000Y-69220000D03*
X108660000Y-69540000D03*
X102530000Y-80900000D03*
X177410000Y-111870000D03*
X149000000Y-79710000D03*
X157940000Y-71000000D03*
X96870000Y-75030000D03*
X120820000Y-100980000D03*
X177540000Y-127480000D03*
X130810000Y-88230000D03*
X164190000Y-103270000D03*
X107640000Y-102460000D03*
X119380000Y-125330000D03*
X136680000Y-111920000D03*
X142030000Y-93380000D03*
X152990000Y-116110000D03*
X121540000Y-64400000D03*
X163420000Y-121020000D03*
X122280000Y-88440000D03*
X115600000Y-67040000D03*
X124730000Y-108330000D03*
X119410000Y-67020000D03*
X110059999Y-114310000D03*
X187810000Y-83630000D03*
X142030000Y-91530000D03*
X111130000Y-80020000D03*
X142020000Y-110160000D03*
X110700000Y-72960000D03*
X160080000Y-107030000D03*
X105180000Y-125270000D03*
X112260000Y-96040000D03*
X161560000Y-66380000D03*
X109830000Y-130150000D03*
X164250000Y-112430000D03*
X133240000Y-82310000D03*
X96720000Y-115560000D03*
X117710000Y-83670000D03*
X123240000Y-109940000D03*
X146860000Y-99880000D03*
X176560000Y-66800000D03*
X108270000Y-118150000D03*
X144340000Y-72980000D03*
X143060000Y-114370000D03*
X115040000Y-86320000D03*
X110530000Y-100760000D03*
X161500000Y-84450000D03*
X144370000Y-76670000D03*
X102210000Y-98420000D03*
X159040000Y-64350000D03*
X158300000Y-107030000D03*
X172820000Y-90350000D03*
X115620000Y-79260000D03*
X149010000Y-87140000D03*
X149030000Y-83150000D03*
X153300000Y-64320000D03*
X124440000Y-67910000D03*
X141820000Y-72980000D03*
X159150000Y-114340000D03*
X162940000Y-91320000D03*
X170880000Y-116170000D03*
X173150000Y-124860000D03*
X119790000Y-130140000D03*
X176530000Y-69430000D03*
X110080000Y-121210000D03*
X164020000Y-82020000D03*
X142020000Y-95730000D03*
X160320000Y-87030000D03*
X141530000Y-66970000D03*
X115800000Y-135000000D03*
X134620000Y-95780000D03*
X170550000Y-109220000D03*
X187590000Y-70330000D03*
X110209999Y-116890000D03*
X187810000Y-127260000D03*
X129870000Y-103960000D03*
X119160000Y-78340000D03*
X161720000Y-100150000D03*
X118540000Y-95530000D03*
X181620000Y-127510000D03*
X172890000Y-87020000D03*
X134100000Y-102750000D03*
X132080000Y-79860000D03*
X121320000Y-106560000D03*
X177660000Y-103300000D03*
X103700000Y-89770000D03*
X101100000Y-84820000D03*
X167950000Y-76620000D03*
X144260000Y-109470000D03*
X98090000Y-108940000D03*
X140600000Y-84810000D03*
X144280000Y-99920000D03*
X166770000Y-112440000D03*
X99290000Y-122710000D03*
X174650000Y-69430000D03*
X133240000Y-87410000D03*
X180910000Y-97410000D03*
X160270000Y-76600000D03*
X156880000Y-91800000D03*
X137930000Y-79650000D03*
X156370000Y-131810000D03*
X164300000Y-108500000D03*
X97550000Y-89570000D03*
X134550000Y-111960000D03*
X113570000Y-117220000D03*
X104380000Y-121970000D03*
X103780000Y-87720000D03*
X172860000Y-115020000D03*
X120700000Y-78320000D03*
X165680000Y-76600000D03*
X134750000Y-87410000D03*
X140430000Y-106150000D03*
X123770000Y-76600000D03*
X118620000Y-113360000D03*
X117960000Y-100850000D03*
X130040000Y-112470000D03*
X118950000Y-111770000D03*
X176770000Y-89860000D03*
X96750000Y-86520000D03*
X113190000Y-123860000D03*
X168010000Y-99880000D03*
X113720000Y-64430000D03*
X127640000Y-87890000D03*
X147890000Y-115790000D03*
X165880000Y-109220000D03*
X103160000Y-83420000D03*
X140550000Y-82360000D03*
X102480000Y-119040000D03*
X157830000Y-100100000D03*
X98930000Y-91200000D03*
X102220000Y-103540000D03*
X148970000Y-76640000D03*
X98070000Y-105400000D03*
X165570000Y-90420000D03*
X132447500Y-98197500D03*
X149080000Y-67210000D03*
X102210000Y-96670000D03*
X172720000Y-67050000D03*
X107560000Y-87790000D03*
X133220000Y-93440000D03*
X177730000Y-131080000D03*
X153030000Y-114360000D03*
X156720000Y-114380000D03*
X173040000Y-73000000D03*
X149200000Y-70580000D03*
X183630000Y-119320000D03*
X97940000Y-92650000D03*
X161710000Y-124120000D03*
X174510000Y-93850000D03*
X101190000Y-134340000D03*
X140530000Y-130430000D03*
X130980000Y-91470000D03*
X119650000Y-89890000D03*
X155780000Y-103490000D03*
X153320000Y-106130000D03*
X96760000Y-120500000D03*
X170520000Y-95910000D03*
X178270000Y-124030000D03*
X159220000Y-124120000D03*
X106170000Y-85160000D03*
X165570000Y-87060000D03*
X122060000Y-115640000D03*
X183590000Y-79150000D03*
X140520000Y-79040000D03*
X120260000Y-123930000D03*
X170430000Y-73020000D03*
X129990000Y-117510000D03*
X165630000Y-66940000D03*
X121440000Y-72860000D03*
X139560000Y-111940000D03*
X146750000Y-76660000D03*
X112380000Y-121030000D03*
X157760000Y-76830000D03*
X127430000Y-96220000D03*
X161290000Y-131180000D03*
X149360000Y-124730000D03*
X167950000Y-66970000D03*
X177440000Y-76510000D03*
X153580000Y-107760000D03*
X170580000Y-99840000D03*
X173110000Y-99850000D03*
X155330000Y-70620000D03*
X144370000Y-93390000D03*
X96730000Y-83490000D03*
X96780000Y-124970000D03*
X123930000Y-120930000D03*
X119430000Y-127240000D03*
X115740000Y-100440000D03*
X177910000Y-83610000D03*
X102040000Y-77160000D03*
X98250000Y-83520000D03*
X140540000Y-89950000D03*
X110110000Y-102480000D03*
X107260000Y-125330000D03*
X181520000Y-134730000D03*
X106050000Y-96180000D03*
X147080000Y-117520000D03*
X161690000Y-127480000D03*
X131340000Y-64410000D03*
X134710000Y-79830000D03*
X107850000Y-93470000D03*
X102190000Y-100130000D03*
X156800000Y-69050000D03*
X153307500Y-111860000D03*
X134690000Y-73040000D03*
X160350000Y-73000000D03*
X124790000Y-106600000D03*
X136580000Y-98230000D03*
X167980000Y-71130000D03*
X139110000Y-124100000D03*
X115790000Y-98440000D03*
X173160000Y-127490000D03*
X183610000Y-87950000D03*
X119280000Y-82240000D03*
X159120000Y-116070000D03*
X160370000Y-92520000D03*
X111925000Y-102830000D03*
X122340000Y-83780000D03*
X132880000Y-89960000D03*
X123930000Y-116250000D03*
X117830000Y-98950000D03*
X174670000Y-116970000D03*
X127620000Y-91420000D03*
X106480000Y-104340000D03*
X168020000Y-73000000D03*
X109890000Y-93490000D03*
X158250000Y-110220000D03*
X112230000Y-125550000D03*
X116860000Y-122940000D03*
X139100000Y-116350000D03*
X149170000Y-91490000D03*
X172780000Y-84500000D03*
X131580000Y-69240000D03*
X121410000Y-125360000D03*
X121750000Y-79770000D03*
X126650000Y-121040000D03*
X139180000Y-91110000D03*
X112740000Y-130160000D03*
X177650000Y-80020000D03*
X182840000Y-73030000D03*
X170480000Y-66940000D03*
X162800000Y-68270000D03*
X112240000Y-127290000D03*
X172850000Y-95610000D03*
X132090000Y-76720000D03*
X108560000Y-81910000D03*
X127000000Y-130330000D03*
X94750000Y-72480000D03*
X143070000Y-64810000D03*
X110690000Y-76710000D03*
X177910000Y-107170000D03*
X121390000Y-95940000D03*
X114760000Y-106860000D03*
X169330000Y-114370000D03*
X99620000Y-115580000D03*
X166630000Y-64280000D03*
X171840000Y-112500000D03*
X158240000Y-103500000D03*
X170500000Y-90390000D03*
X153370000Y-80060000D03*
X146820000Y-70000000D03*
X174140000Y-97370000D03*
X124250000Y-95350000D03*
X128600000Y-120830000D03*
X181420000Y-65180000D03*
X179460000Y-133120000D03*
X125260000Y-84040000D03*
X173090000Y-102950000D03*
X137920000Y-108530000D03*
X153590000Y-84150000D03*
X142130000Y-85450000D03*
X105400000Y-118790000D03*
X98050000Y-112290000D03*
X116930000Y-130140000D03*
X136500000Y-82330000D03*
X165630000Y-71040000D03*
X187570000Y-110060000D03*
X180860000Y-99820000D03*
X139340000Y-68160000D03*
X166790000Y-114340000D03*
X104240000Y-74830000D03*
X130250000Y-99460000D03*
X165670000Y-73020000D03*
X96870000Y-80830000D03*
X161700000Y-112430000D03*
X157760000Y-79480000D03*
X124020000Y-130070000D03*
X109329999Y-112670000D03*
X169210000Y-133190000D03*
X114460000Y-125560000D03*
X156430000Y-107800000D03*
X127070000Y-111340000D03*
X153270000Y-76530000D03*
X148890000Y-99730000D03*
X124445000Y-103800000D03*
X180860000Y-118650000D03*
X130010000Y-116100000D03*
X157950000Y-73000000D03*
X161710000Y-114340000D03*
X149230000Y-95730000D03*
X142040000Y-99880000D03*
X132160000Y-66430000D03*
X157010000Y-111990000D03*
X153820000Y-101460000D03*
X150660000Y-112650000D03*
X172540000Y-119150000D03*
X124440000Y-71140000D03*
X136610000Y-76590000D03*
X103660000Y-85030000D03*
X177400000Y-87120000D03*
X127060000Y-78230000D03*
X178210000Y-121490000D03*
X172730000Y-107160000D03*
X160100000Y-111790000D03*
X102150000Y-105340000D03*
X140400000Y-102450000D03*
X125420000Y-79980000D03*
X138710000Y-99850000D03*
X102700000Y-130120000D03*
X180890000Y-103330000D03*
X96770000Y-117870000D03*
X134100000Y-100170000D03*
X183680000Y-125420000D03*
X174410000Y-112530000D03*
X136540000Y-103040000D03*
X181340000Y-76800000D03*
X166780000Y-116070000D03*
X102190000Y-101820000D03*
X113450000Y-113380000D03*
X100990000Y-64510000D03*
X109980000Y-88650000D03*
X117850000Y-79820000D03*
X173060000Y-76650000D03*
X134620000Y-98190000D03*
X134150000Y-124880000D03*
X172430000Y-131270000D03*
X138010000Y-82310000D03*
X177422499Y-64450000D03*
X149100000Y-110180000D03*
X95100000Y-128100000D03*
X97940000Y-84780000D03*
X155000000Y-109200000D03*
X126740000Y-114280000D03*
X140480000Y-108510000D03*
X151490000Y-135070000D03*
X136620000Y-69240000D03*
X118290000Y-69750000D03*
X124080000Y-91462500D03*
X103120000Y-92900000D03*
X99090000Y-87050000D03*
X107620000Y-79450000D03*
X181080000Y-107180000D03*
X176820000Y-114630000D03*
X144380000Y-91520000D03*
X115030000Y-69770000D03*
X103350000Y-120680000D03*
X161430000Y-107010000D03*
X153360000Y-87130000D03*
X129560000Y-85720000D03*
X136560000Y-87280000D03*
X167980000Y-109240000D03*
X130050000Y-114250000D03*
X100950000Y-91210000D03*
X167990000Y-90390000D03*
X169290000Y-112450000D03*
X104890000Y-115940000D03*
X111640000Y-87840000D03*
X135430000Y-64800000D03*
X117700000Y-82260000D03*
X116790000Y-121060000D03*
X148240000Y-130260000D03*
X171730000Y-64300000D03*
X129400000Y-69230000D03*
X121310000Y-104040000D03*
X109710000Y-81130000D03*
X105640000Y-130150000D03*
X134550000Y-69230000D03*
X148250000Y-120990000D03*
X116590000Y-109390000D03*
X146800000Y-95740000D03*
X181060000Y-83630000D03*
X111040000Y-83570000D03*
X102480000Y-116640000D03*
X157960000Y-84480000D03*
X116810000Y-115340000D03*
X156700000Y-116080000D03*
X153670000Y-131820000D03*
X102390000Y-112380000D03*
X143060000Y-130440000D03*
X164270000Y-133190000D03*
X108529999Y-115450000D03*
X164340000Y-100140000D03*
X121320000Y-69030000D03*
X156700000Y-119150000D03*
X182440000Y-131390000D03*
X126570000Y-125270000D03*
X185400000Y-129100000D03*
X112090000Y-90840000D03*
X172750000Y-71110000D03*
X96870000Y-70520000D03*
X167950000Y-117920000D03*
X131130000Y-121050000D03*
X110060000Y-96060000D03*
X146800000Y-109450000D03*
X156590000Y-126220000D03*
X116640000Y-68100000D03*
X146800000Y-91490000D03*
X149010000Y-72990000D03*
X136630000Y-93410000D03*
X137970000Y-64810000D03*
X136640000Y-73010000D03*
X174260000Y-120240000D03*
X106060000Y-91600000D03*
X134630000Y-66950000D03*
X149220000Y-93410000D03*
X132780000Y-101520000D03*
X149340000Y-127560000D03*
X139220000Y-87260000D03*
X155890000Y-127480000D03*
X113410000Y-88010000D03*
X106860000Y-83700000D03*
X145600000Y-130330000D03*
X187750000Y-97050000D03*
X121300000Y-107900000D03*
X137830000Y-127470000D03*
X146780000Y-72990000D03*
X183680000Y-103330000D03*
X181120000Y-88110000D03*
X146800000Y-93410000D03*
X157690000Y-87110000D03*
X116470000Y-77760000D03*
X128350000Y-84050000D03*
X166060000Y-135070000D03*
X144380000Y-95740000D03*
X148980000Y-102860000D03*
X172710000Y-110180000D03*
X155190000Y-93420000D03*
X137980000Y-114370000D03*
X173020000Y-79700000D03*
X99890000Y-74830000D03*
X118930000Y-86130000D03*
X104710000Y-112760000D03*
X106180000Y-123850000D03*
X142150000Y-87210000D03*
X108010000Y-121120000D03*
X150640000Y-66210000D03*
X108970000Y-85140000D03*
X141720000Y-76660000D03*
X168040000Y-95910000D03*
X134150000Y-76840000D03*
X126770000Y-116200000D03*
X103540000Y-109200000D03*
X165570000Y-95910000D03*
X132830000Y-78190000D03*
X156600000Y-89740000D03*
X116700000Y-71370000D03*
X157880000Y-95860000D03*
X156790000Y-66790000D03*
X105250000Y-127340000D03*
X126580000Y-127360000D03*
X132830000Y-126230000D03*
X110090000Y-122970000D03*
X141990000Y-111950000D03*
D25*
X109950000Y-78870000D03*
D31*
X104020000Y-95780000D03*
D25*
X104759999Y-108090000D03*
D31*
X101040000Y-86040000D03*
D25*
X128960000Y-95700000D03*
X182310000Y-102290000D03*
X122930000Y-104170000D03*
X110100000Y-99190000D03*
X114460000Y-104190000D03*
D31*
X118115000Y-107475000D03*
X134180000Y-92460000D03*
X122510000Y-92440000D03*
X127740000Y-89090000D03*
X132790000Y-64450000D03*
X127740000Y-90120000D03*
X133570000Y-72640000D03*
X129150000Y-72370000D03*
X116900000Y-91760000D03*
X128030887Y-72376401D03*
X116175000Y-90890000D03*
X169590000Y-116140000D03*
X115175247Y-90912341D03*
X126930000Y-72350000D03*
X118075304Y-106410000D03*
X117120251Y-108129749D03*
X155720000Y-118510000D03*
X114400000Y-94070000D03*
X125810000Y-72370000D03*
X166710000Y-117740000D03*
X131720000Y-93440000D03*
X116210000Y-96460000D03*
X116810000Y-100850000D03*
X134170000Y-94370000D03*
X113090000Y-94080000D03*
X124797270Y-72367424D03*
X115110000Y-111430000D03*
X116380000Y-110680000D03*
M02*
