M48
; DRILL file {KiCad 8.0.4-8.0.4-0~ubuntu22.04.1} date 2025-03-22T16:35:10+0900
; FORMAT={-:-/ absolute / metric / decimal}
; #@! TF.CreationDate,2025-03-22T16:35:10+09:00
; #@! TF.GenerationSoftware,Kicad,Pcbnew,8.0.4-8.0.4-0~ubuntu22.04.1
; #@! TF.FileFunction,Plated,1,2,PTH
FMAT,2
METRIC
; #@! TA.AperFunction,Plated,PTH,ViaDrill
T1C0.400
; #@! TA.AperFunction,Plated,PTH,ComponentDrill
T2C0.500
; #@! TA.AperFunction,Plated,PTH,ComponentDrill
T3C0.750
; #@! TA.AperFunction,Plated,PTH,ComponentDrill
T4C0.762
; #@! TA.AperFunction,Plated,PTH,ViaDrill
T5C0.800
; #@! TA.AperFunction,Plated,PTH,ComponentDrill
T6C0.800
; #@! TA.AperFunction,Plated,PTH,ComponentDrill
T7C0.950
; #@! TA.AperFunction,Plated,PTH,ComponentDrill
T8C1.000
%
G90
G05
T1
X94.75Y-72.48
X95.1Y-128.1
X96.72Y-115.56
X96.73Y-83.49
X96.75Y-86.52
X96.76Y-120.5
X96.77Y-117.87
X96.78Y-124.97
X96.87Y-70.52
X96.87Y-75.03
X96.87Y-80.83
X97.55Y-89.57
X97.94Y-84.78
X97.94Y-92.65
X98.05Y-112.29
X98.07Y-105.4
X98.09Y-108.94
X98.25Y-83.52
X98.93Y-91.2
X99.09Y-87.05
X99.29Y-122.71
X99.37Y-72.48
X99.62Y-115.58
X99.89Y-74.83
X100.95Y-91.21
X100.99Y-64.51
X101.04Y-86.04
X101.1Y-84.82
X101.19Y-134.34
X102.02Y-121.36
X102.04Y-77.16
X102.15Y-105.34
X102.19Y-100.13
X102.19Y-101.82
X102.21Y-96.67
X102.21Y-98.42
X102.22Y-103.54
X102.39Y-112.38
X102.48Y-116.64
X102.48Y-119.04
X102.53Y-80.9
X102.7Y-130.12
X103.12Y-92.9
X103.16Y-83.42
X103.35Y-120.68
X103.54Y-109.2
X103.66Y-85.03
X103.7Y-89.77
X103.78Y-87.72
X104.02Y-95.78
X104.24Y-74.83
X104.38Y-121.97
X104.71Y-112.76
X104.89Y-115.94
X105.18Y-125.27
X105.25Y-127.34
X105.4Y-118.79
X105.64Y-130.15
X106.05Y-96.18
X106.06Y-91.6
X106.17Y-85.16
X106.18Y-123.85
X106.48Y-104.34
X106.86Y-83.7
X106.89Y-108.23
X107.21Y-100.45
X107.26Y-125.33
X107.56Y-87.79
X107.62Y-79.45
X107.64Y-102.46
X107.85Y-93.47
X108.01Y-121.12
X108.27Y-118.15
X108.53Y-115.45
X108.56Y-81.91
X108.66Y-69.54
X108.97Y-85.14
X109.33Y-112.67
X109.71Y-81.13
X109.83Y-130.15
X109.89Y-93.49
X109.98Y-88.65
X110.06Y-114.31
X110.06Y-96.06
X110.08Y-121.21
X110.09Y-122.97
X110.11Y-102.48
X110.21Y-116.89
X110.53Y-100.76
X110.69Y-76.71
X110.7Y-72.96
X111.04Y-83.57
X111.13Y-80.02
X111.64Y-87.84
X111.925Y-102.83
X112.09Y-90.84
X112.23Y-125.55
X112.24Y-127.29
X112.26Y-96.04
X112.38Y-121.03
X112.74Y-130.16
X112.88Y-104.19
X113.09Y-94.08
X113.19Y-123.86
X113.41Y-88.01
X113.45Y-113.38
X113.57Y-117.22
X113.72Y-64.43
X114.4Y-94.07
X114.46Y-125.56
X114.76Y-106.86
X115.03Y-69.77
X115.04Y-86.32
X115.11Y-111.43
X115.175Y-90.912
X115.6Y-67.04
X115.62Y-79.26
X115.74Y-100.44
X115.79Y-98.44
X115.8Y-135.0
X116.175Y-90.89
X116.21Y-96.46
X116.38Y-110.68
X116.47Y-77.76
X116.59Y-109.39
X116.64Y-68.1
X116.7Y-71.37
X116.79Y-121.06
X116.81Y-100.85
X116.81Y-115.34
X116.86Y-122.94
X116.9Y-91.76
X116.93Y-130.14
X117.12Y-108.13
X117.7Y-82.26
X117.71Y-83.67
X117.83Y-98.95
X117.85Y-79.82
X117.96Y-100.85
X118.075Y-106.41
X118.115Y-107.475
X118.29Y-69.75
X118.54Y-95.53
X118.62Y-113.36
X118.93Y-86.13
X118.95Y-111.77
X119.16Y-78.34
X119.28Y-82.24
X119.38Y-125.33
X119.41Y-67.02
X119.43Y-127.24
X119.49Y-121.08
X119.65Y-89.89
X119.79Y-130.14
X120.26Y-123.93
X120.7Y-78.32
X120.82Y-100.98
X121.3Y-107.9
X121.31Y-104.04
X121.32Y-69.03
X121.32Y-106.56
X121.39Y-95.94
X121.41Y-125.36
X121.44Y-72.86
X121.54Y-64.4
X121.75Y-79.77
X122.06Y-115.64
X122.08Y-120.95
X122.28Y-88.44
X122.34Y-83.78
X122.51Y-92.44
X122.58Y-91.34
X123.24Y-109.94
X123.77Y-76.6
X123.93Y-116.25
X123.93Y-120.93
X124.0Y-123.0
X124.02Y-130.07
X124.08Y-91.462
X124.25Y-95.35
X124.44Y-67.91
X124.44Y-71.14
X124.445Y-103.8
X124.73Y-108.33
X124.79Y-106.6
X124.797Y-72.367
X125.26Y-84.04
X125.42Y-79.98
X125.81Y-72.37
X126.01Y-112.52
X126.57Y-125.27
X126.58Y-127.36
X126.65Y-121.04
X126.74Y-114.28
X126.77Y-116.2
X126.93Y-72.35
X127.0Y-130.33
X127.06Y-78.23
X127.07Y-111.34
X127.43Y-96.22
X127.45Y-123.91
X127.62Y-91.42
X127.64Y-87.89
X127.74Y-89.09
X127.74Y-90.12
X128.031Y-72.376
X128.35Y-84.05
X128.6Y-120.83
X129.15Y-72.37
X129.4Y-69.23
X129.53Y-78.26
X129.56Y-85.72
X129.87Y-103.96
X129.99Y-117.51
X130.01Y-116.1
X130.04Y-112.47
X130.05Y-114.25
X130.25Y-99.46
X130.62Y-95.75
X130.81Y-88.23
X130.98Y-91.47
X131.13Y-121.05
X131.34Y-64.41
X131.58Y-69.24
X131.72Y-93.44
X132.08Y-79.86
X132.09Y-76.72
X132.16Y-66.43
X132.447Y-98.197
X132.78Y-101.52
X132.79Y-64.45
X132.83Y-78.19
X132.83Y-126.23
X132.88Y-89.96
X133.22Y-93.44
X133.24Y-82.31
X133.24Y-87.41
X133.57Y-72.64
X134.1Y-100.17
X134.1Y-102.75
X134.15Y-76.84
X134.15Y-124.88
X134.17Y-94.37
X134.18Y-92.46
X134.55Y-69.23
X134.55Y-111.96
X134.62Y-95.78
X134.62Y-98.19
X134.63Y-66.95
X134.67Y-82.31
X134.69Y-73.04
X134.71Y-79.83
X134.75Y-87.41
X135.39Y-135.1
X135.43Y-64.8
X136.5Y-82.33
X136.54Y-103.04
X136.56Y-87.28
X136.58Y-98.23
X136.61Y-76.59
X136.61Y-95.74
X136.62Y-69.24
X136.63Y-93.41
X136.64Y-73.01
X136.68Y-111.92
X137.83Y-127.47
X137.92Y-108.53
X137.93Y-79.65
X137.97Y-64.81
X137.98Y-114.37
X138.01Y-82.31
X138.71Y-99.85
X139.1Y-116.35
X139.11Y-124.1
X139.18Y-91.11
X139.22Y-87.26
X139.28Y-69.22
X139.34Y-68.16
X139.56Y-111.94
X140.4Y-102.45
X140.43Y-106.15
X140.48Y-108.51
X140.52Y-79.04
X140.53Y-130.43
X140.54Y-89.95
X140.55Y-82.36
X140.6Y-84.81
X141.53Y-66.97
X141.72Y-76.66
X141.82Y-72.98
X141.99Y-111.95
X142.02Y-95.73
X142.02Y-110.16
X142.03Y-91.53
X142.03Y-93.38
X142.04Y-99.88
X142.13Y-85.45
X142.15Y-87.21
X143.06Y-114.37
X143.06Y-130.44
X143.07Y-64.81
X144.26Y-109.47
X144.28Y-99.92
X144.34Y-72.98
X144.37Y-76.67
X144.37Y-93.39
X144.38Y-91.52
X144.38Y-95.74
X145.6Y-130.33
X146.75Y-76.66
X146.78Y-72.99
X146.8Y-91.49
X146.8Y-93.41
X146.8Y-95.74
X146.8Y-109.45
X146.82Y-70.0
X146.86Y-99.88
X147.08Y-117.52
X147.89Y-115.79
X148.24Y-130.26
X148.25Y-120.99
X148.89Y-99.73
X148.97Y-76.64
X148.98Y-102.86
X149.0Y-79.71
X149.01Y-72.99
X149.01Y-87.14
X149.03Y-83.15
X149.08Y-67.21
X149.09Y-111.9
X149.1Y-110.18
X149.17Y-91.49
X149.2Y-70.58
X149.22Y-93.41
X149.23Y-95.73
X149.34Y-127.56
X149.36Y-124.73
X150.64Y-66.21
X150.66Y-112.65
X151.49Y-135.07
X152.99Y-116.11
X153.03Y-114.36
X153.27Y-76.53
X153.3Y-64.32
X153.308Y-111.86
X153.32Y-106.13
X153.36Y-87.13
X153.37Y-80.06
X153.58Y-107.76
X153.59Y-84.15
X153.67Y-131.82
X153.82Y-101.46
X155.0Y-109.2
X155.19Y-93.42
X155.33Y-70.62
X155.72Y-118.51
X155.78Y-103.49
X155.89Y-127.48
X156.37Y-131.81
X156.43Y-107.8
X156.51Y-101.45
X156.59Y-126.22
X156.6Y-89.74
X156.7Y-116.08
X156.7Y-119.15
X156.72Y-114.38
X156.79Y-66.79
X156.8Y-69.05
X156.88Y-91.8
X157.01Y-111.99
X157.69Y-87.11
X157.76Y-76.83
X157.76Y-79.48
X157.83Y-100.1
X157.88Y-95.86
X157.91Y-124.87
X157.94Y-71.0
X157.95Y-73.0
X157.96Y-84.48
X158.24Y-103.5
X158.25Y-110.22
X158.3Y-107.03
X159.04Y-64.35
X159.12Y-116.07
X159.15Y-114.34
X159.22Y-124.12
X160.08Y-107.03
X160.1Y-111.79
X160.27Y-76.6
X160.32Y-87.03
X160.33Y-70.99
X160.34Y-95.88
X160.35Y-73.0
X160.37Y-92.52
X161.29Y-131.18
X161.43Y-107.01
X161.5Y-84.45
X161.56Y-66.38
X161.69Y-127.48
X161.7Y-112.43
X161.71Y-114.34
X161.71Y-124.12
X161.72Y-100.15
X162.8Y-68.27
X162.94Y-91.32
X163.09Y-116.08
X163.42Y-121.02
X164.02Y-82.02
X164.19Y-103.27
X164.25Y-112.43
X164.27Y-133.19
X164.3Y-108.5
X164.34Y-100.14
X165.57Y-87.06
X165.57Y-90.42
X165.57Y-95.91
X165.63Y-66.94
X165.63Y-71.04
X165.67Y-73.02
X165.68Y-76.6
X165.88Y-109.22
X166.06Y-135.07
X166.63Y-64.28
X166.71Y-117.74
X166.77Y-112.44
X166.78Y-116.07
X166.79Y-114.34
X167.95Y-66.97
X167.95Y-76.62
X167.95Y-117.92
X167.98Y-71.13
X167.98Y-109.24
X167.99Y-90.39
X168.01Y-99.88
X168.02Y-73.0
X168.04Y-95.91
X169.21Y-133.19
X169.29Y-112.45
X169.33Y-114.37
X169.59Y-116.14
X170.43Y-73.02
X170.45Y-71.13
X170.47Y-76.62
X170.48Y-66.94
X170.5Y-90.39
X170.52Y-95.91
X170.55Y-109.22
X170.58Y-99.84
X170.88Y-116.17
X171.73Y-64.3
X171.84Y-112.5
X172.43Y-131.27
X172.54Y-119.15
X172.71Y-110.18
X172.72Y-67.05
X172.73Y-107.16
X172.75Y-71.11
X172.78Y-84.5
X172.82Y-90.35
X172.85Y-95.61
X172.86Y-115.02
X172.89Y-87.02
X173.02Y-79.7
X173.04Y-73.0
X173.06Y-76.65
X173.09Y-102.95
X173.11Y-99.85
X173.15Y-124.86
X173.16Y-127.49
X174.14Y-97.37
X174.26Y-120.24
X174.41Y-112.53
X174.51Y-93.85
X174.64Y-66.79
X174.65Y-69.43
X174.67Y-116.97
X176.53Y-69.43
X176.56Y-66.8
X176.77Y-89.86
X176.82Y-114.63
X177.4Y-87.12
X177.41Y-111.87
X177.422Y-64.45
X177.44Y-76.51
X177.54Y-127.48
X177.65Y-80.02
X177.66Y-103.3
X177.73Y-131.08
X177.91Y-83.61
X177.91Y-107.17
X178.21Y-121.49
X178.27Y-124.03
X179.46Y-133.12
X180.86Y-99.82
X180.86Y-118.65
X180.89Y-103.33
X180.91Y-97.41
X181.06Y-83.63
X181.08Y-107.18
X181.12Y-88.11
X181.34Y-76.8
X181.42Y-65.18
X181.52Y-134.73
X181.62Y-127.51
X182.44Y-131.39
X182.84Y-73.03
X182.92Y-68.95
X183.59Y-79.15
X183.61Y-87.95
X183.61Y-107.3
X183.63Y-119.32
X183.68Y-103.33
X183.68Y-125.42
X185.4Y-129.1
X187.57Y-110.06
X187.59Y-70.33
X187.75Y-97.05
X187.81Y-83.63
X187.81Y-127.26
T2
X112.2Y-80.56
X112.2Y-82.26
X112.2Y-83.96
X113.3Y-83.96
X113.3Y-80.56
X114.45Y-80.56
X114.45Y-82.26
X114.45Y-83.96
X115.6Y-80.56
X115.6Y-83.96
X115.6Y-82.26
X116.7Y-80.56
X116.7Y-82.26
X116.7Y-83.96
T3
X100.85Y-116.86
X100.85Y-118.86
X100.85Y-120.86
X100.87Y-107.85
X100.87Y-109.85
X100.87Y-111.85
X104.25Y-128.75
X106.25Y-128.75
X111.3Y-128.75
X113.3Y-128.75
X118.45Y-128.8
X120.45Y-128.8
X125.6Y-128.8
X127.6Y-128.8
T4
X134.115Y-88.75
X134.115Y-101.45
X134.15Y-113.475
X134.15Y-126.175
X134.17Y-65.475
X134.17Y-78.175
X136.655Y-88.75
X136.655Y-101.45
X136.69Y-113.475
X136.69Y-126.175
X136.71Y-65.475
X136.71Y-78.175
X139.195Y-88.75
X139.195Y-101.45
X139.23Y-113.475
X139.23Y-126.175
X139.25Y-65.475
X139.25Y-78.175
X141.735Y-88.75
X141.735Y-101.45
X141.77Y-113.475
X141.77Y-126.175
X141.79Y-65.475
X141.79Y-78.175
X144.275Y-88.75
X144.275Y-101.45
X144.31Y-113.475
X144.31Y-126.175
X144.33Y-65.475
X144.33Y-78.175
X146.815Y-101.45
X146.815Y-88.75
X146.85Y-113.475
X146.85Y-126.175
X146.87Y-78.175
X146.87Y-65.475
X149.355Y-88.75
X149.355Y-101.45
X149.39Y-113.475
X149.39Y-126.175
X149.41Y-65.475
X149.41Y-78.175
X151.895Y-88.75
X151.895Y-101.45
X151.93Y-113.475
X151.93Y-126.175
X151.95Y-65.475
X151.95Y-78.175
X157.75Y-65.45
X157.75Y-78.15
X157.835Y-88.75
X157.835Y-101.45
X157.91Y-113.475
X157.91Y-126.175
X160.29Y-65.45
X160.29Y-78.15
X160.375Y-88.75
X160.375Y-101.45
X160.45Y-113.475
X160.45Y-126.175
X162.83Y-65.45
X162.83Y-78.15
X162.915Y-88.75
X162.915Y-101.45
X162.99Y-113.475
X162.99Y-126.175
X165.37Y-65.45
X165.37Y-78.15
X165.455Y-88.75
X165.455Y-101.45
X165.53Y-113.475
X165.53Y-126.175
X167.91Y-65.45
X167.91Y-78.15
X167.995Y-88.75
X167.995Y-101.45
X168.07Y-113.475
X168.07Y-126.175
X170.45Y-78.15
X170.45Y-65.45
X170.535Y-101.45
X170.535Y-88.75
X170.61Y-113.475
X170.61Y-126.175
X172.99Y-65.45
X172.99Y-78.15
X173.075Y-88.75
X173.075Y-101.45
X173.15Y-113.475
X173.15Y-126.175
X175.53Y-65.45
X175.53Y-78.15
X175.615Y-88.75
X175.615Y-101.45
X175.69Y-113.475
X175.69Y-126.175
T5
X104.76Y-108.09
X109.95Y-78.87
X110.1Y-99.19
X114.46Y-104.19
X122.93Y-104.17
X128.96Y-95.7
X182.31Y-102.29
T6
X108.845Y-89.735
X108.845Y-94.815
X111.385Y-92.275
X155.005Y-105.3
X155.005Y-107.8
X155.1Y-129.295
X155.1Y-131.795
X155.155Y-81.07
X155.155Y-83.57
X179.455Y-129.07
X179.455Y-131.57
X179.48Y-105.3
X179.48Y-107.8
X179.505Y-81.12
X179.505Y-83.62
T7
X139.22Y-107.4
X139.33Y-83.65
X139.37Y-131.825
X141.72Y-107.4
X141.83Y-83.65
X141.87Y-131.825
X144.22Y-107.4
X144.33Y-83.65
X144.37Y-131.825
X146.72Y-107.4
X146.83Y-83.65
X146.87Y-131.825
X162.905Y-83.55
X163.05Y-107.375
X163.125Y-131.8
X165.405Y-83.55
X165.55Y-107.375
X165.625Y-131.8
X167.905Y-83.55
X168.05Y-107.375
X168.125Y-131.8
X170.405Y-83.55
X170.55Y-107.375
X170.625Y-131.8
T8
X98.145Y-114.1
X98.145Y-116.64
X98.145Y-119.18
X98.145Y-121.72
X116.675Y-69.775
X116.675Y-74.775
T8
G00X102.075Y-73.85
M15
G01X102.075Y-75.85
M16
G05
G00X104.075Y-79.55
M15
G01X106.075Y-79.55
M16
G05
G00X108.075Y-73.85
M15
G01X108.075Y-75.85
M16
G05
M30
