%TF.GenerationSoftware,KiCad,Pcbnew,8.0.4-8.0.4-0~ubuntu22.04.1*%
%TF.CreationDate,2025-03-22T16:34:59+09:00*%
%TF.ProjectId,main,6d61696e-2e6b-4696-9361-645f70636258,rev?*%
%TF.SameCoordinates,Original*%
%TF.FileFunction,Legend,Top*%
%TF.FilePolarity,Positive*%
%FSLAX46Y46*%
G04 Gerber Fmt 4.6, Leading zero omitted, Abs format (unit mm)*
G04 Created by KiCad (PCBNEW 8.0.4-8.0.4-0~ubuntu22.04.1) date 2025-03-22 16:34:59*
%MOMM*%
%LPD*%
G01*
G04 APERTURE LIST*
G04 Aperture macros list*
%AMRoundRect*
0 Rectangle with rounded corners*
0 $1 Rounding radius*
0 $2 $3 $4 $5 $6 $7 $8 $9 X,Y pos of 4 corners*
0 Add a 4 corners polygon primitive as box body*
4,1,4,$2,$3,$4,$5,$6,$7,$8,$9,$2,$3,0*
0 Add four circle primitives for the rounded corners*
1,1,$1+$1,$2,$3*
1,1,$1+$1,$4,$5*
1,1,$1+$1,$6,$7*
1,1,$1+$1,$8,$9*
0 Add four rect primitives between the rounded corners*
20,1,$1+$1,$2,$3,$4,$5,0*
20,1,$1+$1,$4,$5,$6,$7,0*
20,1,$1+$1,$6,$7,$8,$9,0*
20,1,$1+$1,$8,$9,$2,$3,0*%
G04 Aperture macros list end*
%ADD10C,0.150000*%
%ADD11C,0.250000*%
%ADD12C,0.120000*%
%ADD13C,0.100000*%
%ADD14C,0.200000*%
%ADD15R,3.500000X3.500000*%
%ADD16RoundRect,0.750000X-0.750000X-1.000000X0.750000X-1.000000X0.750000X1.000000X-0.750000X1.000000X0*%
%ADD17RoundRect,0.875000X-0.875000X-0.875000X0.875000X-0.875000X0.875000X0.875000X-0.875000X0.875000X0*%
%ADD18RoundRect,0.250000X0.600000X0.725000X-0.600000X0.725000X-0.600000X-0.725000X0.600000X-0.725000X0*%
%ADD19O,1.700000X1.950000*%
%ADD20RoundRect,0.237500X0.250000X0.237500X-0.250000X0.237500X-0.250000X-0.237500X0.250000X-0.237500X0*%
%ADD21RoundRect,0.218750X-0.218750X-0.256250X0.218750X-0.256250X0.218750X0.256250X-0.218750X0.256250X0*%
%ADD22RoundRect,0.225000X-0.225000X-0.250000X0.225000X-0.250000X0.225000X0.250000X-0.225000X0.250000X0*%
%ADD23C,3.200000*%
%ADD24RoundRect,0.150000X-0.150000X0.587500X-0.150000X-0.587500X0.150000X-0.587500X0.150000X0.587500X0*%
%ADD25R,2.000000X2.000000*%
%ADD26C,2.000000*%
%ADD27RoundRect,0.237500X-0.237500X0.300000X-0.237500X-0.300000X0.237500X-0.300000X0.237500X0.300000X0*%
%ADD28RoundRect,0.237500X-0.237500X0.250000X-0.237500X-0.250000X0.237500X-0.250000X0.237500X0.250000X0*%
%ADD29RoundRect,0.162500X-0.617500X-0.162500X0.617500X-0.162500X0.617500X0.162500X-0.617500X0.162500X0*%
%ADD30R,0.700000X1.100000*%
%ADD31R,0.800000X1.100000*%
%ADD32RoundRect,0.262500X-0.262500X-0.537500X0.262500X-0.537500X0.262500X0.537500X-0.262500X0.537500X0*%
%ADD33RoundRect,0.155000X0.155000X-0.212500X0.155000X0.212500X-0.155000X0.212500X-0.155000X-0.212500X0*%
%ADD34RoundRect,0.237500X-0.250000X-0.237500X0.250000X-0.237500X0.250000X0.237500X-0.250000X0.237500X0*%
%ADD35RoundRect,0.150000X0.825000X0.150000X-0.825000X0.150000X-0.825000X-0.150000X0.825000X-0.150000X0*%
%ADD36RoundRect,0.237500X0.237500X-0.250000X0.237500X0.250000X-0.237500X0.250000X-0.237500X-0.250000X0*%
%ADD37RoundRect,0.250000X-0.350000X-0.625000X0.350000X-0.625000X0.350000X0.625000X-0.350000X0.625000X0*%
%ADD38O,1.200000X1.750000*%
%ADD39RoundRect,0.250000X-0.625000X0.350000X-0.625000X-0.350000X0.625000X-0.350000X0.625000X0.350000X0*%
%ADD40O,1.750000X1.200000*%
%ADD41RoundRect,0.200000X-0.200000X-0.275000X0.200000X-0.275000X0.200000X0.275000X-0.200000X0.275000X0*%
%ADD42RoundRect,0.218750X0.218750X0.256250X-0.218750X0.256250X-0.218750X-0.256250X0.218750X-0.256250X0*%
%ADD43RoundRect,0.237500X0.237500X-0.300000X0.237500X0.300000X-0.237500X0.300000X-0.237500X-0.300000X0*%
%ADD44R,1.600000X1.600000*%
%ADD45C,1.600000*%
%ADD46C,1.524000*%
%ADD47C,1.440000*%
%ADD48RoundRect,0.160000X0.160000X-0.197500X0.160000X0.197500X-0.160000X0.197500X-0.160000X-0.197500X0*%
%ADD49RoundRect,0.225000X0.225000X0.250000X-0.225000X0.250000X-0.225000X-0.250000X0.225000X-0.250000X0*%
%ADD50RoundRect,0.250000X0.375000X0.625000X-0.375000X0.625000X-0.375000X-0.625000X0.375000X-0.625000X0*%
%ADD51RoundRect,0.225000X0.250000X-0.225000X0.250000X0.225000X-0.250000X0.225000X-0.250000X-0.225000X0*%
%ADD52RoundRect,0.225000X-0.250000X0.225000X-0.250000X-0.225000X0.250000X-0.225000X0.250000X0.225000X0*%
%ADD53RoundRect,0.237500X0.300000X0.237500X-0.300000X0.237500X-0.300000X-0.237500X0.300000X-0.237500X0*%
%ADD54RoundRect,0.075000X-0.075000X0.662500X-0.075000X-0.662500X0.075000X-0.662500X0.075000X0.662500X0*%
%ADD55RoundRect,0.075000X-0.662500X0.075000X-0.662500X-0.075000X0.662500X-0.075000X0.662500X0.075000X0*%
%ADD56RoundRect,0.262500X0.262500X0.537500X-0.262500X0.537500X-0.262500X-0.537500X0.262500X-0.537500X0*%
%ADD57R,0.750000X0.700000*%
%ADD58RoundRect,0.155000X0.212500X0.155000X-0.212500X0.155000X-0.212500X-0.155000X0.212500X-0.155000X0*%
%ADD59R,1.700000X1.700000*%
%ADD60O,1.700000X1.700000*%
%ADD61C,0.800000*%
G04 APERTURE END LIST*
D10*
X103497142Y-115549580D02*
X103449523Y-115597200D01*
X103449523Y-115597200D02*
X103306666Y-115644819D01*
X103306666Y-115644819D02*
X103211428Y-115644819D01*
X103211428Y-115644819D02*
X103068571Y-115597200D01*
X103068571Y-115597200D02*
X102973333Y-115501961D01*
X102973333Y-115501961D02*
X102925714Y-115406723D01*
X102925714Y-115406723D02*
X102878095Y-115216247D01*
X102878095Y-115216247D02*
X102878095Y-115073390D01*
X102878095Y-115073390D02*
X102925714Y-114882914D01*
X102925714Y-114882914D02*
X102973333Y-114787676D01*
X102973333Y-114787676D02*
X103068571Y-114692438D01*
X103068571Y-114692438D02*
X103211428Y-114644819D01*
X103211428Y-114644819D02*
X103306666Y-114644819D01*
X103306666Y-114644819D02*
X103449523Y-114692438D01*
X103449523Y-114692438D02*
X103497142Y-114740057D01*
X103878095Y-115359104D02*
X104354285Y-115359104D01*
X103782857Y-115644819D02*
X104116190Y-114644819D01*
X104116190Y-114644819D02*
X104449523Y-115644819D01*
X104782857Y-115644819D02*
X104782857Y-114644819D01*
X104782857Y-114644819D02*
X105354285Y-115644819D01*
X105354285Y-115644819D02*
X105354285Y-114644819D01*
X94585238Y-93504819D02*
X94918571Y-94504819D01*
X94918571Y-94504819D02*
X95251904Y-93504819D01*
X95585238Y-94504819D02*
X95585238Y-93504819D01*
X95585238Y-93504819D02*
X95918571Y-94219104D01*
X95918571Y-94219104D02*
X96251904Y-93504819D01*
X96251904Y-93504819D02*
X96251904Y-94504819D01*
D11*
X158802857Y-133664619D02*
X159088571Y-133759857D01*
X159088571Y-133759857D02*
X159183809Y-133855095D01*
X159183809Y-133855095D02*
X159279047Y-134045571D01*
X159279047Y-134045571D02*
X159279047Y-134331285D01*
X159279047Y-134331285D02*
X159183809Y-134521761D01*
X159183809Y-134521761D02*
X159088571Y-134617000D01*
X159088571Y-134617000D02*
X158898095Y-134712238D01*
X158898095Y-134712238D02*
X158136190Y-134712238D01*
X158136190Y-134712238D02*
X158136190Y-132712238D01*
X158136190Y-132712238D02*
X158802857Y-132712238D01*
X158802857Y-132712238D02*
X158993333Y-132807476D01*
X158993333Y-132807476D02*
X159088571Y-132902714D01*
X159088571Y-132902714D02*
X159183809Y-133093190D01*
X159183809Y-133093190D02*
X159183809Y-133283666D01*
X159183809Y-133283666D02*
X159088571Y-133474142D01*
X159088571Y-133474142D02*
X158993333Y-133569380D01*
X158993333Y-133569380D02*
X158802857Y-133664619D01*
X158802857Y-133664619D02*
X158136190Y-133664619D01*
D10*
X94113810Y-97164819D02*
X94732857Y-97164819D01*
X94732857Y-97164819D02*
X94399524Y-97545771D01*
X94399524Y-97545771D02*
X94542381Y-97545771D01*
X94542381Y-97545771D02*
X94637619Y-97593390D01*
X94637619Y-97593390D02*
X94685238Y-97641009D01*
X94685238Y-97641009D02*
X94732857Y-97736247D01*
X94732857Y-97736247D02*
X94732857Y-97974342D01*
X94732857Y-97974342D02*
X94685238Y-98069580D01*
X94685238Y-98069580D02*
X94637619Y-98117200D01*
X94637619Y-98117200D02*
X94542381Y-98164819D01*
X94542381Y-98164819D02*
X94256667Y-98164819D01*
X94256667Y-98164819D02*
X94161429Y-98117200D01*
X94161429Y-98117200D02*
X94113810Y-98069580D01*
X95161429Y-98069580D02*
X95209048Y-98117200D01*
X95209048Y-98117200D02*
X95161429Y-98164819D01*
X95161429Y-98164819D02*
X95113810Y-98117200D01*
X95113810Y-98117200D02*
X95161429Y-98069580D01*
X95161429Y-98069580D02*
X95161429Y-98164819D01*
X95542381Y-97164819D02*
X96161428Y-97164819D01*
X96161428Y-97164819D02*
X95828095Y-97545771D01*
X95828095Y-97545771D02*
X95970952Y-97545771D01*
X95970952Y-97545771D02*
X96066190Y-97593390D01*
X96066190Y-97593390D02*
X96113809Y-97641009D01*
X96113809Y-97641009D02*
X96161428Y-97736247D01*
X96161428Y-97736247D02*
X96161428Y-97974342D01*
X96161428Y-97974342D02*
X96113809Y-98069580D01*
X96113809Y-98069580D02*
X96066190Y-98117200D01*
X96066190Y-98117200D02*
X95970952Y-98164819D01*
X95970952Y-98164819D02*
X95685238Y-98164819D01*
X95685238Y-98164819D02*
X95590000Y-98117200D01*
X95590000Y-98117200D02*
X95542381Y-98069580D01*
X96447143Y-97164819D02*
X96780476Y-98164819D01*
X96780476Y-98164819D02*
X97113809Y-97164819D01*
X95036190Y-101409580D02*
X94988571Y-101457200D01*
X94988571Y-101457200D02*
X94845714Y-101504819D01*
X94845714Y-101504819D02*
X94750476Y-101504819D01*
X94750476Y-101504819D02*
X94607619Y-101457200D01*
X94607619Y-101457200D02*
X94512381Y-101361961D01*
X94512381Y-101361961D02*
X94464762Y-101266723D01*
X94464762Y-101266723D02*
X94417143Y-101076247D01*
X94417143Y-101076247D02*
X94417143Y-100933390D01*
X94417143Y-100933390D02*
X94464762Y-100742914D01*
X94464762Y-100742914D02*
X94512381Y-100647676D01*
X94512381Y-100647676D02*
X94607619Y-100552438D01*
X94607619Y-100552438D02*
X94750476Y-100504819D01*
X94750476Y-100504819D02*
X94845714Y-100504819D01*
X94845714Y-100504819D02*
X94988571Y-100552438D01*
X94988571Y-100552438D02*
X95036190Y-100600057D01*
X95417143Y-101219104D02*
X95893333Y-101219104D01*
X95321905Y-101504819D02*
X95655238Y-100504819D01*
X95655238Y-100504819D02*
X95988571Y-101504819D01*
X96798095Y-101504819D02*
X96321905Y-101504819D01*
X96321905Y-101504819D02*
X96321905Y-100504819D01*
D11*
X158929047Y-86632238D02*
X158262380Y-85679857D01*
X157786190Y-86632238D02*
X157786190Y-84632238D01*
X157786190Y-84632238D02*
X158548095Y-84632238D01*
X158548095Y-84632238D02*
X158738571Y-84727476D01*
X158738571Y-84727476D02*
X158833809Y-84822714D01*
X158833809Y-84822714D02*
X158929047Y-85013190D01*
X158929047Y-85013190D02*
X158929047Y-85298904D01*
X158929047Y-85298904D02*
X158833809Y-85489380D01*
X158833809Y-85489380D02*
X158738571Y-85584619D01*
X158738571Y-85584619D02*
X158548095Y-85679857D01*
X158548095Y-85679857D02*
X157786190Y-85679857D01*
D10*
X103144762Y-106064819D02*
X103144762Y-106874342D01*
X103144762Y-106874342D02*
X103192381Y-106969580D01*
X103192381Y-106969580D02*
X103240000Y-107017200D01*
X103240000Y-107017200D02*
X103335238Y-107064819D01*
X103335238Y-107064819D02*
X103525714Y-107064819D01*
X103525714Y-107064819D02*
X103620952Y-107017200D01*
X103620952Y-107017200D02*
X103668571Y-106969580D01*
X103668571Y-106969580D02*
X103716190Y-106874342D01*
X103716190Y-106874342D02*
X103716190Y-106064819D01*
X104144762Y-106779104D02*
X104620952Y-106779104D01*
X104049524Y-107064819D02*
X104382857Y-106064819D01*
X104382857Y-106064819D02*
X104716190Y-107064819D01*
X105620952Y-107064819D02*
X105287619Y-106588628D01*
X105049524Y-107064819D02*
X105049524Y-106064819D01*
X105049524Y-106064819D02*
X105430476Y-106064819D01*
X105430476Y-106064819D02*
X105525714Y-106112438D01*
X105525714Y-106112438D02*
X105573333Y-106160057D01*
X105573333Y-106160057D02*
X105620952Y-106255295D01*
X105620952Y-106255295D02*
X105620952Y-106398152D01*
X105620952Y-106398152D02*
X105573333Y-106493390D01*
X105573333Y-106493390D02*
X105525714Y-106541009D01*
X105525714Y-106541009D02*
X105430476Y-106588628D01*
X105430476Y-106588628D02*
X105049524Y-106588628D01*
X105906667Y-106064819D02*
X106478095Y-106064819D01*
X106192381Y-107064819D02*
X106192381Y-106064819D01*
X94791904Y-103214819D02*
X94458571Y-102738628D01*
X94220476Y-103214819D02*
X94220476Y-102214819D01*
X94220476Y-102214819D02*
X94601428Y-102214819D01*
X94601428Y-102214819D02*
X94696666Y-102262438D01*
X94696666Y-102262438D02*
X94744285Y-102310057D01*
X94744285Y-102310057D02*
X94791904Y-102405295D01*
X94791904Y-102405295D02*
X94791904Y-102548152D01*
X94791904Y-102548152D02*
X94744285Y-102643390D01*
X94744285Y-102643390D02*
X94696666Y-102691009D01*
X94696666Y-102691009D02*
X94601428Y-102738628D01*
X94601428Y-102738628D02*
X94220476Y-102738628D01*
X95220476Y-102214819D02*
X95220476Y-103024342D01*
X95220476Y-103024342D02*
X95268095Y-103119580D01*
X95268095Y-103119580D02*
X95315714Y-103167200D01*
X95315714Y-103167200D02*
X95410952Y-103214819D01*
X95410952Y-103214819D02*
X95601428Y-103214819D01*
X95601428Y-103214819D02*
X95696666Y-103167200D01*
X95696666Y-103167200D02*
X95744285Y-103119580D01*
X95744285Y-103119580D02*
X95791904Y-103024342D01*
X95791904Y-103024342D02*
X95791904Y-102214819D01*
X96268095Y-103214819D02*
X96268095Y-102214819D01*
X96268095Y-102214819D02*
X96839523Y-103214819D01*
X96839523Y-103214819D02*
X96839523Y-102214819D01*
D11*
X135219047Y-86492238D02*
X134266666Y-86492238D01*
X134266666Y-86492238D02*
X134266666Y-84492238D01*
X157986190Y-110552238D02*
X157986190Y-108552238D01*
X157986190Y-108552238D02*
X158462380Y-108552238D01*
X158462380Y-108552238D02*
X158748095Y-108647476D01*
X158748095Y-108647476D02*
X158938571Y-108837952D01*
X158938571Y-108837952D02*
X159033809Y-109028428D01*
X159033809Y-109028428D02*
X159129047Y-109409380D01*
X159129047Y-109409380D02*
X159129047Y-109695095D01*
X159129047Y-109695095D02*
X159033809Y-110076047D01*
X159033809Y-110076047D02*
X158938571Y-110266523D01*
X158938571Y-110266523D02*
X158748095Y-110457000D01*
X158748095Y-110457000D02*
X158462380Y-110552238D01*
X158462380Y-110552238D02*
X157986190Y-110552238D01*
X134995714Y-133664619D02*
X134329047Y-133664619D01*
X134329047Y-134712238D02*
X134329047Y-132712238D01*
X134329047Y-132712238D02*
X135281428Y-132712238D01*
D10*
X95239523Y-95354819D02*
X94763333Y-95354819D01*
X94763333Y-95354819D02*
X94715714Y-95831009D01*
X94715714Y-95831009D02*
X94763333Y-95783390D01*
X94763333Y-95783390D02*
X94858571Y-95735771D01*
X94858571Y-95735771D02*
X95096666Y-95735771D01*
X95096666Y-95735771D02*
X95191904Y-95783390D01*
X95191904Y-95783390D02*
X95239523Y-95831009D01*
X95239523Y-95831009D02*
X95287142Y-95926247D01*
X95287142Y-95926247D02*
X95287142Y-96164342D01*
X95287142Y-96164342D02*
X95239523Y-96259580D01*
X95239523Y-96259580D02*
X95191904Y-96307200D01*
X95191904Y-96307200D02*
X95096666Y-96354819D01*
X95096666Y-96354819D02*
X94858571Y-96354819D01*
X94858571Y-96354819D02*
X94763333Y-96307200D01*
X94763333Y-96307200D02*
X94715714Y-96259580D01*
X95572857Y-95354819D02*
X95906190Y-96354819D01*
X95906190Y-96354819D02*
X96239523Y-95354819D01*
X94275714Y-99261009D02*
X94609047Y-99261009D01*
X94751904Y-99784819D02*
X94275714Y-99784819D01*
X94275714Y-99784819D02*
X94275714Y-98784819D01*
X94275714Y-98784819D02*
X94751904Y-98784819D01*
X95751904Y-99784819D02*
X95418571Y-99308628D01*
X95180476Y-99784819D02*
X95180476Y-98784819D01*
X95180476Y-98784819D02*
X95561428Y-98784819D01*
X95561428Y-98784819D02*
X95656666Y-98832438D01*
X95656666Y-98832438D02*
X95704285Y-98880057D01*
X95704285Y-98880057D02*
X95751904Y-98975295D01*
X95751904Y-98975295D02*
X95751904Y-99118152D01*
X95751904Y-99118152D02*
X95704285Y-99213390D01*
X95704285Y-99213390D02*
X95656666Y-99261009D01*
X95656666Y-99261009D02*
X95561428Y-99308628D01*
X95561428Y-99308628D02*
X95180476Y-99308628D01*
X96751904Y-99784819D02*
X96418571Y-99308628D01*
X96180476Y-99784819D02*
X96180476Y-98784819D01*
X96180476Y-98784819D02*
X96561428Y-98784819D01*
X96561428Y-98784819D02*
X96656666Y-98832438D01*
X96656666Y-98832438D02*
X96704285Y-98880057D01*
X96704285Y-98880057D02*
X96751904Y-98975295D01*
X96751904Y-98975295D02*
X96751904Y-99118152D01*
X96751904Y-99118152D02*
X96704285Y-99213390D01*
X96704285Y-99213390D02*
X96656666Y-99261009D01*
X96656666Y-99261009D02*
X96561428Y-99308628D01*
X96561428Y-99308628D02*
X96180476Y-99308628D01*
X94996191Y-103964819D02*
X94996191Y-104774342D01*
X94996191Y-104774342D02*
X95043810Y-104869580D01*
X95043810Y-104869580D02*
X95091429Y-104917200D01*
X95091429Y-104917200D02*
X95186667Y-104964819D01*
X95186667Y-104964819D02*
X95377143Y-104964819D01*
X95377143Y-104964819D02*
X95472381Y-104917200D01*
X95472381Y-104917200D02*
X95520000Y-104869580D01*
X95520000Y-104869580D02*
X95567619Y-104774342D01*
X95567619Y-104774342D02*
X95567619Y-103964819D01*
X96043810Y-104964819D02*
X96043810Y-103964819D01*
D11*
X134098571Y-108442238D02*
X134098571Y-110061285D01*
X134098571Y-110061285D02*
X134193809Y-110251761D01*
X134193809Y-110251761D02*
X134289047Y-110347000D01*
X134289047Y-110347000D02*
X134479523Y-110442238D01*
X134479523Y-110442238D02*
X134860476Y-110442238D01*
X134860476Y-110442238D02*
X135050952Y-110347000D01*
X135050952Y-110347000D02*
X135146190Y-110251761D01*
X135146190Y-110251761D02*
X135241428Y-110061285D01*
X135241428Y-110061285D02*
X135241428Y-108442238D01*
D10*
X94842380Y-86554819D02*
X94509047Y-86078628D01*
X94270952Y-86554819D02*
X94270952Y-85554819D01*
X94270952Y-85554819D02*
X94651904Y-85554819D01*
X94651904Y-85554819D02*
X94747142Y-85602438D01*
X94747142Y-85602438D02*
X94794761Y-85650057D01*
X94794761Y-85650057D02*
X94842380Y-85745295D01*
X94842380Y-85745295D02*
X94842380Y-85888152D01*
X94842380Y-85888152D02*
X94794761Y-85983390D01*
X94794761Y-85983390D02*
X94747142Y-86031009D01*
X94747142Y-86031009D02*
X94651904Y-86078628D01*
X94651904Y-86078628D02*
X94270952Y-86078628D01*
X95223333Y-86507200D02*
X95366190Y-86554819D01*
X95366190Y-86554819D02*
X95604285Y-86554819D01*
X95604285Y-86554819D02*
X95699523Y-86507200D01*
X95699523Y-86507200D02*
X95747142Y-86459580D01*
X95747142Y-86459580D02*
X95794761Y-86364342D01*
X95794761Y-86364342D02*
X95794761Y-86269104D01*
X95794761Y-86269104D02*
X95747142Y-86173866D01*
X95747142Y-86173866D02*
X95699523Y-86126247D01*
X95699523Y-86126247D02*
X95604285Y-86078628D01*
X95604285Y-86078628D02*
X95413809Y-86031009D01*
X95413809Y-86031009D02*
X95318571Y-85983390D01*
X95318571Y-85983390D02*
X95270952Y-85935771D01*
X95270952Y-85935771D02*
X95223333Y-85840533D01*
X95223333Y-85840533D02*
X95223333Y-85745295D01*
X95223333Y-85745295D02*
X95270952Y-85650057D01*
X95270952Y-85650057D02*
X95318571Y-85602438D01*
X95318571Y-85602438D02*
X95413809Y-85554819D01*
X95413809Y-85554819D02*
X95651904Y-85554819D01*
X95651904Y-85554819D02*
X95794761Y-85602438D01*
X96080476Y-85554819D02*
X96651904Y-85554819D01*
X96366190Y-86554819D02*
X96366190Y-85554819D01*
X94896191Y-90714819D02*
X94896191Y-91524342D01*
X94896191Y-91524342D02*
X94943810Y-91619580D01*
X94943810Y-91619580D02*
X94991429Y-91667200D01*
X94991429Y-91667200D02*
X95086667Y-91714819D01*
X95086667Y-91714819D02*
X95277143Y-91714819D01*
X95277143Y-91714819D02*
X95372381Y-91667200D01*
X95372381Y-91667200D02*
X95420000Y-91619580D01*
X95420000Y-91619580D02*
X95467619Y-91524342D01*
X95467619Y-91524342D02*
X95467619Y-90714819D01*
X95943810Y-91714819D02*
X95943810Y-90714819D01*
D12*
%TO.C,J3*%
X94275000Y-70250000D02*
X108975000Y-70250000D01*
X94275000Y-79450000D02*
X94275000Y-70250000D01*
X103075000Y-79450000D02*
X94275000Y-79450000D01*
X108125000Y-70050000D02*
X109175000Y-70050000D01*
X108975000Y-70250000D02*
X108975000Y-72850000D01*
X108975000Y-76750000D02*
X108975000Y-79450000D01*
X108975000Y-79450000D02*
X107075000Y-79450000D01*
X109175000Y-71100000D02*
X109175000Y-70050000D01*
%TO.C,J11*%
X160345000Y-80040000D02*
X160345000Y-86010000D01*
X160345000Y-86010000D02*
X172965000Y-86010000D01*
X160355000Y-83750000D02*
X161105000Y-83749999D01*
X160355000Y-85250000D02*
X160355000Y-86000000D01*
X160355000Y-86000000D02*
X162155000Y-86000001D01*
X161105000Y-80800000D02*
X166655000Y-80800000D01*
X161105000Y-83749999D02*
X161105000Y-80800000D01*
X162155000Y-86000001D02*
X162155001Y-85250000D01*
X162155001Y-85250000D02*
X160355000Y-85250000D01*
X163655000Y-85250000D02*
X163655000Y-86000000D01*
X163655000Y-86000000D02*
X169655000Y-86000001D01*
X169654999Y-85250000D02*
X163655000Y-85250000D01*
X169655000Y-86000001D02*
X169654999Y-85250000D01*
X171155000Y-86000001D02*
X172955000Y-86000000D01*
X171155001Y-85250000D02*
X171155000Y-86000001D01*
X172005000Y-86300000D02*
X173255000Y-86300000D01*
X172205000Y-80800000D02*
X166655000Y-80800000D01*
X172205000Y-83750000D02*
X172205000Y-80800000D01*
X172955000Y-83750000D02*
X172205000Y-83750000D01*
X172955000Y-85250000D02*
X171155001Y-85250000D01*
X172955000Y-86000000D02*
X172955000Y-85250000D01*
X172965000Y-80040000D02*
X160345000Y-80040000D01*
X172965000Y-86010000D02*
X172965000Y-80040000D01*
X173255000Y-86300000D02*
X173255000Y-85050000D01*
%TO.C,R11*%
X108022223Y-110307500D02*
X107512775Y-110307500D01*
X108022223Y-111352500D02*
X107512775Y-111352500D01*
%TO.C,D3*%
X97375000Y-101955000D02*
X97375000Y-103425000D01*
X97375000Y-103425000D02*
X99660000Y-103425000D01*
X99660000Y-101955000D02*
X97375000Y-101955000D01*
%TO.C,C9*%
X107519419Y-112160000D02*
X107800579Y-112160000D01*
X107519419Y-113180000D02*
X107800579Y-113180000D01*
%TO.C,J6*%
X136770000Y-80140001D02*
X136770000Y-86110001D01*
X136770000Y-86110001D02*
X149390000Y-86110001D01*
X136780000Y-83850001D02*
X137530000Y-83850000D01*
X136780000Y-85350001D02*
X136780000Y-86100001D01*
X136780000Y-86100001D02*
X138580000Y-86100002D01*
X137530000Y-80900001D02*
X143080000Y-80900001D01*
X137530000Y-83850000D02*
X137530000Y-80900001D01*
X138580000Y-86100002D02*
X138580001Y-85350001D01*
X138580001Y-85350001D02*
X136780000Y-85350001D01*
X140080000Y-85350001D02*
X140080000Y-86100001D01*
X140080000Y-86100001D02*
X146080000Y-86100002D01*
X146079999Y-85350001D02*
X140080000Y-85350001D01*
X146080000Y-86100002D02*
X146079999Y-85350001D01*
X147580000Y-86100002D02*
X149380000Y-86100001D01*
X147580001Y-85350001D02*
X147580000Y-86100002D01*
X148430000Y-86400001D02*
X149680000Y-86400001D01*
X148630000Y-80900001D02*
X143080000Y-80900001D01*
X148630000Y-83850001D02*
X148630000Y-80900001D01*
X149380000Y-83850001D02*
X148630000Y-83850001D01*
X149380000Y-85350001D02*
X147580001Y-85350001D01*
X149380000Y-86100001D02*
X149380000Y-85350001D01*
X149390000Y-80140001D02*
X136770000Y-80140001D01*
X149390000Y-86110001D02*
X149390000Y-80140001D01*
X149680000Y-86400001D02*
X149680000Y-85150001D01*
%TO.C,R35*%
X113542223Y-121440000D02*
X113032775Y-121440000D01*
X113542223Y-122485000D02*
X113032775Y-122485000D01*
%TO.C,D11*%
X153542500Y-86395000D02*
X153542500Y-87865000D01*
X153542500Y-87865000D02*
X155827500Y-87865000D01*
X155827500Y-86395000D02*
X153542500Y-86395000D01*
%TO.C,Q3*%
X126014997Y-124887500D02*
X126014998Y-124237500D01*
X126014997Y-124887500D02*
X126014998Y-125537500D01*
X129134999Y-124887500D02*
X129134998Y-123212501D01*
X129134999Y-124887500D02*
X129134998Y-125537500D01*
%TO.C,C10*%
X111595000Y-72195000D02*
X121755000Y-72195000D01*
X111595000Y-72235000D02*
X121755000Y-72235000D01*
X111595001Y-72275000D02*
X121754999Y-72275000D01*
X111596000Y-72155000D02*
X121754000Y-72155000D01*
X111597000Y-72115000D02*
X121753000Y-72115000D01*
X111598000Y-72075000D02*
X121752000Y-72075000D01*
X111600001Y-72035000D02*
X121749999Y-72035000D01*
X111602000Y-71995000D02*
X121748000Y-71995000D01*
X111605000Y-71954999D02*
X121745000Y-71954999D01*
X111607000Y-71915000D02*
X121743000Y-71915000D01*
X111610000Y-71875000D02*
X121740000Y-71875000D01*
X111613000Y-71835001D02*
X121737000Y-71835001D01*
X111617000Y-71795000D02*
X121733000Y-71795000D01*
X111621000Y-71755000D02*
X121729000Y-71755000D01*
X111625000Y-71715000D02*
X121725000Y-71715000D01*
X111630000Y-71675000D02*
X121720000Y-71675000D01*
X111635000Y-71635000D02*
X121715000Y-71635000D01*
X111640000Y-71595000D02*
X121710000Y-71595000D01*
X111645000Y-71554000D02*
X121705000Y-71554000D01*
X111651000Y-71514000D02*
X121699000Y-71514000D01*
X111657000Y-71474000D02*
X121693000Y-71474000D01*
X111664000Y-71434000D02*
X121686000Y-71434000D01*
X111671000Y-71394000D02*
X121679000Y-71394000D01*
X111678000Y-71354000D02*
X121672000Y-71354000D01*
X111685000Y-71314000D02*
X121665000Y-71314000D01*
X111693000Y-71274000D02*
X121657000Y-71274000D01*
X111701000Y-71234000D02*
X121649000Y-71234000D01*
X111710000Y-71194000D02*
X121640000Y-71194000D01*
X111719000Y-71154000D02*
X121631000Y-71154000D01*
X111728000Y-71114000D02*
X121622000Y-71114000D01*
X111737000Y-71074000D02*
X121613000Y-71074000D01*
X111747000Y-71034000D02*
X121603000Y-71034000D01*
X111757000Y-70994000D02*
X115434000Y-70994000D01*
X111768000Y-70954000D02*
X115433999Y-70954000D01*
X111778000Y-70914000D02*
X115434000Y-70914000D01*
X111790000Y-70874000D02*
X115434000Y-70874000D01*
X111801000Y-70834000D02*
X115434000Y-70834000D01*
X111813000Y-70794000D02*
X115434000Y-70793999D01*
X111825000Y-70754001D02*
X115434000Y-70754000D01*
X111838000Y-70714000D02*
X115434000Y-70714000D01*
X111851000Y-70674000D02*
X115434000Y-70674001D01*
X111864000Y-70634000D02*
X115434000Y-70634000D01*
X111878000Y-70594000D02*
X115434000Y-70594000D01*
X111892000Y-70554000D02*
X115434000Y-70554000D01*
X111907000Y-70514000D02*
X115433999Y-70514000D01*
X111921000Y-70474000D02*
X115434000Y-70474000D01*
X111937001Y-70434000D02*
X115434000Y-70434000D01*
X111952000Y-70394000D02*
X115434000Y-70394000D01*
X111967999Y-70354000D02*
X115434000Y-70353999D01*
X111985000Y-70314000D02*
X115434000Y-70314000D01*
X112001000Y-70273999D02*
X115434000Y-70274000D01*
X112018000Y-70234000D02*
X115434000Y-70234001D01*
X112036000Y-70194000D02*
X115434000Y-70194000D01*
X112054000Y-70154000D02*
X115434000Y-70154000D01*
X112072000Y-70114000D02*
X115434000Y-70114000D01*
X112091000Y-70074001D02*
X115434000Y-70074001D01*
X112111000Y-70034000D02*
X115434000Y-70034000D01*
X112130000Y-69994000D02*
X115434000Y-69994000D01*
X112150000Y-69954000D02*
X115434000Y-69954000D01*
X112171000Y-69914000D02*
X115434000Y-69913999D01*
X112192000Y-69874000D02*
X115434000Y-69874000D01*
X112213000Y-69834000D02*
X115434000Y-69834000D01*
X112235000Y-69794000D02*
X115434000Y-69794001D01*
X112258000Y-69754000D02*
X115434000Y-69754000D01*
X112280000Y-69714000D02*
X115434000Y-69714000D01*
X112304000Y-69674000D02*
X115434000Y-69674000D01*
X112328000Y-69634000D02*
X115434000Y-69634001D01*
X112352000Y-69594000D02*
X115434000Y-69594000D01*
X112377001Y-69554000D02*
X115434000Y-69554000D01*
X112402000Y-69514000D02*
X115434000Y-69514000D01*
X112428000Y-69473999D02*
X115434000Y-69473999D01*
X112454000Y-69434000D02*
X115434000Y-69434000D01*
X112481000Y-69394000D02*
X115434000Y-69394000D01*
X112509000Y-69354000D02*
X115434000Y-69354001D01*
X112537000Y-69314000D02*
X115434000Y-69313999D01*
X112565001Y-69274000D02*
X115434000Y-69274000D01*
X112595000Y-69234000D02*
X115434000Y-69234000D01*
X112625000Y-69194001D02*
X115434000Y-69194001D01*
X112655000Y-69154000D02*
X115434000Y-69154000D01*
X112686001Y-69114000D02*
X115434000Y-69114000D01*
X112718000Y-69074000D02*
X115434000Y-69074000D01*
X112750000Y-69034000D02*
X115434000Y-69033999D01*
X112783000Y-68994000D02*
X115434000Y-68994000D01*
X112817000Y-68953999D02*
X115434000Y-68954000D01*
X112851000Y-68914000D02*
X115434000Y-68914000D01*
X112886000Y-68873999D02*
X115434000Y-68873999D01*
X112922000Y-68834000D02*
X115434000Y-68834000D01*
X112959000Y-68794000D02*
X115434000Y-68794000D01*
X112996000Y-68754000D02*
X115434000Y-68754001D01*
X113035000Y-68714000D02*
X115434000Y-68714000D01*
X113074000Y-68674000D02*
X115434000Y-68674000D01*
X113114000Y-68634000D02*
X115434000Y-68634000D01*
X113155000Y-68594000D02*
X115433999Y-68594000D01*
X113197000Y-68554000D02*
X115434000Y-68554000D01*
X113239001Y-68514000D02*
X120110999Y-68514000D01*
X113283000Y-68474000D02*
X120067000Y-68474000D01*
X113300000Y-77254646D02*
X114300000Y-77254646D01*
X113328001Y-68434000D02*
X120021999Y-68434000D01*
X113374000Y-68394000D02*
X119976000Y-68394000D01*
X113421000Y-68354000D02*
X119929000Y-68354000D01*
X113469000Y-68314000D02*
X119881000Y-68314000D01*
X113519000Y-68274000D02*
X119831000Y-68274000D01*
X113569000Y-68234000D02*
X119781000Y-68234000D01*
X113621000Y-68194000D02*
X119729000Y-68194000D01*
X113675000Y-68154000D02*
X119675000Y-68154000D01*
X113730000Y-68114000D02*
X119620000Y-68114000D01*
X113786000Y-68074000D02*
X119564000Y-68074000D01*
X113800000Y-77754646D02*
X113800000Y-76754646D01*
X113845000Y-68034000D02*
X119505000Y-68034000D01*
X113905000Y-67994000D02*
X119445000Y-67994000D01*
X113966000Y-67954000D02*
X119384000Y-67954000D01*
X114030000Y-67914000D02*
X119320000Y-67914000D01*
X114096001Y-67874000D02*
X119253999Y-67874000D01*
X114165000Y-67834000D02*
X119185000Y-67834000D01*
X114236000Y-67794000D02*
X119114000Y-67794000D01*
X114310000Y-67754000D02*
X119040000Y-67754000D01*
X114386001Y-67714000D02*
X118963999Y-67714000D01*
X114466000Y-67674000D02*
X118884000Y-67674000D01*
X114550001Y-67634000D02*
X118799999Y-67634000D01*
X114638000Y-67594000D02*
X118712000Y-67594000D01*
X114730999Y-67554000D02*
X118619001Y-67554000D01*
X114829000Y-67514000D02*
X118521000Y-67514000D01*
X114933000Y-67473999D02*
X118417000Y-67473999D01*
X115045000Y-67434000D02*
X118305000Y-67434000D01*
X115165000Y-67394000D02*
X118185000Y-67394000D01*
X115296999Y-67354000D02*
X118053001Y-67354000D01*
X115445000Y-67314000D02*
X117905000Y-67314000D01*
X115613001Y-67274000D02*
X117736999Y-67274000D01*
X115813000Y-67234000D02*
X117537000Y-67234000D01*
X116076001Y-67194000D02*
X117273999Y-67194000D01*
X117916000Y-68554000D02*
X120153000Y-68554000D01*
X117916000Y-68634000D02*
X120236000Y-68634000D01*
X117916000Y-68674000D02*
X120276000Y-68674000D01*
X117916000Y-68714000D02*
X120315000Y-68714000D01*
X117916000Y-68754001D02*
X120354000Y-68754000D01*
X117916000Y-68794000D02*
X120391000Y-68794000D01*
X117916000Y-68834000D02*
X120428000Y-68834000D01*
X117916000Y-68873999D02*
X120464000Y-68873999D01*
X117916000Y-68914000D02*
X120499000Y-68914000D01*
X117916000Y-68954000D02*
X120533000Y-68953999D01*
X117916000Y-68994000D02*
X120567000Y-68994000D01*
X117916000Y-69033999D02*
X120600000Y-69034000D01*
X117916000Y-69074000D02*
X120632000Y-69074000D01*
X117916000Y-69114000D02*
X120663999Y-69114000D01*
X117916000Y-69154000D02*
X120695000Y-69154000D01*
X117916000Y-69194001D02*
X120725000Y-69194001D01*
X117916000Y-69234000D02*
X120755000Y-69234000D01*
X117916000Y-69274000D02*
X120784999Y-69274000D01*
X117916000Y-69313999D02*
X120813000Y-69314000D01*
X117916000Y-69354001D02*
X120841000Y-69354000D01*
X117916000Y-69394000D02*
X120869000Y-69394000D01*
X117916000Y-69434000D02*
X120896000Y-69434000D01*
X117916000Y-69473999D02*
X120922000Y-69473999D01*
X117916000Y-69514000D02*
X120948000Y-69514000D01*
X117916000Y-69554000D02*
X120972999Y-69554000D01*
X117916000Y-69594000D02*
X120998000Y-69594000D01*
X117916000Y-69634001D02*
X121022000Y-69634000D01*
X117916000Y-69674000D02*
X121046000Y-69674000D01*
X117916000Y-69714000D02*
X121070000Y-69714000D01*
X117916000Y-69754000D02*
X121092000Y-69754000D01*
X117916000Y-69794001D02*
X121115000Y-69794000D01*
X117916000Y-69834000D02*
X121137000Y-69834000D01*
X117916000Y-69874000D02*
X121158000Y-69874000D01*
X117916000Y-69913999D02*
X121179000Y-69914000D01*
X117916000Y-69954000D02*
X121200000Y-69954000D01*
X117916000Y-69994000D02*
X121220000Y-69994000D01*
X117916000Y-70034000D02*
X121239000Y-70034000D01*
X117916000Y-70074001D02*
X121259000Y-70074001D01*
X117916000Y-70114000D02*
X121278000Y-70114000D01*
X117916000Y-70154000D02*
X121296000Y-70154000D01*
X117916000Y-70194000D02*
X121314000Y-70194000D01*
X117916000Y-70234001D02*
X121332000Y-70234000D01*
X117916000Y-70274000D02*
X121349000Y-70273999D01*
X117916000Y-70314000D02*
X121365000Y-70314000D01*
X117916000Y-70353999D02*
X121382001Y-70354000D01*
X117916000Y-70394000D02*
X121398000Y-70394000D01*
X117916000Y-70434000D02*
X121412999Y-70434000D01*
X117916000Y-70474000D02*
X121429000Y-70474000D01*
X117916000Y-70554000D02*
X121458000Y-70554000D01*
X117916000Y-70594000D02*
X121472000Y-70594000D01*
X117916000Y-70634000D02*
X121486000Y-70634000D01*
X117916000Y-70674001D02*
X121499000Y-70674000D01*
X117916000Y-70714000D02*
X121512000Y-70714000D01*
X117916000Y-70754000D02*
X121525000Y-70754001D01*
X117916000Y-70793999D02*
X121537000Y-70794000D01*
X117916000Y-70834000D02*
X121549000Y-70834000D01*
X117916000Y-70874000D02*
X121560000Y-70874000D01*
X117916000Y-70914000D02*
X121572000Y-70914000D01*
X117916000Y-70994000D02*
X121593000Y-70994000D01*
X117916001Y-68594000D02*
X120195000Y-68594000D01*
X117916001Y-70514000D02*
X121443000Y-70514000D01*
X117916001Y-70954000D02*
X121582000Y-70954000D01*
X121795000Y-72275000D02*
G75*
G02*
X111555000Y-72275000I-5120000J0D01*
G01*
X111555000Y-72275000D02*
G75*
G02*
X121795000Y-72275000I5120000J0D01*
G01*
%TO.C,J4*%
X160490000Y-103865000D02*
X160490000Y-109835000D01*
X160490000Y-109835000D02*
X173110000Y-109835000D01*
X160500000Y-107575000D02*
X161250000Y-107574999D01*
X160500000Y-109075000D02*
X160500000Y-109825000D01*
X160500000Y-109825000D02*
X162300000Y-109825001D01*
X161250000Y-104625000D02*
X166800000Y-104625000D01*
X161250000Y-107574999D02*
X161250000Y-104625000D01*
X162300000Y-109825001D02*
X162300001Y-109075000D01*
X162300001Y-109075000D02*
X160500000Y-109075000D01*
X163800000Y-109075000D02*
X163800000Y-109825000D01*
X163800000Y-109825000D02*
X169800000Y-109825001D01*
X169799999Y-109075000D02*
X163800000Y-109075000D01*
X169800000Y-109825001D02*
X169799999Y-109075000D01*
X171300000Y-109825001D02*
X173100000Y-109825000D01*
X171300001Y-109075000D02*
X171300000Y-109825001D01*
X172150000Y-110125000D02*
X173400000Y-110125000D01*
X172350000Y-104625000D02*
X166800000Y-104625000D01*
X172350000Y-107575000D02*
X172350000Y-104625000D01*
X173100000Y-107575000D02*
X172350000Y-107575000D01*
X173100000Y-109075000D02*
X171300001Y-109075000D01*
X173100000Y-109825000D02*
X173100000Y-109075000D01*
X173110000Y-103865000D02*
X160490000Y-103865000D01*
X173110000Y-109835000D02*
X173110000Y-103865000D01*
X173400000Y-110125000D02*
X173400000Y-108875000D01*
%TO.C,R5*%
X102457224Y-103857500D02*
X101947776Y-103857500D01*
X102457224Y-104902500D02*
X101947776Y-104902500D01*
%TO.C,Q1*%
X118864998Y-124887500D02*
X118864999Y-124237500D01*
X118864998Y-124887500D02*
X118864999Y-125537500D01*
X121985000Y-124887500D02*
X121984999Y-123212501D01*
X121985000Y-124887500D02*
X121984999Y-125537500D01*
%TO.C,C15*%
X129030000Y-83653733D02*
X129030000Y-83946267D01*
X130050000Y-83653733D02*
X130050000Y-83946267D01*
%TO.C,R26*%
X122477499Y-122795277D02*
X122477499Y-123304725D01*
X123522499Y-122795277D02*
X123522499Y-123304725D01*
%TO.C,R29*%
X106454725Y-121427500D02*
X105945277Y-121427500D01*
X106454725Y-122472500D02*
X105945277Y-122472500D01*
%TO.C,U5*%
X125160000Y-83590000D02*
X126960000Y-83590000D01*
X126160000Y-80370000D02*
X125360000Y-80370000D01*
X126160000Y-80370000D02*
X126960000Y-80370000D01*
X124860000Y-80420000D02*
X124620000Y-80090000D01*
X125100000Y-80090000D01*
X124860000Y-80420000D01*
G36*
X124860000Y-80420000D02*
G01*
X124620000Y-80090000D01*
X125100000Y-80090000D01*
X124860000Y-80420000D01*
G37*
D13*
%TO.C,U4*%
X111599999Y-79760000D02*
X117300000Y-79760000D01*
X111600000Y-84759999D02*
X111599999Y-79760000D01*
D14*
X112200000Y-85260000D02*
X112200000Y-85260000D01*
X112200000Y-85460000D02*
X112200000Y-85460000D01*
D13*
X117300000Y-79760000D02*
X117300000Y-84760000D01*
X117300000Y-84760000D02*
X111600000Y-84759999D01*
D14*
X112200000Y-85260000D02*
G75*
G02*
X112200000Y-85460000I-1J-100000D01*
G01*
X112200000Y-85460000D02*
G75*
G02*
X112200000Y-85260000I-1J100000D01*
G01*
D12*
%TO.C,R34*%
X115352500Y-122732776D02*
X115352500Y-123242224D01*
X116397500Y-122732776D02*
X116397500Y-123242224D01*
%TO.C,SW2*%
X102140000Y-92660000D02*
X98240000Y-92660000D01*
X98240000Y-89760000D01*
X102140000Y-89760000D01*
X102140000Y-92660000D01*
%TO.C,D9*%
X97400000Y-96825000D02*
X97400000Y-98295000D01*
X97400000Y-98295000D02*
X99685000Y-98295000D01*
X99685000Y-96825000D02*
X97400000Y-96825000D01*
%TO.C,C2*%
X117250000Y-88758335D02*
X117250000Y-88526665D01*
X117970000Y-88758335D02*
X117970000Y-88526665D01*
%TO.C,R22*%
X154635276Y-112967500D02*
X155144724Y-112967500D01*
X154635276Y-114012500D02*
X155144724Y-114012500D01*
%TO.C,R28*%
X108327499Y-122720277D02*
X108327499Y-123229725D01*
X109372499Y-122720277D02*
X109372499Y-123229725D01*
%TO.C,R4*%
X102467224Y-102167500D02*
X101957776Y-102167500D01*
X102467224Y-103212500D02*
X101957776Y-103212500D01*
%TO.C,R20*%
X154602776Y-65407500D02*
X155112224Y-65407500D01*
X154602776Y-66452500D02*
X155112224Y-66452500D01*
%TO.C,U3*%
X109344999Y-113689999D02*
X107394999Y-113689998D01*
X109344999Y-113689999D02*
X111294999Y-113689998D01*
X109344999Y-118809997D02*
X107394999Y-118809998D01*
X109344999Y-118809997D02*
X111294999Y-118809998D01*
X112284998Y-119044998D02*
X111804999Y-119044998D01*
X112044999Y-118714998D01*
X112284998Y-119044998D01*
G36*
X112284998Y-119044998D02*
G01*
X111804999Y-119044998D01*
X112044999Y-118714998D01*
X112284998Y-119044998D01*
G37*
%TO.C,R9*%
X103527499Y-118089722D02*
X103527499Y-117580274D01*
X104572499Y-118089722D02*
X104572499Y-117580274D01*
%TO.C,J10*%
X102190000Y-127290000D02*
X102190000Y-135110000D01*
X102190000Y-128890000D02*
X103110000Y-128890000D01*
X102190000Y-135110000D02*
X108310000Y-135110001D01*
X102950000Y-131250000D02*
X102950000Y-132850000D01*
X102950000Y-132850000D02*
X103950000Y-132850000D01*
X103110000Y-127290000D02*
X102190000Y-127290000D01*
X103110000Y-128890000D02*
X103110000Y-127290000D01*
X103390000Y-128890000D02*
X103110000Y-128890000D01*
X103390000Y-128890000D02*
X103390000Y-127675000D01*
X103450000Y-132850000D02*
X103450000Y-135110001D01*
X103950000Y-131250000D02*
X102950000Y-131250000D01*
X103950000Y-132850000D02*
X103950000Y-131250000D01*
X103950000Y-132850000D02*
X103950000Y-135110000D01*
X104750000Y-130750000D02*
X105750000Y-130750000D01*
X104750000Y-135110001D02*
X104750000Y-130750000D01*
X105750000Y-130750000D02*
X105750000Y-135110000D01*
X106550000Y-132850000D02*
X106550001Y-131250000D01*
X106550001Y-131250000D02*
X107549999Y-131250000D01*
X107390000Y-127290000D02*
X107390000Y-128890000D01*
X107390000Y-128890000D02*
X107109999Y-128890000D01*
X107549999Y-131250000D02*
X107550000Y-132850000D01*
X107550000Y-132850000D02*
X106550000Y-132850000D01*
X108310000Y-127290001D02*
X107390000Y-127290000D01*
X108310000Y-128889999D02*
X107390000Y-128890000D01*
X108310000Y-135110001D02*
X108310000Y-127290001D01*
%TO.C,D12*%
X153502500Y-63585000D02*
X153502500Y-65055000D01*
X153502500Y-65055000D02*
X155787500Y-65055000D01*
X155787500Y-63585000D02*
X153502500Y-63585000D01*
%TO.C,J14*%
X94510000Y-105790000D02*
X94510000Y-113910000D01*
X94510000Y-108350000D02*
X98870000Y-108350000D01*
X94510000Y-113910000D02*
X102330000Y-113910000D01*
X96770000Y-106550000D02*
X96770000Y-107550000D01*
X96770000Y-107050000D02*
X94510000Y-107050000D01*
X96770000Y-107550000D02*
X94510000Y-107550000D01*
X96770000Y-107550000D02*
X98370000Y-107550000D01*
X96770000Y-112150000D02*
X98370000Y-112150000D01*
X96770000Y-113150000D02*
X96770000Y-112150000D01*
X98370000Y-106550000D02*
X96770000Y-106550000D01*
X98370000Y-107550000D02*
X98370000Y-106550000D01*
X98370000Y-112150000D02*
X98370000Y-113150000D01*
X98370000Y-113150000D02*
X96770000Y-113150000D01*
X98870000Y-108350000D02*
X98870000Y-111350000D01*
X98870000Y-111350000D02*
X94510000Y-111350000D01*
X100730000Y-105790000D02*
X100730000Y-106710000D01*
X100730000Y-106710000D02*
X102330000Y-106710000D01*
X100730000Y-106990000D02*
X100730000Y-106710000D01*
X100730000Y-106990000D02*
X101945000Y-106990000D01*
X100730000Y-112990000D02*
X100730000Y-112710000D01*
X100730000Y-113910000D02*
X100730000Y-112990000D01*
X102330000Y-105790000D02*
X94510000Y-105790000D01*
X102330000Y-106710000D02*
X102330000Y-105790000D01*
X102330000Y-112990000D02*
X100730000Y-112990000D01*
X102330000Y-113910000D02*
X102330000Y-112990000D01*
%TO.C,J8*%
X160565000Y-128290000D02*
X160565000Y-134260000D01*
X160565000Y-134260000D02*
X173185000Y-134260000D01*
X160575000Y-132000000D02*
X161325000Y-131999999D01*
X160575000Y-133500000D02*
X160575000Y-134250000D01*
X160575000Y-134250000D02*
X162375000Y-134250001D01*
X161325000Y-129050000D02*
X166875000Y-129050000D01*
X161325000Y-131999999D02*
X161325000Y-129050000D01*
X162375000Y-134250001D02*
X162375001Y-133500000D01*
X162375001Y-133500000D02*
X160575000Y-133500000D01*
X163875000Y-133500000D02*
X163875000Y-134250000D01*
X163875000Y-134250000D02*
X169875000Y-134250001D01*
X169874999Y-133500000D02*
X163875000Y-133500000D01*
X169875000Y-134250001D02*
X169874999Y-133500000D01*
X171375000Y-134250001D02*
X173175000Y-134250000D01*
X171375001Y-133500000D02*
X171375000Y-134250001D01*
X172225000Y-134550000D02*
X173475000Y-134550000D01*
X172425000Y-129050000D02*
X166875000Y-129050000D01*
X172425000Y-132000000D02*
X172425000Y-129050000D01*
X173175000Y-132000000D02*
X172425000Y-132000000D01*
X173175000Y-133500000D02*
X171375001Y-133500000D01*
X173175000Y-134250000D02*
X173175000Y-133500000D01*
X173185000Y-128290000D02*
X160565000Y-128290000D01*
X173185000Y-134260000D02*
X173185000Y-128290000D01*
X173475000Y-134550000D02*
X173475000Y-133300000D01*
%TO.C,R17*%
X160987742Y-90797500D02*
X161462258Y-90797500D01*
X160987742Y-91842500D02*
X161462258Y-91842500D01*
%TO.C,D6*%
X109642499Y-110105000D02*
X109642499Y-111575000D01*
X109642499Y-111575000D02*
X111927499Y-111575000D01*
X111927499Y-110105000D02*
X109642499Y-110105000D01*
%TO.C,C14*%
X121820000Y-81773733D02*
X121820000Y-82066267D01*
X122840000Y-81773733D02*
X122840000Y-82066267D01*
%TO.C,R8*%
X109515276Y-87317500D02*
X110024724Y-87317500D01*
X109515276Y-88362500D02*
X110024724Y-88362500D01*
%TO.C,R32*%
X129627500Y-122782776D02*
X129627500Y-123292224D01*
X130672500Y-122782776D02*
X130672500Y-123292224D01*
%TO.C,D7*%
X98092500Y-94715000D02*
X100377500Y-94715000D01*
X100377500Y-93245000D02*
X98092500Y-93245000D01*
X100377500Y-94715000D02*
X100377500Y-93245000D01*
%TO.C,R19*%
X137257742Y-90587500D02*
X137732258Y-90587500D01*
X137257742Y-91632500D02*
X137732258Y-91632500D01*
%TO.C,C16*%
X129030000Y-80316267D02*
X129030000Y-80023733D01*
X130050000Y-80316267D02*
X130050000Y-80023733D01*
%TO.C,R31*%
X160917742Y-67747500D02*
X161392258Y-67747500D01*
X160917742Y-68792500D02*
X161392258Y-68792500D01*
%TO.C,C18*%
X153964999Y-106990000D02*
X152462000Y-106990000D01*
X153964999Y-107150000D02*
X152493999Y-107150000D01*
X153964999Y-107271000D02*
X152525000Y-107271000D01*
X153964999Y-107431000D02*
X152577000Y-107431000D01*
X153964999Y-107711000D02*
X152695000Y-107711000D01*
X153964999Y-107871000D02*
X152781000Y-107871000D01*
X153964999Y-108311000D02*
X153104000Y-108311001D01*
X153964999Y-108751000D02*
X153622000Y-108751000D01*
X153965000Y-106790000D02*
X152436000Y-106790000D01*
X153965000Y-106829999D02*
X152440000Y-106829999D01*
X153965000Y-106870000D02*
X152444000Y-106870000D01*
X153965000Y-106910000D02*
X152449000Y-106910000D01*
X153965000Y-106950000D02*
X152455000Y-106950000D01*
X153965000Y-107030000D02*
X152469000Y-107030000D01*
X153965000Y-107070000D02*
X152477000Y-107070000D01*
X153965000Y-107110000D02*
X152485000Y-107110000D01*
X153965000Y-107190000D02*
X152504000Y-107190000D01*
X153965000Y-107230000D02*
X152514000Y-107230000D01*
X153965000Y-107311000D02*
X152537000Y-107311000D01*
X153965000Y-107351000D02*
X152550000Y-107351000D01*
X153965000Y-107391000D02*
X152563000Y-107391000D01*
X153965000Y-107471000D02*
X152591000Y-107471000D01*
X153965000Y-107511000D02*
X152607000Y-107511000D01*
X153965000Y-107550999D02*
X152623000Y-107551000D01*
X153965000Y-107591001D02*
X152640000Y-107591000D01*
X153965000Y-107631000D02*
X152657000Y-107631000D01*
X153965000Y-107671000D02*
X152676000Y-107671000D01*
X153965000Y-107751000D02*
X152715000Y-107751000D01*
X153965000Y-107791000D02*
X152737000Y-107791000D01*
X153965000Y-107831000D02*
X152758000Y-107831000D01*
X153965000Y-107911000D02*
X152805000Y-107911000D01*
X153965000Y-107951000D02*
X152830000Y-107951000D01*
X153965000Y-107991000D02*
X152856000Y-107991000D01*
X153965000Y-108031001D02*
X152883000Y-108031000D01*
X153965000Y-108071000D02*
X152910000Y-108071000D01*
X153965000Y-108111000D02*
X152940000Y-108111000D01*
X153965000Y-108150999D02*
X152970000Y-108151000D01*
X153965000Y-108191000D02*
X153001000Y-108191000D01*
X153965000Y-108231000D02*
X153034001Y-108231000D01*
X153965000Y-108271000D02*
X153068000Y-108271000D01*
X153965000Y-108351000D02*
X153141000Y-108351000D01*
X153965000Y-108391000D02*
X153179000Y-108391000D01*
X153965000Y-108431000D02*
X153220000Y-108431000D01*
X153965000Y-108471001D02*
X153261999Y-108471000D01*
X153965000Y-108511000D02*
X153306000Y-108510999D01*
X153965000Y-108551000D02*
X153352000Y-108551001D01*
X153965000Y-108590999D02*
X153400000Y-108591000D01*
X153965000Y-108631000D02*
X153451000Y-108631000D01*
X153965000Y-108671000D02*
X153505000Y-108671000D01*
X153965000Y-108711000D02*
X153562000Y-108711000D01*
X153965000Y-108791000D02*
X153686000Y-108791000D01*
X153965000Y-108831000D02*
X153753999Y-108831000D01*
X155289000Y-109151000D02*
X154721000Y-109151000D01*
X155523000Y-109111000D02*
X154487000Y-109111000D01*
X155682000Y-109071000D02*
X154328000Y-109071000D01*
X155810000Y-109030999D02*
X154200000Y-109030999D01*
X155920000Y-108991000D02*
X154090000Y-108991000D01*
X156016000Y-108951000D02*
X153994000Y-108951000D01*
X156103000Y-108911000D02*
X153907000Y-108911000D01*
X156183000Y-108871000D02*
X153827000Y-108871000D01*
X156256001Y-108831000D02*
X156045000Y-108831000D01*
X156324000Y-108791000D02*
X156045000Y-108791000D01*
X156388000Y-108751000D02*
X156045001Y-108751000D01*
X156448000Y-108711000D02*
X156045000Y-108711000D01*
X156480000Y-103745226D02*
X156480000Y-104245225D01*
X156505000Y-108671000D02*
X156045000Y-108671000D01*
X156559000Y-108631000D02*
X156045000Y-108631000D01*
X156610000Y-108591000D02*
X156045000Y-108590999D01*
X156658000Y-108551001D02*
X156045000Y-108551000D01*
X156704000Y-108510999D02*
X156045000Y-108511000D01*
X156730000Y-103995225D02*
X156230000Y-103995225D01*
X156748001Y-108471000D02*
X156045000Y-108471001D01*
X156790000Y-108431000D02*
X156045000Y-108431000D01*
X156831000Y-108391000D02*
X156045000Y-108391000D01*
X156869000Y-108351000D02*
X156045000Y-108351000D01*
X156906000Y-108311001D02*
X156045001Y-108311000D01*
X156942000Y-108271000D02*
X156045000Y-108271000D01*
X156975999Y-108231000D02*
X156045000Y-108231000D01*
X157009000Y-108191000D02*
X156045000Y-108191000D01*
X157040000Y-108151000D02*
X156045000Y-108150999D01*
X157070000Y-108111000D02*
X156045000Y-108111000D01*
X157100000Y-108071000D02*
X156045000Y-108071000D01*
X157127000Y-108031000D02*
X156045000Y-108031001D01*
X157154000Y-107991000D02*
X156045000Y-107991000D01*
X157180000Y-107951000D02*
X156045000Y-107951000D01*
X157205000Y-107911000D02*
X156045000Y-107911000D01*
X157229000Y-107871000D02*
X156045001Y-107871000D01*
X157252000Y-107831000D02*
X156045000Y-107831000D01*
X157273000Y-107791000D02*
X156045000Y-107791000D01*
X157295000Y-107751000D02*
X156045000Y-107751000D01*
X157315000Y-107711000D02*
X156045001Y-107711000D01*
X157334000Y-107671000D02*
X156045000Y-107671000D01*
X157353000Y-107631000D02*
X156045000Y-107631000D01*
X157370000Y-107591000D02*
X156045000Y-107591001D01*
X157387000Y-107551000D02*
X156045000Y-107550999D01*
X157403000Y-107511000D02*
X156045000Y-107511000D01*
X157419000Y-107471000D02*
X156045000Y-107471000D01*
X157433000Y-107431000D02*
X156045001Y-107431000D01*
X157447000Y-107391000D02*
X156045000Y-107391000D01*
X157460000Y-107351000D02*
X156045000Y-107351000D01*
X157473000Y-107311000D02*
X156045000Y-107311000D01*
X157485000Y-107271000D02*
X156045001Y-107271000D01*
X157496000Y-107230000D02*
X156045000Y-107230000D01*
X157506000Y-107190000D02*
X156045000Y-107190000D01*
X157516001Y-107150000D02*
X156045001Y-107150000D01*
X157525000Y-107110000D02*
X156045000Y-107110000D01*
X157533000Y-107070000D02*
X156045000Y-107070000D01*
X157541000Y-107030000D02*
X156045000Y-107030000D01*
X157548000Y-106990000D02*
X156045001Y-106990000D01*
X157555000Y-106950000D02*
X156045000Y-106950000D01*
X157561000Y-106910000D02*
X156045000Y-106910000D01*
X157566000Y-106870000D02*
X156045000Y-106870000D01*
X157570000Y-106829999D02*
X156045000Y-106829999D01*
X157574000Y-106790000D02*
X156045000Y-106790000D01*
X157578000Y-106750000D02*
X152432000Y-106750000D01*
X157581001Y-106710000D02*
X152428999Y-106710000D01*
X157583000Y-106670000D02*
X152427000Y-106670000D01*
X157583999Y-106630000D02*
X152426001Y-106630000D01*
X157585000Y-106550000D02*
X152425000Y-106550000D01*
X157585000Y-106590000D02*
X152425000Y-106590000D01*
X157625001Y-106549999D02*
G75*
G02*
X152384999Y-106549999I-2620001J0D01*
G01*
X152384999Y-106549999D02*
G75*
G02*
X157625001Y-106549999I2620001J0D01*
G01*
%TO.C,R21*%
X137307742Y-67637500D02*
X137782258Y-67637500D01*
X137307742Y-68682500D02*
X137782258Y-68682500D01*
%TO.C,C20*%
X154059999Y-130984887D02*
X152557000Y-130984887D01*
X154059999Y-131144887D02*
X152588999Y-131144887D01*
X154059999Y-131265887D02*
X152620000Y-131265887D01*
X154059999Y-131425887D02*
X152672000Y-131425887D01*
X154059999Y-131705887D02*
X152790000Y-131705887D01*
X154059999Y-131865887D02*
X152876000Y-131865887D01*
X154059999Y-132305887D02*
X153199000Y-132305888D01*
X154059999Y-132745887D02*
X153717000Y-132745887D01*
X154060000Y-130784887D02*
X152531000Y-130784887D01*
X154060000Y-130824886D02*
X152535000Y-130824886D01*
X154060000Y-130864887D02*
X152539000Y-130864887D01*
X154060000Y-130904887D02*
X152544000Y-130904887D01*
X154060000Y-130944887D02*
X152550000Y-130944887D01*
X154060000Y-131024887D02*
X152564000Y-131024887D01*
X154060000Y-131064887D02*
X152572000Y-131064887D01*
X154060000Y-131104887D02*
X152580000Y-131104887D01*
X154060000Y-131184887D02*
X152599000Y-131184887D01*
X154060000Y-131224887D02*
X152609000Y-131224887D01*
X154060000Y-131305887D02*
X152632000Y-131305887D01*
X154060000Y-131345887D02*
X152645000Y-131345887D01*
X154060000Y-131385887D02*
X152658000Y-131385887D01*
X154060000Y-131465887D02*
X152686000Y-131465887D01*
X154060000Y-131505887D02*
X152702000Y-131505887D01*
X154060000Y-131545886D02*
X152718000Y-131545887D01*
X154060000Y-131585888D02*
X152735000Y-131585887D01*
X154060000Y-131625887D02*
X152752000Y-131625887D01*
X154060000Y-131665887D02*
X152771000Y-131665887D01*
X154060000Y-131745887D02*
X152810000Y-131745887D01*
X154060000Y-131785887D02*
X152832000Y-131785887D01*
X154060000Y-131825887D02*
X152853000Y-131825887D01*
X154060000Y-131905887D02*
X152900000Y-131905887D01*
X154060000Y-131945887D02*
X152925000Y-131945887D01*
X154060000Y-131985887D02*
X152951000Y-131985887D01*
X154060000Y-132025888D02*
X152978000Y-132025887D01*
X154060000Y-132065887D02*
X153005000Y-132065887D01*
X154060000Y-132105887D02*
X153035000Y-132105887D01*
X154060000Y-132145886D02*
X153065000Y-132145887D01*
X154060000Y-132185887D02*
X153096000Y-132185887D01*
X154060000Y-132225887D02*
X153129001Y-132225887D01*
X154060000Y-132265887D02*
X153163000Y-132265887D01*
X154060000Y-132345887D02*
X153236000Y-132345887D01*
X154060000Y-132385887D02*
X153274000Y-132385887D01*
X154060000Y-132425887D02*
X153315000Y-132425887D01*
X154060000Y-132465888D02*
X153356999Y-132465887D01*
X154060000Y-132505887D02*
X153401000Y-132505886D01*
X154060000Y-132545887D02*
X153447000Y-132545888D01*
X154060000Y-132585886D02*
X153495000Y-132585887D01*
X154060000Y-132625887D02*
X153546000Y-132625887D01*
X154060000Y-132665887D02*
X153600000Y-132665887D01*
X154060000Y-132705887D02*
X153657000Y-132705887D01*
X154060000Y-132785887D02*
X153781000Y-132785887D01*
X154060000Y-132825887D02*
X153848999Y-132825887D01*
X155384000Y-133145887D02*
X154816000Y-133145887D01*
X155618000Y-133105887D02*
X154582000Y-133105887D01*
X155777000Y-133065887D02*
X154423000Y-133065887D01*
X155905000Y-133025886D02*
X154295000Y-133025886D01*
X156015000Y-132985887D02*
X154185000Y-132985887D01*
X156111000Y-132945887D02*
X154089000Y-132945887D01*
X156198000Y-132905887D02*
X154002000Y-132905887D01*
X156278000Y-132865887D02*
X153922000Y-132865887D01*
X156351001Y-132825887D02*
X156140000Y-132825887D01*
X156419000Y-132785887D02*
X156140000Y-132785887D01*
X156483000Y-132745887D02*
X156140001Y-132745887D01*
X156543000Y-132705887D02*
X156140000Y-132705887D01*
X156575000Y-127740113D02*
X156575000Y-128240112D01*
X156600000Y-132665887D02*
X156140000Y-132665887D01*
X156654000Y-132625887D02*
X156140000Y-132625887D01*
X156705000Y-132585887D02*
X156140000Y-132585886D01*
X156753000Y-132545888D02*
X156140000Y-132545887D01*
X156799000Y-132505886D02*
X156140000Y-132505887D01*
X156825000Y-127990112D02*
X156325000Y-127990112D01*
X156843001Y-132465887D02*
X156140000Y-132465888D01*
X156885000Y-132425887D02*
X156140000Y-132425887D01*
X156926000Y-132385887D02*
X156140000Y-132385887D01*
X156964000Y-132345887D02*
X156140000Y-132345887D01*
X157001000Y-132305888D02*
X156140001Y-132305887D01*
X157037000Y-132265887D02*
X156140000Y-132265887D01*
X157070999Y-132225887D02*
X156140000Y-132225887D01*
X157104000Y-132185887D02*
X156140000Y-132185887D01*
X157135000Y-132145887D02*
X156140000Y-132145886D01*
X157165000Y-132105887D02*
X156140000Y-132105887D01*
X157195000Y-132065887D02*
X156140000Y-132065887D01*
X157222000Y-132025887D02*
X156140000Y-132025888D01*
X157249000Y-131985887D02*
X156140000Y-131985887D01*
X157275000Y-131945887D02*
X156140000Y-131945887D01*
X157300000Y-131905887D02*
X156140000Y-131905887D01*
X157324000Y-131865887D02*
X156140001Y-131865887D01*
X157347000Y-131825887D02*
X156140000Y-131825887D01*
X157368000Y-131785887D02*
X156140000Y-131785887D01*
X157390000Y-131745887D02*
X156140000Y-131745887D01*
X157410000Y-131705887D02*
X156140001Y-131705887D01*
X157429000Y-131665887D02*
X156140000Y-131665887D01*
X157448000Y-131625887D02*
X156140000Y-131625887D01*
X157465000Y-131585887D02*
X156140000Y-131585888D01*
X157482000Y-131545887D02*
X156140000Y-131545886D01*
X157498000Y-131505887D02*
X156140000Y-131505887D01*
X157514000Y-131465887D02*
X156140000Y-131465887D01*
X157528000Y-131425887D02*
X156140001Y-131425887D01*
X157542000Y-131385887D02*
X156140000Y-131385887D01*
X157555000Y-131345887D02*
X156140000Y-131345887D01*
X157568000Y-131305887D02*
X156140000Y-131305887D01*
X157580000Y-131265887D02*
X156140001Y-131265887D01*
X157591000Y-131224887D02*
X156140000Y-131224887D01*
X157601000Y-131184887D02*
X156140000Y-131184887D01*
X157611001Y-131144887D02*
X156140001Y-131144887D01*
X157620000Y-131104887D02*
X156140000Y-131104887D01*
X157628000Y-131064887D02*
X156140000Y-131064887D01*
X157636000Y-131024887D02*
X156140000Y-131024887D01*
X157643000Y-130984887D02*
X156140001Y-130984887D01*
X157650000Y-130944887D02*
X156140000Y-130944887D01*
X157656000Y-130904887D02*
X156140000Y-130904887D01*
X157661000Y-130864887D02*
X156140000Y-130864887D01*
X157665000Y-130824886D02*
X156140000Y-130824886D01*
X157669000Y-130784887D02*
X156140000Y-130784887D01*
X157673000Y-130744887D02*
X152527000Y-130744887D01*
X157676001Y-130704887D02*
X152523999Y-130704887D01*
X157678000Y-130664887D02*
X152522000Y-130664887D01*
X157678999Y-130624887D02*
X152521001Y-130624887D01*
X157680000Y-130544887D02*
X152520000Y-130544887D01*
X157680000Y-130584887D02*
X152520000Y-130584887D01*
X157720001Y-130544886D02*
G75*
G02*
X152479999Y-130544886I-2620001J0D01*
G01*
X152479999Y-130544886D02*
G75*
G02*
X157720001Y-130544886I2620001J0D01*
G01*
%TO.C,R3*%
X102467224Y-100467500D02*
X101957776Y-100467500D01*
X102467224Y-101512500D02*
X101957776Y-101512500D01*
%TO.C,R13*%
X101960276Y-93457500D02*
X102469724Y-93457500D01*
X101960276Y-94502500D02*
X102469724Y-94502500D01*
%TO.C,R33*%
X127829722Y-121527498D02*
X127320274Y-121527498D01*
X127829722Y-122572498D02*
X127320274Y-122572498D01*
%TO.C,R7*%
X102107224Y-88087500D02*
X101597776Y-88087500D01*
X102107224Y-89132500D02*
X101597776Y-89132500D01*
%TO.C,RV1*%
X105165000Y-88855000D02*
X105165000Y-95695000D01*
X105165000Y-88855000D02*
X108195000Y-88855000D01*
X105165000Y-95695000D02*
X108195000Y-95695000D01*
X109495000Y-88855000D02*
X112405000Y-88855000D01*
X109495000Y-95695000D02*
X112405000Y-95695000D01*
X112405000Y-88855000D02*
X112405000Y-95695000D01*
%TO.C,J7*%
X136810000Y-128315000D02*
X136810000Y-134285000D01*
X136810000Y-134285000D02*
X149430000Y-134285000D01*
X136820000Y-132025000D02*
X137570000Y-132024999D01*
X136820000Y-133525000D02*
X136820000Y-134275000D01*
X136820000Y-134275000D02*
X138620000Y-134275001D01*
X137570000Y-129075000D02*
X143120000Y-129075000D01*
X137570000Y-132024999D02*
X137570000Y-129075000D01*
X138620000Y-134275001D02*
X138620001Y-133525000D01*
X138620001Y-133525000D02*
X136820000Y-133525000D01*
X140120000Y-133525000D02*
X140120000Y-134275000D01*
X140120000Y-134275000D02*
X146120000Y-134275001D01*
X146119999Y-133525000D02*
X140120000Y-133525000D01*
X146120000Y-134275001D02*
X146119999Y-133525000D01*
X147620000Y-134275001D02*
X149420000Y-134275000D01*
X147620001Y-133525000D02*
X147620000Y-134275001D01*
X148470000Y-134575000D02*
X149720000Y-134575000D01*
X148670000Y-129075000D02*
X143120000Y-129075000D01*
X148670000Y-132025000D02*
X148670000Y-129075000D01*
X149420000Y-132025000D02*
X148670000Y-132025000D01*
X149420000Y-133525000D02*
X147620001Y-133525000D01*
X149420000Y-134275000D02*
X149420000Y-133525000D01*
X149430000Y-128315000D02*
X136810000Y-128315000D01*
X149430000Y-134285000D02*
X149430000Y-128315000D01*
X149720000Y-134575000D02*
X149720000Y-133325000D01*
%TO.C,R10*%
X108052223Y-108627500D02*
X107542775Y-108627500D01*
X108052223Y-109672500D02*
X107542775Y-109672500D01*
%TO.C,C11*%
X109200000Y-83236267D02*
X109200000Y-82943733D01*
X110220000Y-83236267D02*
X110220000Y-82943733D01*
%TO.C,Q2*%
X104689999Y-124837499D02*
X104690000Y-124187499D01*
X104689999Y-124837499D02*
X104690000Y-125487499D01*
X107810001Y-124837499D02*
X107810000Y-123162500D01*
X107810001Y-124837499D02*
X107810000Y-125487499D01*
%TO.C,R2*%
X120849999Y-88977621D02*
X120849999Y-88642379D01*
X121610001Y-88977621D02*
X121610001Y-88642379D01*
%TO.C,D13*%
X153535000Y-111135000D02*
X153535000Y-112605000D01*
X153535000Y-112605000D02*
X155820000Y-112605000D01*
X155820000Y-111135000D02*
X153535000Y-111135000D01*
%TO.C,C6*%
X113780581Y-102320000D02*
X113499419Y-102320000D01*
X113780581Y-103340000D02*
X113499419Y-103340000D01*
%TO.C,R6*%
X130235276Y-97677500D02*
X130744724Y-97677500D01*
X130235276Y-98722500D02*
X130744724Y-98722500D01*
%TO.C,J5*%
X136660000Y-103890000D02*
X136660000Y-109860000D01*
X136660000Y-109860000D02*
X149280000Y-109860000D01*
X136670000Y-107600000D02*
X137420000Y-107599999D01*
X136670000Y-109100000D02*
X136670000Y-109850000D01*
X136670000Y-109850000D02*
X138470000Y-109850001D01*
X137420000Y-104650000D02*
X142970000Y-104650000D01*
X137420000Y-107599999D02*
X137420000Y-104650000D01*
X138470000Y-109850001D02*
X138470001Y-109100000D01*
X138470001Y-109100000D02*
X136670000Y-109100000D01*
X139970000Y-109100000D02*
X139970000Y-109850000D01*
X139970000Y-109850000D02*
X145970000Y-109850001D01*
X145969999Y-109100000D02*
X139970000Y-109100000D01*
X145970000Y-109850001D02*
X145969999Y-109100000D01*
X147470000Y-109850001D02*
X149270000Y-109850000D01*
X147470001Y-109100000D02*
X147470000Y-109850001D01*
X148320000Y-110150000D02*
X149570000Y-110150000D01*
X148520000Y-104650000D02*
X142970000Y-104650000D01*
X148520000Y-107600000D02*
X148520000Y-104650000D01*
X149270000Y-107600000D02*
X148520000Y-107600000D01*
X149270000Y-109100000D02*
X147470001Y-109100000D01*
X149270000Y-109850000D02*
X149270000Y-109100000D01*
X149280000Y-103890000D02*
X136660000Y-103890000D01*
X149280000Y-109860000D02*
X149280000Y-103890000D01*
X149570000Y-110150000D02*
X149570000Y-108900000D01*
%TO.C,D1*%
X97397500Y-98535000D02*
X97397500Y-100005000D01*
X97397500Y-100005000D02*
X99682500Y-100005000D01*
X99682500Y-98535000D02*
X97397500Y-98535000D01*
%TO.C,D5*%
X109649999Y-108405000D02*
X109649999Y-109875000D01*
X109649999Y-109875000D02*
X111934999Y-109875000D01*
X111934999Y-108405000D02*
X109649999Y-108405000D01*
%TO.C,F1*%
X117272064Y-64340000D02*
X116067936Y-64340000D01*
X117272064Y-66160000D02*
X116067936Y-66160000D01*
%TO.C,J9*%
X116390000Y-127340000D02*
X116390000Y-135160000D01*
X116390000Y-128940000D02*
X117310000Y-128940000D01*
X116390000Y-135160000D02*
X122510000Y-135160001D01*
X117150000Y-131300000D02*
X117150000Y-132900000D01*
X117150000Y-132900000D02*
X118150000Y-132900000D01*
X117310000Y-127340000D02*
X116390000Y-127340000D01*
X117310000Y-128940000D02*
X117310000Y-127340000D01*
X117590000Y-128940000D02*
X117310000Y-128940000D01*
X117590000Y-128940000D02*
X117590000Y-127725000D01*
X117650000Y-132900000D02*
X117650000Y-135160001D01*
X118150000Y-131300000D02*
X117150000Y-131300000D01*
X118150000Y-132900000D02*
X118150000Y-131300000D01*
X118150000Y-132900000D02*
X118150000Y-135160000D01*
X118950000Y-130800000D02*
X119950000Y-130800000D01*
X118950000Y-135160001D02*
X118950000Y-130800000D01*
X119950000Y-130800000D02*
X119950000Y-135160000D01*
X120750000Y-132900000D02*
X120750001Y-131300000D01*
X120750001Y-131300000D02*
X121749999Y-131300000D01*
X121590000Y-127340000D02*
X121590000Y-128940000D01*
X121590000Y-128940000D02*
X121309999Y-128940000D01*
X121749999Y-131300000D02*
X121750000Y-132900000D01*
X121750000Y-132900000D02*
X120750000Y-132900000D01*
X122510000Y-127340001D02*
X121590000Y-127340000D01*
X122510000Y-128939999D02*
X121590000Y-128940000D01*
X122510000Y-135160001D02*
X122510000Y-127340001D01*
%TO.C,R25*%
X161037742Y-115707500D02*
X161512258Y-115707500D01*
X161037742Y-116752500D02*
X161512258Y-116752500D01*
%TO.C,C12*%
X118640000Y-80303766D02*
X118640000Y-80011232D01*
X119660000Y-80303766D02*
X119660000Y-80011232D01*
%TO.C,C4*%
X123570000Y-93330581D02*
X123570000Y-93049419D01*
X124590000Y-93330581D02*
X124590000Y-93049419D01*
%TO.C,J2*%
X94489999Y-117360000D02*
X98850000Y-117360000D01*
X94490000Y-114800000D02*
X94490000Y-122920000D01*
X94490000Y-122920000D02*
X102310000Y-122920000D01*
X96750000Y-115560000D02*
X96750000Y-116560000D01*
X96750000Y-116060000D02*
X94489999Y-116060000D01*
X96750000Y-116560000D02*
X94490000Y-116560000D01*
X96750000Y-116560000D02*
X98350000Y-116560000D01*
X96750000Y-121160000D02*
X98350000Y-121160000D01*
X96750000Y-122160000D02*
X96750000Y-121160000D01*
X98350000Y-115560000D02*
X96750000Y-115560000D01*
X98350000Y-116560000D02*
X98350000Y-115560000D01*
X98350000Y-121160000D02*
X98350000Y-122160000D01*
X98350000Y-122160000D02*
X96750000Y-122160000D01*
X98850000Y-117360000D02*
X98850000Y-120360000D01*
X98850000Y-120360000D02*
X94490000Y-120360000D01*
X100710000Y-114800000D02*
X100710000Y-115720000D01*
X100710000Y-115720000D02*
X102310000Y-115720000D01*
X100710000Y-116000000D02*
X100710000Y-115720000D01*
X100710000Y-116000000D02*
X101925000Y-116000000D01*
X100710000Y-122000000D02*
X100710000Y-121720000D01*
X100710000Y-122920000D02*
X100710000Y-122000000D01*
X102310000Y-114800000D02*
X94490000Y-114800000D01*
X102310000Y-115720000D02*
X102310000Y-114800000D01*
X102310000Y-122000000D02*
X100710000Y-122000000D01*
X102310000Y-122920000D02*
X102310000Y-122000000D01*
%TO.C,C5*%
X123539419Y-102310000D02*
X123820581Y-102310000D01*
X123539419Y-103330000D02*
X123820581Y-103330000D01*
%TO.C,Q4*%
X111739999Y-124837499D02*
X111740000Y-124187499D01*
X111739999Y-124837499D02*
X111740000Y-125487499D01*
X114860001Y-124837499D02*
X114860000Y-123162500D01*
X114860001Y-124837499D02*
X114860000Y-125487499D01*
%TO.C,R14*%
X102469724Y-95267500D02*
X101960276Y-95267500D01*
X102469724Y-96312500D02*
X101960276Y-96312500D01*
%TO.C,C8*%
X110990000Y-99838168D02*
X110990000Y-100119330D01*
X112010000Y-99838168D02*
X112010000Y-100119330D01*
%TO.C,C21*%
X178414999Y-130759887D02*
X176912000Y-130759887D01*
X178414999Y-130919887D02*
X176943999Y-130919887D01*
X178414999Y-131040887D02*
X176975000Y-131040887D01*
X178414999Y-131200887D02*
X177027000Y-131200887D01*
X178414999Y-131480887D02*
X177145000Y-131480887D01*
X178414999Y-131640887D02*
X177231000Y-131640887D01*
X178414999Y-132080887D02*
X177554000Y-132080888D01*
X178414999Y-132520887D02*
X178072000Y-132520887D01*
X178415000Y-130559887D02*
X176886000Y-130559887D01*
X178415000Y-130599886D02*
X176890000Y-130599886D01*
X178415000Y-130639887D02*
X176894000Y-130639887D01*
X178415000Y-130679887D02*
X176899000Y-130679887D01*
X178415000Y-130719887D02*
X176905000Y-130719887D01*
X178415000Y-130799887D02*
X176919000Y-130799887D01*
X178415000Y-130839887D02*
X176927000Y-130839887D01*
X178415000Y-130879887D02*
X176935000Y-130879887D01*
X178415000Y-130959887D02*
X176954000Y-130959887D01*
X178415000Y-130999887D02*
X176964000Y-130999887D01*
X178415000Y-131080887D02*
X176987000Y-131080887D01*
X178415000Y-131120887D02*
X177000000Y-131120887D01*
X178415000Y-131160887D02*
X177013000Y-131160887D01*
X178415000Y-131240887D02*
X177041000Y-131240887D01*
X178415000Y-131280887D02*
X177057000Y-131280887D01*
X178415000Y-131320886D02*
X177073000Y-131320887D01*
X178415000Y-131360888D02*
X177090000Y-131360887D01*
X178415000Y-131400887D02*
X177107000Y-131400887D01*
X178415000Y-131440887D02*
X177126000Y-131440887D01*
X178415000Y-131520887D02*
X177165000Y-131520887D01*
X178415000Y-131560887D02*
X177187000Y-131560887D01*
X178415000Y-131600887D02*
X177208000Y-131600887D01*
X178415000Y-131680887D02*
X177255000Y-131680887D01*
X178415000Y-131720887D02*
X177280000Y-131720887D01*
X178415000Y-131760887D02*
X177306000Y-131760887D01*
X178415000Y-131800888D02*
X177333000Y-131800887D01*
X178415000Y-131840887D02*
X177360000Y-131840887D01*
X178415000Y-131880887D02*
X177390000Y-131880887D01*
X178415000Y-131920886D02*
X177420000Y-131920887D01*
X178415000Y-131960887D02*
X177451000Y-131960887D01*
X178415000Y-132000887D02*
X177484001Y-132000887D01*
X178415000Y-132040887D02*
X177518000Y-132040887D01*
X178415000Y-132120887D02*
X177591000Y-132120887D01*
X178415000Y-132160887D02*
X177629000Y-132160887D01*
X178415000Y-132200887D02*
X177670000Y-132200887D01*
X178415000Y-132240888D02*
X177711999Y-132240887D01*
X178415000Y-132280887D02*
X177756000Y-132280886D01*
X178415000Y-132320887D02*
X177802000Y-132320888D01*
X178415000Y-132360886D02*
X177850000Y-132360887D01*
X178415000Y-132400887D02*
X177901000Y-132400887D01*
X178415000Y-132440887D02*
X177955000Y-132440887D01*
X178415000Y-132480887D02*
X178012000Y-132480887D01*
X178415000Y-132560887D02*
X178136000Y-132560887D01*
X178415000Y-132600887D02*
X178203999Y-132600887D01*
X179739000Y-132920887D02*
X179171000Y-132920887D01*
X179973000Y-132880887D02*
X178937000Y-132880887D01*
X180132000Y-132840887D02*
X178778000Y-132840887D01*
X180260000Y-132800886D02*
X178650000Y-132800886D01*
X180370000Y-132760887D02*
X178540000Y-132760887D01*
X180466000Y-132720887D02*
X178444000Y-132720887D01*
X180553000Y-132680887D02*
X178357000Y-132680887D01*
X180633000Y-132640887D02*
X178277000Y-132640887D01*
X180706001Y-132600887D02*
X180495000Y-132600887D01*
X180774000Y-132560887D02*
X180495000Y-132560887D01*
X180838000Y-132520887D02*
X180495001Y-132520887D01*
X180898000Y-132480887D02*
X180495000Y-132480887D01*
X180930000Y-127515113D02*
X180930000Y-128015112D01*
X180955000Y-132440887D02*
X180495000Y-132440887D01*
X181009000Y-132400887D02*
X180495000Y-132400887D01*
X181060000Y-132360887D02*
X180495000Y-132360886D01*
X181108000Y-132320888D02*
X180495000Y-132320887D01*
X181154000Y-132280886D02*
X180495000Y-132280887D01*
X181180000Y-127765112D02*
X180680000Y-127765112D01*
X181198001Y-132240887D02*
X180495000Y-132240888D01*
X181240000Y-132200887D02*
X180495000Y-132200887D01*
X181281000Y-132160887D02*
X180495000Y-132160887D01*
X181319000Y-132120887D02*
X180495000Y-132120887D01*
X181356000Y-132080888D02*
X180495001Y-132080887D01*
X181392000Y-132040887D02*
X180495000Y-132040887D01*
X181425999Y-132000887D02*
X180495000Y-132000887D01*
X181459000Y-131960887D02*
X180495000Y-131960887D01*
X181490000Y-131920887D02*
X180495000Y-131920886D01*
X181520000Y-131880887D02*
X180495000Y-131880887D01*
X181550000Y-131840887D02*
X180495000Y-131840887D01*
X181577000Y-131800887D02*
X180495000Y-131800888D01*
X181604000Y-131760887D02*
X180495000Y-131760887D01*
X181630000Y-131720887D02*
X180495000Y-131720887D01*
X181655000Y-131680887D02*
X180495000Y-131680887D01*
X181679000Y-131640887D02*
X180495001Y-131640887D01*
X181702000Y-131600887D02*
X180495000Y-131600887D01*
X181723000Y-131560887D02*
X180495000Y-131560887D01*
X181745000Y-131520887D02*
X180495000Y-131520887D01*
X181765000Y-131480887D02*
X180495001Y-131480887D01*
X181784000Y-131440887D02*
X180495000Y-131440887D01*
X181803000Y-131400887D02*
X180495000Y-131400887D01*
X181820000Y-131360887D02*
X180495000Y-131360888D01*
X181837000Y-131320887D02*
X180495000Y-131320886D01*
X181853000Y-131280887D02*
X180495000Y-131280887D01*
X181869000Y-131240887D02*
X180495000Y-131240887D01*
X181883000Y-131200887D02*
X180495001Y-131200887D01*
X181897000Y-131160887D02*
X180495000Y-131160887D01*
X181910000Y-131120887D02*
X180495000Y-131120887D01*
X181923000Y-131080887D02*
X180495000Y-131080887D01*
X181935000Y-131040887D02*
X180495001Y-131040887D01*
X181946000Y-130999887D02*
X180495000Y-130999887D01*
X181956000Y-130959887D02*
X180495000Y-130959887D01*
X181966001Y-130919887D02*
X180495001Y-130919887D01*
X181975000Y-130879887D02*
X180495000Y-130879887D01*
X181983000Y-130839887D02*
X180495000Y-130839887D01*
X181991000Y-130799887D02*
X180495000Y-130799887D01*
X181998000Y-130759887D02*
X180495001Y-130759887D01*
X182005000Y-130719887D02*
X180495000Y-130719887D01*
X182011000Y-130679887D02*
X180495000Y-130679887D01*
X182016000Y-130639887D02*
X180495000Y-130639887D01*
X182020000Y-130599886D02*
X180495000Y-130599886D01*
X182024000Y-130559887D02*
X180495000Y-130559887D01*
X182028000Y-130519887D02*
X176882000Y-130519887D01*
X182031001Y-130479887D02*
X176878999Y-130479887D01*
X182033000Y-130439887D02*
X176877000Y-130439887D01*
X182033999Y-130399887D02*
X176876001Y-130399887D01*
X182035000Y-130319887D02*
X176875000Y-130319887D01*
X182035000Y-130359887D02*
X176875000Y-130359887D01*
X182075001Y-130319886D02*
G75*
G02*
X176834999Y-130319886I-2620001J0D01*
G01*
X176834999Y-130319886D02*
G75*
G02*
X182075001Y-130319886I2620001J0D01*
G01*
%TO.C,C3*%
X100313767Y-83010000D02*
X100021233Y-83010000D01*
X100313767Y-84030000D02*
X100021233Y-84030000D01*
%TO.C,D15*%
X177667499Y-63725000D02*
X177667499Y-65195000D01*
X177667499Y-65195000D02*
X179952499Y-65195000D01*
X179952499Y-63725000D02*
X177667499Y-63725000D01*
%TO.C,R23*%
X137227742Y-115827500D02*
X137702258Y-115827500D01*
X137227742Y-116872500D02*
X137702258Y-116872500D01*
%TO.C,D2*%
X97385000Y-100255000D02*
X97385000Y-101725000D01*
X97385000Y-101725000D02*
X99670000Y-101725000D01*
X99670000Y-100255000D02*
X97385000Y-100255000D01*
%TO.C,U2*%
X114960000Y-94577500D02*
X115410000Y-94577500D01*
X114960000Y-95027500D02*
X114960000Y-94577500D01*
X114960000Y-101347500D02*
X114960000Y-101797500D01*
X114960000Y-101797500D02*
X115410000Y-101797500D01*
X122180000Y-94577500D02*
X121730000Y-94577500D01*
X122180000Y-95027500D02*
X122180000Y-94577500D01*
X122180000Y-101347500D02*
X122180000Y-101797500D01*
X122180000Y-101797500D02*
X121730000Y-101797500D01*
X122200000Y-94327500D02*
X121730000Y-93987500D01*
X122200000Y-93647500D01*
X122200000Y-94327500D01*
G36*
X122200000Y-94327500D02*
G01*
X121730000Y-93987500D01*
X122200000Y-93647500D01*
X122200000Y-94327500D01*
G37*
%TO.C,C7*%
X98556267Y-88140000D02*
X98263733Y-88140000D01*
X98556267Y-89160000D02*
X98263733Y-89160000D01*
%TO.C,J13*%
X109239999Y-127290001D02*
X109239999Y-135110001D01*
X109239999Y-128890001D02*
X110159999Y-128890001D01*
X109239999Y-135110001D02*
X115359999Y-135110002D01*
X109999999Y-131250001D02*
X109999999Y-132850001D01*
X109999999Y-132850001D02*
X110999999Y-132850001D01*
X110159999Y-127290001D02*
X109239999Y-127290001D01*
X110159999Y-128890001D02*
X110159999Y-127290001D01*
X110439999Y-128890001D02*
X110159999Y-128890001D01*
X110439999Y-128890001D02*
X110439999Y-127675001D01*
X110499999Y-132850001D02*
X110499999Y-135110002D01*
X110999999Y-131250001D02*
X109999999Y-131250001D01*
X110999999Y-132850001D02*
X110999999Y-131250001D01*
X110999999Y-132850001D02*
X110999999Y-135110001D01*
X111799999Y-130750001D02*
X112799999Y-130750001D01*
X111799999Y-135110002D02*
X111799999Y-130750001D01*
X112799999Y-130750001D02*
X112799999Y-135110001D01*
X113599999Y-132850001D02*
X113600000Y-131250001D01*
X113600000Y-131250001D02*
X114599998Y-131250001D01*
X114439999Y-127290001D02*
X114439999Y-128890001D01*
X114439999Y-128890001D02*
X114159998Y-128890001D01*
X114599998Y-131250001D02*
X114599999Y-132850001D01*
X114599999Y-132850001D02*
X113599999Y-132850001D01*
X115359999Y-127290002D02*
X114439999Y-127290001D01*
X115359999Y-128890000D02*
X114439999Y-128890001D01*
X115359999Y-135110002D02*
X115359999Y-127290002D01*
%TO.C,D14*%
X177602500Y-111135000D02*
X177602500Y-112605000D01*
X177602500Y-112605000D02*
X179887500Y-112605000D01*
X179887500Y-111135000D02*
X177602500Y-111135000D01*
%TO.C,R1*%
X102459724Y-98737500D02*
X101950276Y-98737500D01*
X102459724Y-99782500D02*
X101950276Y-99782500D01*
%TO.C,SW1*%
X102100000Y-87520000D02*
X98200000Y-87520000D01*
X98200000Y-84620000D01*
X102100000Y-84620000D01*
X102100000Y-87520000D01*
%TO.C,R18*%
X154622776Y-88227500D02*
X155132224Y-88227500D01*
X154622776Y-89272500D02*
X155132224Y-89272500D01*
%TO.C,R24*%
X178707776Y-112947500D02*
X179217224Y-112947500D01*
X178707776Y-113992500D02*
X179217224Y-113992500D01*
%TO.C,R27*%
X120654723Y-121539999D02*
X120145275Y-121539999D01*
X120654723Y-122584999D02*
X120145275Y-122584999D01*
%TO.C,D10*%
X177652500Y-86385000D02*
X177652500Y-87855000D01*
X177652500Y-87855000D02*
X179937500Y-87855000D01*
X179937500Y-86385000D02*
X177652500Y-86385000D01*
D13*
%TO.C,Y1*%
X120900000Y-88220000D02*
X120900000Y-88220000D01*
X121000000Y-88220000D02*
X121000000Y-88220000D01*
X120900000Y-88220000D02*
G75*
G02*
X121000000Y-88220000I50000J0D01*
G01*
X121000000Y-88220000D02*
G75*
G02*
X120900000Y-88220000I-50000J0D01*
G01*
D12*
%TO.C,R16*%
X178757776Y-88217500D02*
X179267224Y-88217500D01*
X178757776Y-89262500D02*
X179267224Y-89262500D01*
%TO.C,C13*%
X120190000Y-80313766D02*
X120190000Y-80021232D01*
X121210000Y-80313766D02*
X121210000Y-80021232D01*
%TO.C,J12*%
X123540001Y-127340000D02*
X123540001Y-135160000D01*
X123540001Y-128940000D02*
X124460001Y-128940000D01*
X123540001Y-135160000D02*
X129660001Y-135160001D01*
X124300001Y-131300000D02*
X124300001Y-132900000D01*
X124300001Y-132900000D02*
X125300001Y-132900000D01*
X124460001Y-127340000D02*
X123540001Y-127340000D01*
X124460001Y-128940000D02*
X124460001Y-127340000D01*
X124740001Y-128940000D02*
X124460001Y-128940000D01*
X124740001Y-128940000D02*
X124740001Y-127725000D01*
X124800001Y-132900000D02*
X124800001Y-135160001D01*
X125300001Y-131300000D02*
X124300001Y-131300000D01*
X125300001Y-132900000D02*
X125300001Y-131300000D01*
X125300001Y-132900000D02*
X125300001Y-135160000D01*
X126100001Y-130800000D02*
X127100001Y-130800000D01*
X126100001Y-135160001D02*
X126100001Y-130800000D01*
X127100001Y-130800000D02*
X127100001Y-135160000D01*
X127900001Y-132900000D02*
X127900002Y-131300000D01*
X127900002Y-131300000D02*
X128900000Y-131300000D01*
X128740001Y-127340000D02*
X128740001Y-128940000D01*
X128740001Y-128940000D02*
X128460000Y-128940000D01*
X128900000Y-131300000D02*
X128900001Y-132900000D01*
X128900001Y-132900000D02*
X127900001Y-132900000D01*
X129660001Y-127340001D02*
X128740001Y-127340000D01*
X129660001Y-128939999D02*
X128740001Y-128940000D01*
X129660001Y-135160001D02*
X129660001Y-127340001D01*
%TO.C,C1*%
X119635835Y-86630000D02*
X119404165Y-86630000D01*
X119635835Y-87350000D02*
X119404165Y-87350000D01*
%TO.C,C17*%
X178439999Y-106990000D02*
X176937000Y-106990000D01*
X178439999Y-107150000D02*
X176968999Y-107150000D01*
X178439999Y-107271000D02*
X177000000Y-107271000D01*
X178439999Y-107431000D02*
X177052000Y-107431000D01*
X178439999Y-107711000D02*
X177170000Y-107711000D01*
X178439999Y-107871000D02*
X177256000Y-107871000D01*
X178439999Y-108311000D02*
X177579000Y-108311001D01*
X178439999Y-108751000D02*
X178097000Y-108751000D01*
X178440000Y-106790000D02*
X176911000Y-106790000D01*
X178440000Y-106829999D02*
X176915000Y-106829999D01*
X178440000Y-106870000D02*
X176919000Y-106870000D01*
X178440000Y-106910000D02*
X176924000Y-106910000D01*
X178440000Y-106950000D02*
X176930000Y-106950000D01*
X178440000Y-107030000D02*
X176944000Y-107030000D01*
X178440000Y-107070000D02*
X176952000Y-107070000D01*
X178440000Y-107110000D02*
X176960000Y-107110000D01*
X178440000Y-107190000D02*
X176979000Y-107190000D01*
X178440000Y-107230000D02*
X176989000Y-107230000D01*
X178440000Y-107311000D02*
X177012000Y-107311000D01*
X178440000Y-107351000D02*
X177025000Y-107351000D01*
X178440000Y-107391000D02*
X177038000Y-107391000D01*
X178440000Y-107471000D02*
X177066000Y-107471000D01*
X178440000Y-107511000D02*
X177082000Y-107511000D01*
X178440000Y-107550999D02*
X177098000Y-107551000D01*
X178440000Y-107591001D02*
X177115000Y-107591000D01*
X178440000Y-107631000D02*
X177132000Y-107631000D01*
X178440000Y-107671000D02*
X177151000Y-107671000D01*
X178440000Y-107751000D02*
X177190000Y-107751000D01*
X178440000Y-107791000D02*
X177212000Y-107791000D01*
X178440000Y-107831000D02*
X177233000Y-107831000D01*
X178440000Y-107911000D02*
X177280000Y-107911000D01*
X178440000Y-107951000D02*
X177305000Y-107951000D01*
X178440000Y-107991000D02*
X177331000Y-107991000D01*
X178440000Y-108031001D02*
X177358000Y-108031000D01*
X178440000Y-108071000D02*
X177385000Y-108071000D01*
X178440000Y-108111000D02*
X177415000Y-108111000D01*
X178440000Y-108150999D02*
X177445000Y-108151000D01*
X178440000Y-108191000D02*
X177476000Y-108191000D01*
X178440000Y-108231000D02*
X177509001Y-108231000D01*
X178440000Y-108271000D02*
X177543000Y-108271000D01*
X178440000Y-108351000D02*
X177616000Y-108351000D01*
X178440000Y-108391000D02*
X177654000Y-108391000D01*
X178440000Y-108431000D02*
X177695000Y-108431000D01*
X178440000Y-108471001D02*
X177736999Y-108471000D01*
X178440000Y-108511000D02*
X177781000Y-108510999D01*
X178440000Y-108551000D02*
X177827000Y-108551001D01*
X178440000Y-108590999D02*
X177875000Y-108591000D01*
X178440000Y-108631000D02*
X177926000Y-108631000D01*
X178440000Y-108671000D02*
X177980000Y-108671000D01*
X178440000Y-108711000D02*
X178037000Y-108711000D01*
X178440000Y-108791000D02*
X178161000Y-108791000D01*
X178440000Y-108831000D02*
X178228999Y-108831000D01*
X179764000Y-109151000D02*
X179196000Y-109151000D01*
X179998000Y-109111000D02*
X178962000Y-109111000D01*
X180157000Y-109071000D02*
X178803000Y-109071000D01*
X180285000Y-109030999D02*
X178675000Y-109030999D01*
X180395000Y-108991000D02*
X178565000Y-108991000D01*
X180491000Y-108951000D02*
X178469000Y-108951000D01*
X180578000Y-108911000D02*
X178382000Y-108911000D01*
X180658000Y-108871000D02*
X178302000Y-108871000D01*
X180731001Y-108831000D02*
X180520000Y-108831000D01*
X180799000Y-108791000D02*
X180520000Y-108791000D01*
X180863000Y-108751000D02*
X180520001Y-108751000D01*
X180923000Y-108711000D02*
X180520000Y-108711000D01*
X180955000Y-103745226D02*
X180955000Y-104245225D01*
X180980000Y-108671000D02*
X180520000Y-108671000D01*
X181034000Y-108631000D02*
X180520000Y-108631000D01*
X181085000Y-108591000D02*
X180520000Y-108590999D01*
X181133000Y-108551001D02*
X180520000Y-108551000D01*
X181179000Y-108510999D02*
X180520000Y-108511000D01*
X181205000Y-103995225D02*
X180705000Y-103995225D01*
X181223001Y-108471000D02*
X180520000Y-108471001D01*
X181265000Y-108431000D02*
X180520000Y-108431000D01*
X181306000Y-108391000D02*
X180520000Y-108391000D01*
X181344000Y-108351000D02*
X180520000Y-108351000D01*
X181381000Y-108311001D02*
X180520001Y-108311000D01*
X181417000Y-108271000D02*
X180520000Y-108271000D01*
X181450999Y-108231000D02*
X180520000Y-108231000D01*
X181484000Y-108191000D02*
X180520000Y-108191000D01*
X181515000Y-108151000D02*
X180520000Y-108150999D01*
X181545000Y-108111000D02*
X180520000Y-108111000D01*
X181575000Y-108071000D02*
X180520000Y-108071000D01*
X181602000Y-108031000D02*
X180520000Y-108031001D01*
X181629000Y-107991000D02*
X180520000Y-107991000D01*
X181655000Y-107951000D02*
X180520000Y-107951000D01*
X181680000Y-107911000D02*
X180520000Y-107911000D01*
X181704000Y-107871000D02*
X180520001Y-107871000D01*
X181727000Y-107831000D02*
X180520000Y-107831000D01*
X181748000Y-107791000D02*
X180520000Y-107791000D01*
X181770000Y-107751000D02*
X180520000Y-107751000D01*
X181790000Y-107711000D02*
X180520001Y-107711000D01*
X181809000Y-107671000D02*
X180520000Y-107671000D01*
X181828000Y-107631000D02*
X180520000Y-107631000D01*
X181845000Y-107591000D02*
X180520000Y-107591001D01*
X181862000Y-107551000D02*
X180520000Y-107550999D01*
X181878000Y-107511000D02*
X180520000Y-107511000D01*
X181894000Y-107471000D02*
X180520000Y-107471000D01*
X181908000Y-107431000D02*
X180520001Y-107431000D01*
X181922000Y-107391000D02*
X180520000Y-107391000D01*
X181935000Y-107351000D02*
X180520000Y-107351000D01*
X181948000Y-107311000D02*
X180520000Y-107311000D01*
X181960000Y-107271000D02*
X180520001Y-107271000D01*
X181971000Y-107230000D02*
X180520000Y-107230000D01*
X181981000Y-107190000D02*
X180520000Y-107190000D01*
X181991001Y-107150000D02*
X180520001Y-107150000D01*
X182000000Y-107110000D02*
X180520000Y-107110000D01*
X182008000Y-107070000D02*
X180520000Y-107070000D01*
X182016000Y-107030000D02*
X180520000Y-107030000D01*
X182023000Y-106990000D02*
X180520001Y-106990000D01*
X182030000Y-106950000D02*
X180520000Y-106950000D01*
X182036000Y-106910000D02*
X180520000Y-106910000D01*
X182041000Y-106870000D02*
X180520000Y-106870000D01*
X182045000Y-106829999D02*
X180520000Y-106829999D01*
X182049000Y-106790000D02*
X180520000Y-106790000D01*
X182053000Y-106750000D02*
X176907000Y-106750000D01*
X182056001Y-106710000D02*
X176903999Y-106710000D01*
X182058000Y-106670000D02*
X176902000Y-106670000D01*
X182058999Y-106630000D02*
X176901001Y-106630000D01*
X182060000Y-106550000D02*
X176900000Y-106550000D01*
X182060000Y-106590000D02*
X176900000Y-106590000D01*
X182100001Y-106549999D02*
G75*
G02*
X176859999Y-106549999I-2620001J0D01*
G01*
X176859999Y-106549999D02*
G75*
G02*
X182100001Y-106549999I2620001J0D01*
G01*
%TO.C,R15*%
X102469724Y-97037500D02*
X101960276Y-97037500D01*
X102469724Y-98082500D02*
X101960276Y-98082500D01*
%TO.C,C19*%
X154114999Y-82759887D02*
X152612000Y-82759887D01*
X154114999Y-82919887D02*
X152643999Y-82919887D01*
X154114999Y-83040887D02*
X152675000Y-83040887D01*
X154114999Y-83200887D02*
X152727000Y-83200887D01*
X154114999Y-83480887D02*
X152845000Y-83480887D01*
X154114999Y-83640887D02*
X152931000Y-83640887D01*
X154114999Y-84080887D02*
X153254000Y-84080888D01*
X154114999Y-84520887D02*
X153772000Y-84520887D01*
X154115000Y-82559887D02*
X152586000Y-82559887D01*
X154115000Y-82599886D02*
X152590000Y-82599886D01*
X154115000Y-82639887D02*
X152594000Y-82639887D01*
X154115000Y-82679887D02*
X152599000Y-82679887D01*
X154115000Y-82719887D02*
X152605000Y-82719887D01*
X154115000Y-82799887D02*
X152619000Y-82799887D01*
X154115000Y-82839887D02*
X152627000Y-82839887D01*
X154115000Y-82879887D02*
X152635000Y-82879887D01*
X154115000Y-82959887D02*
X152654000Y-82959887D01*
X154115000Y-82999887D02*
X152664000Y-82999887D01*
X154115000Y-83080887D02*
X152687000Y-83080887D01*
X154115000Y-83120887D02*
X152700000Y-83120887D01*
X154115000Y-83160887D02*
X152713000Y-83160887D01*
X154115000Y-83240887D02*
X152741000Y-83240887D01*
X154115000Y-83280887D02*
X152757000Y-83280887D01*
X154115000Y-83320886D02*
X152773000Y-83320887D01*
X154115000Y-83360888D02*
X152790000Y-83360887D01*
X154115000Y-83400887D02*
X152807000Y-83400887D01*
X154115000Y-83440887D02*
X152826000Y-83440887D01*
X154115000Y-83520887D02*
X152865000Y-83520887D01*
X154115000Y-83560887D02*
X152887000Y-83560887D01*
X154115000Y-83600887D02*
X152908000Y-83600887D01*
X154115000Y-83680887D02*
X152955000Y-83680887D01*
X154115000Y-83720887D02*
X152980000Y-83720887D01*
X154115000Y-83760887D02*
X153006000Y-83760887D01*
X154115000Y-83800888D02*
X153033000Y-83800887D01*
X154115000Y-83840887D02*
X153060000Y-83840887D01*
X154115000Y-83880887D02*
X153090000Y-83880887D01*
X154115000Y-83920886D02*
X153120000Y-83920887D01*
X154115000Y-83960887D02*
X153151000Y-83960887D01*
X154115000Y-84000887D02*
X153184001Y-84000887D01*
X154115000Y-84040887D02*
X153218000Y-84040887D01*
X154115000Y-84120887D02*
X153291000Y-84120887D01*
X154115000Y-84160887D02*
X153329000Y-84160887D01*
X154115000Y-84200887D02*
X153370000Y-84200887D01*
X154115000Y-84240888D02*
X153411999Y-84240887D01*
X154115000Y-84280887D02*
X153456000Y-84280886D01*
X154115000Y-84320887D02*
X153502000Y-84320888D01*
X154115000Y-84360886D02*
X153550000Y-84360887D01*
X154115000Y-84400887D02*
X153601000Y-84400887D01*
X154115000Y-84440887D02*
X153655000Y-84440887D01*
X154115000Y-84480887D02*
X153712000Y-84480887D01*
X154115000Y-84560887D02*
X153836000Y-84560887D01*
X154115000Y-84600887D02*
X153903999Y-84600887D01*
X155439000Y-84920887D02*
X154871000Y-84920887D01*
X155673000Y-84880887D02*
X154637000Y-84880887D01*
X155832000Y-84840887D02*
X154478000Y-84840887D01*
X155960000Y-84800886D02*
X154350000Y-84800886D01*
X156070000Y-84760887D02*
X154240000Y-84760887D01*
X156166000Y-84720887D02*
X154144000Y-84720887D01*
X156253000Y-84680887D02*
X154057000Y-84680887D01*
X156333000Y-84640887D02*
X153977000Y-84640887D01*
X156406001Y-84600887D02*
X156195000Y-84600887D01*
X156474000Y-84560887D02*
X156195000Y-84560887D01*
X156538000Y-84520887D02*
X156195001Y-84520887D01*
X156598000Y-84480887D02*
X156195000Y-84480887D01*
X156630000Y-79515113D02*
X156630000Y-80015112D01*
X156655000Y-84440887D02*
X156195000Y-84440887D01*
X156709000Y-84400887D02*
X156195000Y-84400887D01*
X156760000Y-84360887D02*
X156195000Y-84360886D01*
X156808000Y-84320888D02*
X156195000Y-84320887D01*
X156854000Y-84280886D02*
X156195000Y-84280887D01*
X156880000Y-79765112D02*
X156380000Y-79765112D01*
X156898001Y-84240887D02*
X156195000Y-84240888D01*
X156940000Y-84200887D02*
X156195000Y-84200887D01*
X156981000Y-84160887D02*
X156195000Y-84160887D01*
X157019000Y-84120887D02*
X156195000Y-84120887D01*
X157056000Y-84080888D02*
X156195001Y-84080887D01*
X157092000Y-84040887D02*
X156195000Y-84040887D01*
X157125999Y-84000887D02*
X156195000Y-84000887D01*
X157159000Y-83960887D02*
X156195000Y-83960887D01*
X157190000Y-83920887D02*
X156195000Y-83920886D01*
X157220000Y-83880887D02*
X156195000Y-83880887D01*
X157250000Y-83840887D02*
X156195000Y-83840887D01*
X157277000Y-83800887D02*
X156195000Y-83800888D01*
X157304000Y-83760887D02*
X156195000Y-83760887D01*
X157330000Y-83720887D02*
X156195000Y-83720887D01*
X157355000Y-83680887D02*
X156195000Y-83680887D01*
X157379000Y-83640887D02*
X156195001Y-83640887D01*
X157402000Y-83600887D02*
X156195000Y-83600887D01*
X157423000Y-83560887D02*
X156195000Y-83560887D01*
X157445000Y-83520887D02*
X156195000Y-83520887D01*
X157465000Y-83480887D02*
X156195001Y-83480887D01*
X157484000Y-83440887D02*
X156195000Y-83440887D01*
X157503000Y-83400887D02*
X156195000Y-83400887D01*
X157520000Y-83360887D02*
X156195000Y-83360888D01*
X157537000Y-83320887D02*
X156195000Y-83320886D01*
X157553000Y-83280887D02*
X156195000Y-83280887D01*
X157569000Y-83240887D02*
X156195000Y-83240887D01*
X157583000Y-83200887D02*
X156195001Y-83200887D01*
X157597000Y-83160887D02*
X156195000Y-83160887D01*
X157610000Y-83120887D02*
X156195000Y-83120887D01*
X157623000Y-83080887D02*
X156195000Y-83080887D01*
X157635000Y-83040887D02*
X156195001Y-83040887D01*
X157646000Y-82999887D02*
X156195000Y-82999887D01*
X157656000Y-82959887D02*
X156195000Y-82959887D01*
X157666001Y-82919887D02*
X156195001Y-82919887D01*
X157675000Y-82879887D02*
X156195000Y-82879887D01*
X157683000Y-82839887D02*
X156195000Y-82839887D01*
X157691000Y-82799887D02*
X156195000Y-82799887D01*
X157698000Y-82759887D02*
X156195001Y-82759887D01*
X157705000Y-82719887D02*
X156195000Y-82719887D01*
X157711000Y-82679887D02*
X156195000Y-82679887D01*
X157716000Y-82639887D02*
X156195000Y-82639887D01*
X157720000Y-82599886D02*
X156195000Y-82599886D01*
X157724000Y-82559887D02*
X156195000Y-82559887D01*
X157728000Y-82519887D02*
X152582000Y-82519887D01*
X157731001Y-82479887D02*
X152578999Y-82479887D01*
X157733000Y-82439887D02*
X152577000Y-82439887D01*
X157733999Y-82399887D02*
X152576001Y-82399887D01*
X157735000Y-82319887D02*
X152575000Y-82319887D01*
X157735000Y-82359887D02*
X152575000Y-82359887D01*
X157775001Y-82319886D02*
G75*
G02*
X152534999Y-82319886I-2620001J0D01*
G01*
X152534999Y-82319886D02*
G75*
G02*
X157775001Y-82319886I2620001J0D01*
G01*
%TO.C,D4*%
X97375000Y-103655000D02*
X97375000Y-105125000D01*
X97375000Y-105125000D02*
X99660000Y-105125000D01*
X99660000Y-103655000D02*
X97375000Y-103655000D01*
%TO.C,C22*%
X178464999Y-82809887D02*
X176962000Y-82809887D01*
X178464999Y-82969887D02*
X176993999Y-82969887D01*
X178464999Y-83090887D02*
X177025000Y-83090887D01*
X178464999Y-83250887D02*
X177077000Y-83250887D01*
X178464999Y-83530887D02*
X177195000Y-83530887D01*
X178464999Y-83690887D02*
X177281000Y-83690887D01*
X178464999Y-84130887D02*
X177604000Y-84130888D01*
X178464999Y-84570887D02*
X178122000Y-84570887D01*
X178465000Y-82609887D02*
X176936000Y-82609887D01*
X178465000Y-82649886D02*
X176940000Y-82649886D01*
X178465000Y-82689887D02*
X176944000Y-82689887D01*
X178465000Y-82729887D02*
X176949000Y-82729887D01*
X178465000Y-82769887D02*
X176955000Y-82769887D01*
X178465000Y-82849887D02*
X176969000Y-82849887D01*
X178465000Y-82889887D02*
X176977000Y-82889887D01*
X178465000Y-82929887D02*
X176985000Y-82929887D01*
X178465000Y-83009887D02*
X177004000Y-83009887D01*
X178465000Y-83049887D02*
X177014000Y-83049887D01*
X178465000Y-83130887D02*
X177037000Y-83130887D01*
X178465000Y-83170887D02*
X177050000Y-83170887D01*
X178465000Y-83210887D02*
X177063000Y-83210887D01*
X178465000Y-83290887D02*
X177091000Y-83290887D01*
X178465000Y-83330887D02*
X177107000Y-83330887D01*
X178465000Y-83370886D02*
X177123000Y-83370887D01*
X178465000Y-83410888D02*
X177140000Y-83410887D01*
X178465000Y-83450887D02*
X177157000Y-83450887D01*
X178465000Y-83490887D02*
X177176000Y-83490887D01*
X178465000Y-83570887D02*
X177215000Y-83570887D01*
X178465000Y-83610887D02*
X177237000Y-83610887D01*
X178465000Y-83650887D02*
X177258000Y-83650887D01*
X178465000Y-83730887D02*
X177305000Y-83730887D01*
X178465000Y-83770887D02*
X177330000Y-83770887D01*
X178465000Y-83810887D02*
X177356000Y-83810887D01*
X178465000Y-83850888D02*
X177383000Y-83850887D01*
X178465000Y-83890887D02*
X177410000Y-83890887D01*
X178465000Y-83930887D02*
X177440000Y-83930887D01*
X178465000Y-83970886D02*
X177470000Y-83970887D01*
X178465000Y-84010887D02*
X177501000Y-84010887D01*
X178465000Y-84050887D02*
X177534001Y-84050887D01*
X178465000Y-84090887D02*
X177568000Y-84090887D01*
X178465000Y-84170887D02*
X177641000Y-84170887D01*
X178465000Y-84210887D02*
X177679000Y-84210887D01*
X178465000Y-84250887D02*
X177720000Y-84250887D01*
X178465000Y-84290888D02*
X177761999Y-84290887D01*
X178465000Y-84330887D02*
X177806000Y-84330886D01*
X178465000Y-84370887D02*
X177852000Y-84370888D01*
X178465000Y-84410886D02*
X177900000Y-84410887D01*
X178465000Y-84450887D02*
X177951000Y-84450887D01*
X178465000Y-84490887D02*
X178005000Y-84490887D01*
X178465000Y-84530887D02*
X178062000Y-84530887D01*
X178465000Y-84610887D02*
X178186000Y-84610887D01*
X178465000Y-84650887D02*
X178253999Y-84650887D01*
X179789000Y-84970887D02*
X179221000Y-84970887D01*
X180023000Y-84930887D02*
X178987000Y-84930887D01*
X180182000Y-84890887D02*
X178828000Y-84890887D01*
X180310000Y-84850886D02*
X178700000Y-84850886D01*
X180420000Y-84810887D02*
X178590000Y-84810887D01*
X180516000Y-84770887D02*
X178494000Y-84770887D01*
X180603000Y-84730887D02*
X178407000Y-84730887D01*
X180683000Y-84690887D02*
X178327000Y-84690887D01*
X180756001Y-84650887D02*
X180545000Y-84650887D01*
X180824000Y-84610887D02*
X180545000Y-84610887D01*
X180888000Y-84570887D02*
X180545001Y-84570887D01*
X180948000Y-84530887D02*
X180545000Y-84530887D01*
X180980000Y-79565113D02*
X180980000Y-80065112D01*
X181005000Y-84490887D02*
X180545000Y-84490887D01*
X181059000Y-84450887D02*
X180545000Y-84450887D01*
X181110000Y-84410887D02*
X180545000Y-84410886D01*
X181158000Y-84370888D02*
X180545000Y-84370887D01*
X181204000Y-84330886D02*
X180545000Y-84330887D01*
X181230000Y-79815112D02*
X180730000Y-79815112D01*
X181248001Y-84290887D02*
X180545000Y-84290888D01*
X181290000Y-84250887D02*
X180545000Y-84250887D01*
X181331000Y-84210887D02*
X180545000Y-84210887D01*
X181369000Y-84170887D02*
X180545000Y-84170887D01*
X181406000Y-84130888D02*
X180545001Y-84130887D01*
X181442000Y-84090887D02*
X180545000Y-84090887D01*
X181475999Y-84050887D02*
X180545000Y-84050887D01*
X181509000Y-84010887D02*
X180545000Y-84010887D01*
X181540000Y-83970887D02*
X180545000Y-83970886D01*
X181570000Y-83930887D02*
X180545000Y-83930887D01*
X181600000Y-83890887D02*
X180545000Y-83890887D01*
X181627000Y-83850887D02*
X180545000Y-83850888D01*
X181654000Y-83810887D02*
X180545000Y-83810887D01*
X181680000Y-83770887D02*
X180545000Y-83770887D01*
X181705000Y-83730887D02*
X180545000Y-83730887D01*
X181729000Y-83690887D02*
X180545001Y-83690887D01*
X181752000Y-83650887D02*
X180545000Y-83650887D01*
X181773000Y-83610887D02*
X180545000Y-83610887D01*
X181795000Y-83570887D02*
X180545000Y-83570887D01*
X181815000Y-83530887D02*
X180545001Y-83530887D01*
X181834000Y-83490887D02*
X180545000Y-83490887D01*
X181853000Y-83450887D02*
X180545000Y-83450887D01*
X181870000Y-83410887D02*
X180545000Y-83410888D01*
X181887000Y-83370887D02*
X180545000Y-83370886D01*
X181903000Y-83330887D02*
X180545000Y-83330887D01*
X181919000Y-83290887D02*
X180545000Y-83290887D01*
X181933000Y-83250887D02*
X180545001Y-83250887D01*
X181947000Y-83210887D02*
X180545000Y-83210887D01*
X181960000Y-83170887D02*
X180545000Y-83170887D01*
X181973000Y-83130887D02*
X180545000Y-83130887D01*
X181985000Y-83090887D02*
X180545001Y-83090887D01*
X181996000Y-83049887D02*
X180545000Y-83049887D01*
X182006000Y-83009887D02*
X180545000Y-83009887D01*
X182016001Y-82969887D02*
X180545001Y-82969887D01*
X182025000Y-82929887D02*
X180545000Y-82929887D01*
X182033000Y-82889887D02*
X180545000Y-82889887D01*
X182041000Y-82849887D02*
X180545000Y-82849887D01*
X182048000Y-82809887D02*
X180545001Y-82809887D01*
X182055000Y-82769887D02*
X180545000Y-82769887D01*
X182061000Y-82729887D02*
X180545000Y-82729887D01*
X182066000Y-82689887D02*
X180545000Y-82689887D01*
X182070000Y-82649886D02*
X180545000Y-82649886D01*
X182074000Y-82609887D02*
X180545000Y-82609887D01*
X182078000Y-82569887D02*
X176932000Y-82569887D01*
X182081001Y-82529887D02*
X176928999Y-82529887D01*
X182083000Y-82489887D02*
X176927000Y-82489887D01*
X182083999Y-82449887D02*
X176926001Y-82449887D01*
X182085000Y-82369887D02*
X176925000Y-82369887D01*
X182085000Y-82409887D02*
X176925000Y-82409887D01*
X182125001Y-82369886D02*
G75*
G02*
X176884999Y-82369886I-2620001J0D01*
G01*
X176884999Y-82369886D02*
G75*
G02*
X182125001Y-82369886I2620001J0D01*
G01*
%TO.C,R30*%
X178785276Y-65557500D02*
X179294724Y-65557500D01*
X178785276Y-66602500D02*
X179294724Y-66602500D01*
%TO.C,D8*%
X97400000Y-95065000D02*
X97400000Y-96535000D01*
X97400000Y-96535000D02*
X99685000Y-96535000D01*
X99685000Y-95065000D02*
X97400000Y-95065000D01*
%TD*%
%LPC*%
D15*
%TO.C,J3*%
X108075000Y-74850000D03*
D16*
X102075000Y-74850000D03*
D17*
X105075000Y-79550000D03*
%TD*%
D18*
%TO.C,J11*%
X170405000Y-83550000D03*
D19*
X167905000Y-83550000D03*
X165405000Y-83550000D03*
X162905000Y-83550000D03*
%TD*%
D20*
%TO.C,R11*%
X108679999Y-110830000D03*
X106854999Y-110830000D03*
%TD*%
D21*
%TO.C,D3*%
X98072500Y-102690000D03*
X99647500Y-102690000D03*
%TD*%
D22*
%TO.C,C9*%
X106884999Y-112670000D03*
X108434999Y-112670000D03*
%TD*%
D23*
%TO.C,H2*%
X185925000Y-66550000D03*
%TD*%
D18*
%TO.C,J6*%
X146830000Y-83650001D03*
D19*
X144330000Y-83650001D03*
X141830000Y-83650001D03*
X139330000Y-83650001D03*
%TD*%
D20*
%TO.C,R35*%
X114199999Y-121962500D03*
X112374999Y-121962500D03*
%TD*%
D21*
%TO.C,D11*%
X154240000Y-87130000D03*
X155815000Y-87130000D03*
%TD*%
D23*
%TO.C,H3*%
X185925000Y-132550000D03*
%TD*%
D24*
%TO.C,Q3*%
X128524998Y-123950000D03*
X126624998Y-123950000D03*
X127574998Y-125825001D03*
%TD*%
D25*
%TO.C,C10*%
X116675000Y-74775000D03*
D26*
X116675000Y-69775000D03*
%TD*%
D18*
%TO.C,J4*%
X170550000Y-107375000D03*
D19*
X168050000Y-107375000D03*
X165550000Y-107375000D03*
X163050000Y-107375000D03*
%TD*%
D23*
%TO.C,H4*%
X96925000Y-132550000D03*
%TD*%
D20*
%TO.C,R5*%
X103115000Y-104380000D03*
X101290000Y-104380000D03*
%TD*%
D24*
%TO.C,Q1*%
X121374999Y-123950000D03*
X119474999Y-123950000D03*
X120424999Y-125825001D03*
%TD*%
D23*
%TO.C,H1*%
X96925000Y-66550000D03*
%TD*%
D27*
%TO.C,C15*%
X129540000Y-82937499D03*
X129540000Y-84662501D03*
%TD*%
D28*
%TO.C,R26*%
X122999999Y-122137501D03*
X122999999Y-123962501D03*
%TD*%
D20*
%TO.C,R29*%
X107112501Y-121950000D03*
X105287501Y-121950000D03*
%TD*%
D29*
%TO.C,U5*%
X124710000Y-81030000D03*
X124710000Y-81980000D03*
X124710000Y-82930000D03*
X127410000Y-82930000D03*
X127410000Y-81030000D03*
%TD*%
D30*
%TO.C,U4*%
X112200000Y-83960000D03*
X113299999Y-83960000D03*
D31*
X114450000Y-83960000D03*
D30*
X115600000Y-83960000D03*
X116700001Y-83960000D03*
X116700000Y-82260000D03*
X116700000Y-80559999D03*
X115600000Y-80560000D03*
D31*
X114450000Y-80560000D03*
D30*
X113300000Y-80559999D03*
X112200000Y-80560000D03*
X112200000Y-82259999D03*
D31*
X114450000Y-82260000D03*
D30*
X115600001Y-82260000D03*
%TD*%
D28*
%TO.C,R34*%
X115875000Y-122075000D03*
X115875000Y-123900000D03*
%TD*%
D32*
%TO.C,SW2*%
X97964999Y-91210000D03*
X102415001Y-91210000D03*
%TD*%
D21*
%TO.C,D9*%
X98097500Y-97560000D03*
X99672500Y-97560000D03*
%TD*%
D33*
%TO.C,C2*%
X117610000Y-89210000D03*
X117610000Y-88075000D03*
%TD*%
D34*
%TO.C,R22*%
X153977500Y-113490000D03*
X155802500Y-113490000D03*
%TD*%
D28*
%TO.C,R28*%
X108849999Y-122062501D03*
X108849999Y-123887501D03*
%TD*%
D20*
%TO.C,R4*%
X103125000Y-102690000D03*
X101300000Y-102690000D03*
%TD*%
D34*
%TO.C,R20*%
X153945000Y-65930000D03*
X155770000Y-65930000D03*
%TD*%
D35*
%TO.C,U3*%
X111819999Y-118154998D03*
X111819999Y-116884998D03*
X111819999Y-115614998D03*
X111819999Y-114344998D03*
X106869999Y-114344998D03*
X106869999Y-115614998D03*
X106869999Y-116884998D03*
X106869999Y-118154998D03*
%TD*%
D36*
%TO.C,R9*%
X104049999Y-118747498D03*
X104049999Y-116922498D03*
%TD*%
D37*
%TO.C,J10*%
X104250000Y-128750000D03*
D38*
X106250001Y-128750000D03*
%TD*%
D21*
%TO.C,D12*%
X154200000Y-64320000D03*
X155775000Y-64320000D03*
%TD*%
D39*
%TO.C,J14*%
X100870000Y-107850000D03*
D40*
X100870000Y-109850000D03*
X100870000Y-111850000D03*
%TD*%
D18*
%TO.C,J8*%
X170625000Y-131800000D03*
D19*
X168125000Y-131800000D03*
X165625000Y-131800000D03*
X163125000Y-131800000D03*
%TD*%
D41*
%TO.C,R17*%
X160400000Y-91320000D03*
X162050000Y-91320000D03*
%TD*%
D21*
%TO.C,D6*%
X110339999Y-110840000D03*
X111914999Y-110840000D03*
%TD*%
D27*
%TO.C,C14*%
X122330000Y-81057499D03*
X122330000Y-82782501D03*
%TD*%
D34*
%TO.C,R8*%
X108857500Y-87840000D03*
X110682500Y-87840000D03*
%TD*%
D28*
%TO.C,R32*%
X130150000Y-122125000D03*
X130150000Y-123950000D03*
%TD*%
D42*
%TO.C,D7*%
X99680001Y-93980000D03*
X98104999Y-93980000D03*
%TD*%
D41*
%TO.C,R19*%
X136670000Y-91110000D03*
X138320000Y-91110000D03*
%TD*%
D43*
%TO.C,C16*%
X129540000Y-81032501D03*
X129540000Y-79307499D03*
%TD*%
D41*
%TO.C,R31*%
X160330000Y-68270000D03*
X161980000Y-68270000D03*
%TD*%
D44*
%TO.C,C18*%
X155005000Y-105300000D03*
D45*
X155005000Y-107800000D03*
%TD*%
D46*
%TO.C,U6*%
X175615000Y-88750000D03*
X173075000Y-88750000D03*
X170535001Y-88750000D03*
X167995000Y-88750000D03*
X165455000Y-88750000D03*
X162915000Y-88750000D03*
X160375000Y-88750000D03*
X157834999Y-88750000D03*
X175615000Y-101450000D03*
X173075000Y-101450000D03*
X170535000Y-101450001D03*
X167995000Y-101450000D03*
X165455000Y-101450000D03*
X162915000Y-101450000D03*
X160375000Y-101450000D03*
X157835000Y-101450001D03*
%TD*%
D41*
%TO.C,R21*%
X136720000Y-68160000D03*
X138370000Y-68160000D03*
%TD*%
D44*
%TO.C,C20*%
X155100000Y-129294887D03*
D45*
X155100000Y-131794887D03*
%TD*%
D20*
%TO.C,R3*%
X103125000Y-100990000D03*
X101300000Y-100990000D03*
%TD*%
D34*
%TO.C,R13*%
X101302500Y-93980000D03*
X103127500Y-93980000D03*
%TD*%
D20*
%TO.C,R33*%
X128487498Y-122049998D03*
X126662498Y-122049998D03*
%TD*%
%TO.C,R7*%
X102765000Y-88610000D03*
X100940000Y-88610000D03*
%TD*%
D47*
%TO.C,RV1*%
X108845000Y-94815000D03*
X111385000Y-92275000D03*
X108845000Y-89735000D03*
%TD*%
D18*
%TO.C,J7*%
X146870000Y-131825000D03*
D19*
X144370000Y-131825000D03*
X141870000Y-131825000D03*
X139370000Y-131825000D03*
%TD*%
D20*
%TO.C,R10*%
X108709999Y-109150000D03*
X106884999Y-109150000D03*
%TD*%
D46*
%TO.C,U8*%
X151949999Y-65474999D03*
X149409999Y-65474999D03*
X146870000Y-65474999D03*
X144329999Y-65474999D03*
X141789999Y-65474999D03*
X139249999Y-65474999D03*
X136709999Y-65474999D03*
X134169998Y-65474999D03*
X151949999Y-78174999D03*
X149409999Y-78174999D03*
X146869999Y-78175000D03*
X144329999Y-78174999D03*
X141789999Y-78174999D03*
X139249999Y-78174999D03*
X136709999Y-78174999D03*
X134169999Y-78175000D03*
%TD*%
D43*
%TO.C,C11*%
X109710000Y-83952501D03*
X109710000Y-82227499D03*
%TD*%
D24*
%TO.C,Q2*%
X107200000Y-123899999D03*
X105300000Y-123899999D03*
X106250000Y-125775000D03*
%TD*%
D48*
%TO.C,R2*%
X121230000Y-89407500D03*
X121230000Y-88212500D03*
%TD*%
D21*
%TO.C,D13*%
X154232499Y-111870000D03*
X155807501Y-111870000D03*
%TD*%
D49*
%TO.C,C6*%
X114415000Y-102830000D03*
X112865000Y-102830000D03*
%TD*%
D34*
%TO.C,R6*%
X129577500Y-98200000D03*
X131402500Y-98200000D03*
%TD*%
D18*
%TO.C,J5*%
X146720000Y-107400000D03*
D19*
X144220000Y-107400000D03*
X141720000Y-107400000D03*
X139220000Y-107400000D03*
%TD*%
D21*
%TO.C,D1*%
X98095000Y-99270000D03*
X99670000Y-99270000D03*
%TD*%
%TO.C,D5*%
X110347499Y-109140000D03*
X111922499Y-109140000D03*
%TD*%
D50*
%TO.C,F1*%
X118069999Y-65250000D03*
X115270001Y-65250000D03*
%TD*%
D37*
%TO.C,J9*%
X118450000Y-128800000D03*
D38*
X120450001Y-128800000D03*
%TD*%
D41*
%TO.C,R25*%
X160450000Y-116230000D03*
X162100000Y-116230000D03*
%TD*%
D43*
%TO.C,C12*%
X119150000Y-81020000D03*
X119150000Y-79294998D03*
%TD*%
D46*
%TO.C,U11*%
X175530000Y-65450000D03*
X172990000Y-65450000D03*
X170450001Y-65450000D03*
X167910000Y-65450000D03*
X165370000Y-65450000D03*
X162830000Y-65450000D03*
X160290000Y-65450000D03*
X157749999Y-65450000D03*
X175530000Y-78150000D03*
X172990000Y-78150000D03*
X170450000Y-78150001D03*
X167910000Y-78150000D03*
X165370000Y-78150000D03*
X162830000Y-78150000D03*
X160290000Y-78150000D03*
X157750000Y-78150001D03*
%TD*%
D51*
%TO.C,C4*%
X124080000Y-93965000D03*
X124080000Y-92415000D03*
%TD*%
D39*
%TO.C,J2*%
X100850000Y-116860000D03*
D40*
X100850000Y-118860001D03*
X100850000Y-120860000D03*
%TD*%
D22*
%TO.C,C5*%
X122905000Y-102820000D03*
X124455000Y-102820000D03*
%TD*%
D24*
%TO.C,Q4*%
X114250000Y-123899999D03*
X112350000Y-123899999D03*
X113300000Y-125775000D03*
%TD*%
D20*
%TO.C,R14*%
X103127500Y-95790000D03*
X101302500Y-95790000D03*
%TD*%
D46*
%TO.C,U7*%
X151895000Y-88750000D03*
X149355000Y-88750000D03*
X146815001Y-88750000D03*
X144275000Y-88750000D03*
X141735000Y-88750000D03*
X139195000Y-88750000D03*
X136655000Y-88750000D03*
X134114999Y-88750000D03*
X151895000Y-101450000D03*
X149355000Y-101450000D03*
X146815000Y-101450001D03*
X144275000Y-101450000D03*
X141735000Y-101450000D03*
X139195000Y-101450000D03*
X136655000Y-101450000D03*
X134115000Y-101450001D03*
%TD*%
D52*
%TO.C,C8*%
X111500000Y-99203749D03*
X111500000Y-100753749D03*
%TD*%
D44*
%TO.C,C21*%
X179455000Y-129069887D03*
D45*
X179455000Y-131569887D03*
%TD*%
D53*
%TO.C,C3*%
X101030001Y-83520000D03*
X99304999Y-83520000D03*
%TD*%
D21*
%TO.C,D15*%
X178364998Y-64460000D03*
X179940000Y-64460000D03*
%TD*%
D41*
%TO.C,R23*%
X136640000Y-116350000D03*
X138290000Y-116350000D03*
%TD*%
D21*
%TO.C,D2*%
X98082500Y-100990000D03*
X99657500Y-100990000D03*
%TD*%
D54*
%TO.C,U2*%
X121320000Y-94025000D03*
X120820000Y-94025000D03*
X120320000Y-94025000D03*
X119819999Y-94025000D03*
X119320000Y-94025000D03*
X118820000Y-94025000D03*
X118320000Y-94025000D03*
X117820000Y-94025000D03*
X117320001Y-94025000D03*
X116820000Y-94025000D03*
X116320000Y-94025000D03*
X115820000Y-94025000D03*
D55*
X114407500Y-95437500D03*
X114407500Y-95937500D03*
X114407500Y-96437500D03*
X114407500Y-96937501D03*
X114407500Y-97437500D03*
X114407500Y-97937500D03*
X114407500Y-98437500D03*
X114407500Y-98937500D03*
X114407500Y-99437499D03*
X114407500Y-99937500D03*
X114407500Y-100437500D03*
X114407500Y-100937500D03*
D54*
X115820000Y-102350000D03*
X116320000Y-102350000D03*
X116820000Y-102350000D03*
X117320001Y-102350000D03*
X117820000Y-102350000D03*
X118320000Y-102350000D03*
X118820000Y-102350000D03*
X119320000Y-102350000D03*
X119819999Y-102350000D03*
X120320000Y-102350000D03*
X120820000Y-102350000D03*
X121320000Y-102350000D03*
D55*
X122732500Y-100937500D03*
X122732500Y-100437500D03*
X122732500Y-99937500D03*
X122732500Y-99437499D03*
X122732500Y-98937500D03*
X122732500Y-98437500D03*
X122732500Y-97937500D03*
X122732500Y-97437500D03*
X122732500Y-96937501D03*
X122732500Y-96437500D03*
X122732500Y-95937500D03*
X122732500Y-95437500D03*
%TD*%
D46*
%TO.C,U9*%
X151930000Y-113475000D03*
X149390000Y-113475000D03*
X146850000Y-113475000D03*
X144310000Y-113475000D03*
X141770000Y-113475000D03*
X139230000Y-113475000D03*
X136690000Y-113475000D03*
X134150000Y-113475000D03*
X151930000Y-126175000D03*
X149390000Y-126175000D03*
X146850000Y-126175000D03*
X144310000Y-126175000D03*
X141770000Y-126175000D03*
X139230000Y-126175000D03*
X136690000Y-126175000D03*
X134150000Y-126175000D03*
%TD*%
D53*
%TO.C,C7*%
X99272501Y-88650000D03*
X97547499Y-88650000D03*
%TD*%
D37*
%TO.C,J13*%
X111299999Y-128750001D03*
D38*
X113300000Y-128750001D03*
%TD*%
D21*
%TO.C,D14*%
X178300000Y-111870000D03*
X179875000Y-111870000D03*
%TD*%
D20*
%TO.C,R1*%
X103117500Y-99260000D03*
X101292500Y-99260000D03*
%TD*%
D56*
%TO.C,SW1*%
X102375001Y-86070000D03*
X97924999Y-86070000D03*
%TD*%
D34*
%TO.C,R18*%
X153965000Y-88750000D03*
X155790000Y-88750000D03*
%TD*%
%TO.C,R24*%
X178050000Y-113470000D03*
X179875000Y-113470000D03*
%TD*%
D20*
%TO.C,R27*%
X121312499Y-122062499D03*
X119487499Y-122062499D03*
%TD*%
D21*
%TO.C,D10*%
X178350000Y-87120000D03*
X179925000Y-87120000D03*
%TD*%
D57*
%TO.C,Y1*%
X120075000Y-88220001D03*
X120075000Y-89219999D03*
X118725000Y-88220001D03*
X118725000Y-89219999D03*
%TD*%
D34*
%TO.C,R16*%
X178100000Y-88740000D03*
X179925000Y-88740000D03*
%TD*%
D43*
%TO.C,C13*%
X120700000Y-81030000D03*
X120700000Y-79304998D03*
%TD*%
D37*
%TO.C,J12*%
X125600001Y-128800000D03*
D38*
X127600002Y-128800000D03*
%TD*%
D58*
%TO.C,C1*%
X120087500Y-86990000D03*
X118952500Y-86990000D03*
%TD*%
D44*
%TO.C,C17*%
X179480000Y-105300000D03*
D45*
X179480000Y-107800000D03*
%TD*%
D20*
%TO.C,R15*%
X103127500Y-97560000D03*
X101302500Y-97560000D03*
%TD*%
D44*
%TO.C,C19*%
X155155000Y-81069887D03*
D45*
X155155000Y-83569887D03*
%TD*%
D21*
%TO.C,D4*%
X98072500Y-104390000D03*
X99647500Y-104390000D03*
%TD*%
D44*
%TO.C,C22*%
X179505000Y-81119887D03*
D45*
X179505000Y-83619887D03*
%TD*%
D46*
%TO.C,U10*%
X175690000Y-113475000D03*
X173150000Y-113475000D03*
X170610000Y-113475000D03*
X168070000Y-113475000D03*
X165530000Y-113475000D03*
X162990000Y-113475000D03*
X160450000Y-113475000D03*
X157910000Y-113475000D03*
X175690000Y-126175000D03*
X173150000Y-126175000D03*
X170610000Y-126175000D03*
X168070000Y-126175000D03*
X165530000Y-126175000D03*
X162990000Y-126175000D03*
X160450000Y-126175000D03*
X157910000Y-126175000D03*
%TD*%
D34*
%TO.C,R30*%
X178127500Y-66080000D03*
X179952500Y-66080000D03*
%TD*%
D21*
%TO.C,D8*%
X98097500Y-95800000D03*
X99672500Y-95800000D03*
%TD*%
D59*
%TO.C,J1*%
X98145000Y-114100000D03*
D60*
X98145000Y-116640000D03*
X98145000Y-119180000D03*
X98145000Y-121720000D03*
%TD*%
D61*
X157910000Y-124870000D03*
X182920000Y-68950000D03*
X130620000Y-95750000D03*
X174640000Y-66790000D03*
X106890000Y-108230000D03*
X170470000Y-76620000D03*
X99370000Y-72480000D03*
X112880000Y-104190000D03*
X160340000Y-95880000D03*
X102020000Y-121360000D03*
X134670000Y-82310000D03*
X170450000Y-71130000D03*
X163090000Y-116080000D03*
X122580000Y-91340000D03*
X122080000Y-120950000D03*
X149090000Y-111900000D03*
X135390000Y-135100000D03*
X183610000Y-107300000D03*
X126010000Y-112520000D03*
X124000000Y-123000000D03*
X156510000Y-101450000D03*
X160330000Y-70990000D03*
X129530000Y-78260000D03*
X107210000Y-100450000D03*
X119490000Y-121080000D03*
X136610000Y-95740000D03*
X127450000Y-123910000D03*
X139280000Y-69220000D03*
X108660000Y-69540000D03*
X102530000Y-80900000D03*
X177410000Y-111870000D03*
X149000000Y-79710000D03*
X157940000Y-71000000D03*
X96870000Y-75030000D03*
X120820000Y-100980000D03*
X177540000Y-127480000D03*
X130810000Y-88230000D03*
X164190000Y-103270000D03*
X107640000Y-102460000D03*
X119380000Y-125330000D03*
X136680000Y-111920000D03*
X142030000Y-93380000D03*
X152990000Y-116110000D03*
X121540000Y-64400000D03*
X163420000Y-121020000D03*
X122280000Y-88440000D03*
X115600000Y-67040000D03*
X124730000Y-108330000D03*
X119410000Y-67020000D03*
X110059999Y-114310000D03*
X187810000Y-83630000D03*
X142030000Y-91530000D03*
X111130000Y-80020000D03*
X142020000Y-110160000D03*
X110700000Y-72960000D03*
X160080000Y-107030000D03*
X105180000Y-125270000D03*
X112260000Y-96040000D03*
X161560000Y-66380000D03*
X109830000Y-130150000D03*
X164250000Y-112430000D03*
X133240000Y-82310000D03*
X96720000Y-115560000D03*
X117710000Y-83670000D03*
X123240000Y-109940000D03*
X146860000Y-99880000D03*
X176560000Y-66800000D03*
X108270000Y-118150000D03*
X144340000Y-72980000D03*
X143060000Y-114370000D03*
X115040000Y-86320000D03*
X110530000Y-100760000D03*
X161500000Y-84450000D03*
X144370000Y-76670000D03*
X102210000Y-98420000D03*
X159040000Y-64350000D03*
X158300000Y-107030000D03*
X172820000Y-90350000D03*
X115620000Y-79260000D03*
X149010000Y-87140000D03*
X149030000Y-83150000D03*
X153300000Y-64320000D03*
X124440000Y-67910000D03*
X141820000Y-72980000D03*
X159150000Y-114340000D03*
X162940000Y-91320000D03*
X170880000Y-116170000D03*
X173150000Y-124860000D03*
X119790000Y-130140000D03*
X176530000Y-69430000D03*
X110080000Y-121210000D03*
X164020000Y-82020000D03*
X142020000Y-95730000D03*
X160320000Y-87030000D03*
X141530000Y-66970000D03*
X115800000Y-135000000D03*
X134620000Y-95780000D03*
X170550000Y-109220000D03*
X187590000Y-70330000D03*
X110209999Y-116890000D03*
X187810000Y-127260000D03*
X129870000Y-103960000D03*
X119160000Y-78340000D03*
X161720000Y-100150000D03*
X118540000Y-95530000D03*
X181620000Y-127510000D03*
X172890000Y-87020000D03*
X134100000Y-102750000D03*
X132080000Y-79860000D03*
X121320000Y-106560000D03*
X177660000Y-103300000D03*
X103700000Y-89770000D03*
X101100000Y-84820000D03*
X167950000Y-76620000D03*
X144260000Y-109470000D03*
X98090000Y-108940000D03*
X140600000Y-84810000D03*
X144280000Y-99920000D03*
X166770000Y-112440000D03*
X99290000Y-122710000D03*
X174650000Y-69430000D03*
X133240000Y-87410000D03*
X180910000Y-97410000D03*
X160270000Y-76600000D03*
X156880000Y-91800000D03*
X137930000Y-79650000D03*
X156370000Y-131810000D03*
X164300000Y-108500000D03*
X97550000Y-89570000D03*
X134550000Y-111960000D03*
X113570000Y-117220000D03*
X104380000Y-121970000D03*
X103780000Y-87720000D03*
X172860000Y-115020000D03*
X120700000Y-78320000D03*
X165680000Y-76600000D03*
X134750000Y-87410000D03*
X140430000Y-106150000D03*
X123770000Y-76600000D03*
X118620000Y-113360000D03*
X117960000Y-100850000D03*
X130040000Y-112470000D03*
X118950000Y-111770000D03*
X176770000Y-89860000D03*
X96750000Y-86520000D03*
X113190000Y-123860000D03*
X168010000Y-99880000D03*
X113720000Y-64430000D03*
X127640000Y-87890000D03*
X147890000Y-115790000D03*
X165880000Y-109220000D03*
X103160000Y-83420000D03*
X140550000Y-82360000D03*
X102480000Y-119040000D03*
X157830000Y-100100000D03*
X98930000Y-91200000D03*
X102220000Y-103540000D03*
X148970000Y-76640000D03*
X98070000Y-105400000D03*
X165570000Y-90420000D03*
X132447500Y-98197500D03*
X149080000Y-67210000D03*
X102210000Y-96670000D03*
X172720000Y-67050000D03*
X107560000Y-87790000D03*
X133220000Y-93440000D03*
X177730000Y-131080000D03*
X153030000Y-114360000D03*
X156720000Y-114380000D03*
X173040000Y-73000000D03*
X149200000Y-70580000D03*
X183630000Y-119320000D03*
X97940000Y-92650000D03*
X161710000Y-124120000D03*
X174510000Y-93850000D03*
X101190000Y-134340000D03*
X140530000Y-130430000D03*
X130980000Y-91470000D03*
X119650000Y-89890000D03*
X155780000Y-103490000D03*
X153320000Y-106130000D03*
X96760000Y-120500000D03*
X170520000Y-95910000D03*
X178270000Y-124030000D03*
X159220000Y-124120000D03*
X106170000Y-85160000D03*
X165570000Y-87060000D03*
X122060000Y-115640000D03*
X183590000Y-79150000D03*
X140520000Y-79040000D03*
X120260000Y-123930000D03*
X170430000Y-73020000D03*
X129990000Y-117510000D03*
X165630000Y-66940000D03*
X121440000Y-72860000D03*
X139560000Y-111940000D03*
X146750000Y-76660000D03*
X112380000Y-121030000D03*
X157760000Y-76830000D03*
X127430000Y-96220000D03*
X161290000Y-131180000D03*
X149360000Y-124730000D03*
X167950000Y-66970000D03*
X177440000Y-76510000D03*
X153580000Y-107760000D03*
X170580000Y-99840000D03*
X173110000Y-99850000D03*
X155330000Y-70620000D03*
X144370000Y-93390000D03*
X96730000Y-83490000D03*
X96780000Y-124970000D03*
X123930000Y-120930000D03*
X119430000Y-127240000D03*
X115740000Y-100440000D03*
X177910000Y-83610000D03*
X102040000Y-77160000D03*
X98250000Y-83520000D03*
X140540000Y-89950000D03*
X110110000Y-102480000D03*
X107260000Y-125330000D03*
X181520000Y-134730000D03*
X106050000Y-96180000D03*
X147080000Y-117520000D03*
X161690000Y-127480000D03*
X131340000Y-64410000D03*
X134710000Y-79830000D03*
X107850000Y-93470000D03*
X102190000Y-100130000D03*
X156800000Y-69050000D03*
X153307500Y-111860000D03*
X134690000Y-73040000D03*
X160350000Y-73000000D03*
X124790000Y-106600000D03*
X136580000Y-98230000D03*
X167980000Y-71130000D03*
X139110000Y-124100000D03*
X115790000Y-98440000D03*
X173160000Y-127490000D03*
X183610000Y-87950000D03*
X119280000Y-82240000D03*
X159120000Y-116070000D03*
X160370000Y-92520000D03*
X111925000Y-102830000D03*
X122340000Y-83780000D03*
X132880000Y-89960000D03*
X123930000Y-116250000D03*
X117830000Y-98950000D03*
X174670000Y-116970000D03*
X127620000Y-91420000D03*
X106480000Y-104340000D03*
X168020000Y-73000000D03*
X109890000Y-93490000D03*
X158250000Y-110220000D03*
X112230000Y-125550000D03*
X116860000Y-122940000D03*
X139100000Y-116350000D03*
X149170000Y-91490000D03*
X172780000Y-84500000D03*
X131580000Y-69240000D03*
X121410000Y-125360000D03*
X121750000Y-79770000D03*
X126650000Y-121040000D03*
X139180000Y-91110000D03*
X112740000Y-130160000D03*
X177650000Y-80020000D03*
X182840000Y-73030000D03*
X170480000Y-66940000D03*
X162800000Y-68270000D03*
X112240000Y-127290000D03*
X172850000Y-95610000D03*
X132090000Y-76720000D03*
X108560000Y-81910000D03*
X127000000Y-130330000D03*
X94750000Y-72480000D03*
X143070000Y-64810000D03*
X110690000Y-76710000D03*
X177910000Y-107170000D03*
X121390000Y-95940000D03*
X114760000Y-106860000D03*
X169330000Y-114370000D03*
X99620000Y-115580000D03*
X166630000Y-64280000D03*
X171840000Y-112500000D03*
X158240000Y-103500000D03*
X170500000Y-90390000D03*
X153370000Y-80060000D03*
X146820000Y-70000000D03*
X174140000Y-97370000D03*
X124250000Y-95350000D03*
X128600000Y-120830000D03*
X181420000Y-65180000D03*
X179460000Y-133120000D03*
X125260000Y-84040000D03*
X173090000Y-102950000D03*
X137920000Y-108530000D03*
X153590000Y-84150000D03*
X142130000Y-85450000D03*
X105400000Y-118790000D03*
X98050000Y-112290000D03*
X116930000Y-130140000D03*
X136500000Y-82330000D03*
X165630000Y-71040000D03*
X187570000Y-110060000D03*
X180860000Y-99820000D03*
X139340000Y-68160000D03*
X166790000Y-114340000D03*
X104240000Y-74830000D03*
X130250000Y-99460000D03*
X165670000Y-73020000D03*
X96870000Y-80830000D03*
X161700000Y-112430000D03*
X157760000Y-79480000D03*
X124020000Y-130070000D03*
X109329999Y-112670000D03*
X169210000Y-133190000D03*
X114460000Y-125560000D03*
X156430000Y-107800000D03*
X127070000Y-111340000D03*
X153270000Y-76530000D03*
X148890000Y-99730000D03*
X124445000Y-103800000D03*
X180860000Y-118650000D03*
X130010000Y-116100000D03*
X157950000Y-73000000D03*
X161710000Y-114340000D03*
X149230000Y-95730000D03*
X142040000Y-99880000D03*
X132160000Y-66430000D03*
X157010000Y-111990000D03*
X153820000Y-101460000D03*
X150660000Y-112650000D03*
X172540000Y-119150000D03*
X124440000Y-71140000D03*
X136610000Y-76590000D03*
X103660000Y-85030000D03*
X177400000Y-87120000D03*
X127060000Y-78230000D03*
X178210000Y-121490000D03*
X172730000Y-107160000D03*
X160100000Y-111790000D03*
X102150000Y-105340000D03*
X140400000Y-102450000D03*
X125420000Y-79980000D03*
X138710000Y-99850000D03*
X102700000Y-130120000D03*
X180890000Y-103330000D03*
X96770000Y-117870000D03*
X134100000Y-100170000D03*
X183680000Y-125420000D03*
X174410000Y-112530000D03*
X136540000Y-103040000D03*
X181340000Y-76800000D03*
X166780000Y-116070000D03*
X102190000Y-101820000D03*
X113450000Y-113380000D03*
X100990000Y-64510000D03*
X109980000Y-88650000D03*
X117850000Y-79820000D03*
X173060000Y-76650000D03*
X134620000Y-98190000D03*
X134150000Y-124880000D03*
X172430000Y-131270000D03*
X138010000Y-82310000D03*
X177422499Y-64450000D03*
X149100000Y-110180000D03*
X95100000Y-128100000D03*
X97940000Y-84780000D03*
X155000000Y-109200000D03*
X126740000Y-114280000D03*
X140480000Y-108510000D03*
X151490000Y-135070000D03*
X136620000Y-69240000D03*
X118290000Y-69750000D03*
X124080000Y-91462500D03*
X103120000Y-92900000D03*
X99090000Y-87050000D03*
X107620000Y-79450000D03*
X181080000Y-107180000D03*
X176820000Y-114630000D03*
X144380000Y-91520000D03*
X115030000Y-69770000D03*
X103350000Y-120680000D03*
X161430000Y-107010000D03*
X153360000Y-87130000D03*
X129560000Y-85720000D03*
X136560000Y-87280000D03*
X167980000Y-109240000D03*
X130050000Y-114250000D03*
X100950000Y-91210000D03*
X167990000Y-90390000D03*
X169290000Y-112450000D03*
X104890000Y-115940000D03*
X111640000Y-87840000D03*
X135430000Y-64800000D03*
X117700000Y-82260000D03*
X116790000Y-121060000D03*
X148240000Y-130260000D03*
X171730000Y-64300000D03*
X129400000Y-69230000D03*
X121310000Y-104040000D03*
X109710000Y-81130000D03*
X105640000Y-130150000D03*
X134550000Y-69230000D03*
X148250000Y-120990000D03*
X116590000Y-109390000D03*
X146800000Y-95740000D03*
X181060000Y-83630000D03*
X111040000Y-83570000D03*
X102480000Y-116640000D03*
X157960000Y-84480000D03*
X116810000Y-115340000D03*
X156700000Y-116080000D03*
X153670000Y-131820000D03*
X102390000Y-112380000D03*
X143060000Y-130440000D03*
X164270000Y-133190000D03*
X108529999Y-115450000D03*
X164340000Y-100140000D03*
X121320000Y-69030000D03*
X156700000Y-119150000D03*
X182440000Y-131390000D03*
X126570000Y-125270000D03*
X185400000Y-129100000D03*
X112090000Y-90840000D03*
X172750000Y-71110000D03*
X96870000Y-70520000D03*
X167950000Y-117920000D03*
X131130000Y-121050000D03*
X110060000Y-96060000D03*
X146800000Y-109450000D03*
X156590000Y-126220000D03*
X116640000Y-68100000D03*
X146800000Y-91490000D03*
X149010000Y-72990000D03*
X136630000Y-93410000D03*
X137970000Y-64810000D03*
X136640000Y-73010000D03*
X174260000Y-120240000D03*
X106060000Y-91600000D03*
X134630000Y-66950000D03*
X149220000Y-93410000D03*
X132780000Y-101520000D03*
X149340000Y-127560000D03*
X139220000Y-87260000D03*
X155890000Y-127480000D03*
X113410000Y-88010000D03*
X106860000Y-83700000D03*
X145600000Y-130330000D03*
X187750000Y-97050000D03*
X121300000Y-107900000D03*
X137830000Y-127470000D03*
X146780000Y-72990000D03*
X183680000Y-103330000D03*
X181120000Y-88110000D03*
X146800000Y-93410000D03*
X157690000Y-87110000D03*
X116470000Y-77760000D03*
X128350000Y-84050000D03*
X166060000Y-135070000D03*
X144380000Y-95740000D03*
X148980000Y-102860000D03*
X172710000Y-110180000D03*
X155190000Y-93420000D03*
X137980000Y-114370000D03*
X173020000Y-79700000D03*
X99890000Y-74830000D03*
X118930000Y-86130000D03*
X104710000Y-112760000D03*
X106180000Y-123850000D03*
X142150000Y-87210000D03*
X108010000Y-121120000D03*
X150640000Y-66210000D03*
X108970000Y-85140000D03*
X141720000Y-76660000D03*
X168040000Y-95910000D03*
X134150000Y-76840000D03*
X126770000Y-116200000D03*
X103540000Y-109200000D03*
X165570000Y-95910000D03*
X132830000Y-78190000D03*
X156600000Y-89740000D03*
X116700000Y-71370000D03*
X157880000Y-95860000D03*
X156790000Y-66790000D03*
X105250000Y-127340000D03*
X126580000Y-127360000D03*
X132830000Y-126230000D03*
X110090000Y-122970000D03*
X141990000Y-111950000D03*
D45*
X109950000Y-78870000D03*
D61*
X104020000Y-95780000D03*
D45*
X104759999Y-108090000D03*
D61*
X101040000Y-86040000D03*
D45*
X128960000Y-95700000D03*
X182310000Y-102290000D03*
X122930000Y-104170000D03*
X110100000Y-99190000D03*
X114460000Y-104190000D03*
D61*
X118115000Y-107475000D03*
X134180000Y-92460000D03*
X122510000Y-92440000D03*
X127740000Y-89090000D03*
X132790000Y-64450000D03*
X127740000Y-90120000D03*
X133570000Y-72640000D03*
X129150000Y-72370000D03*
X116900000Y-91760000D03*
X128030887Y-72376401D03*
X116175000Y-90890000D03*
X169590000Y-116140000D03*
X115175247Y-90912341D03*
X126930000Y-72350000D03*
X118075304Y-106410000D03*
X117120251Y-108129749D03*
X155720000Y-118510000D03*
X114400000Y-94070000D03*
X125810000Y-72370000D03*
X166710000Y-117740000D03*
X131720000Y-93440000D03*
X116210000Y-96460000D03*
X116810000Y-100850000D03*
X134170000Y-94370000D03*
X113090000Y-94080000D03*
X124797270Y-72367424D03*
X115110000Y-111430000D03*
X116380000Y-110680000D03*
%LPD*%
M02*
